<?xml version="1.0" standalone="no"?>
 <!DOCTYPE svg PUBLIC "-//W3C//DTD SVG 1.1//EN" 
 "http://www.w3.org/Graphics/SVG/1.1/DTD/svg11.dtd"> 
<svg
  xmlns:svg="http://www.w3.org/2000/svg"
  xmlns="http://www.w3.org/2000/svg"
  xmlns:xlink="http://www.w3.org/1999/xlink"
  version="1.1"
  width="297.0022mm" height="210.0072mm" viewBox="0.0000 0.0000 297.0022 210.0072">
<title>SVG Image created as mixpower-path-mini-axp2585-board-r1-B_Mask.svg date 2026/02/28 21:21:55 </title>
  <desc>Image generated by PCBNEW </desc>
<g style="fill:#000000; fill-opacity:1.0000;stroke:#000000; stroke-opacity:1.0000;
stroke-linecap:round; stroke-linejoin:round;"
 transform="translate(0 0) scale(1 1)">
<path style="fill:#02FFEE; fill-opacity:0.4000; stroke:none;fill-rule:evenodd;"
d="M 214.4150,56.2750
215.9150,56.2750
215.9150,56.5750
214.4150,56.5750
Z" /> 
<path style="fill:#02FFEE; fill-opacity:0.4000; stroke:none;fill-rule:evenodd;"
d="M 203.4620,55.0700
204.9620,55.0700
204.9620,55.3700
203.4620,55.3700
Z" /> 
<path style="fill:#02FFEE; fill-opacity:0.4000; stroke:none;fill-rule:evenodd;"
d="M 200.3950,82.9950
201.8950,82.9950
201.8950,81.4950
200.3950,81.4950
Z" /> 
<path style="fill:#02FFEE; fill-opacity:0.4000; stroke:none;fill-rule:evenodd;"
d="M 200.3920,86.2100
201.8920,86.2100
201.8920,84.7100
200.3920,84.7100
Z" /> 
<path style="fill:#02FFEE; fill-opacity:0.4000; stroke:none;fill-rule:evenodd;"
d="M 194.7300,54.1900
194.7300,52.4900
196.4300,52.4900
196.4300,54.1900
Z" /> 
</g>
<g style="fill:#02FFEE; fill-opacity:0.4000; stroke:none;">
<circle cx="195.5800" cy="55.8800" r="0.8500" /> 
</g>
<g style="fill:#02FFEE; fill-opacity:0.4000; stroke:none;">
<circle cx="195.5800" cy="58.4200" r="0.8500" /> 
<path style="fill:#02FFEE; fill-opacity:0.4000; stroke:none;fill-rule:evenodd;"
d="M 213.5150,95.7250
213.4960,95.8207
213.4418,95.9018
213.3607,95.9560
213.2650,95.9750
212.7350,95.9750
212.6393,95.9560
212.5582,95.9018
212.5040,95.8207
212.4850,95.7250
212.4850,94.4950
212.5040,94.3993
212.5582,94.3182
212.6393,94.2640
212.7350,94.2450
213.2650,94.2450
213.3607,94.2640
213.4418,94.3182
213.4960,94.3993
213.5150,94.4950
Z" /> 
</g>
<g style="fill:none; 
stroke:#02FFEE; stroke-width:1.0300; stroke-opacity:1; 
stroke-linecap:round; stroke-linejoin:round;">
<path d="M211.5000 95.4600
L211.5000 94.7600
" />
<path d="M210.0000 95.4600
L210.0000 94.7600
" />
<path d="M208.5000 95.4600
L208.5000 94.7600
" />
<path d="M207.0000 95.4600
L207.0000 94.7600
" />
<path d="M205.5000 95.4600
L205.5000 94.7600
" />
<path d="M204.0000 95.4600
L204.0000 94.7600
" />
<path d="M202.5000 95.4600
L202.5000 94.7600
" />
<path d="M201.0000 95.4600
L201.0000 94.7600
" />
<path style="fill:#02FFEE; fill-opacity:0.4000; stroke:none;fill-rule:evenodd;"
d="M 193.4600,71.9700
193.4600,70.2700
195.1600,70.2700
195.1600,71.9700
Z" /> 
</g>
<g style="fill:#02FFEE; fill-opacity:0.4000; stroke:none;">
<circle cx="194.3100" cy="73.6600" r="0.8500" /> 
</g>
<g style="fill:#02FFEE; fill-opacity:0.4000; stroke:none;">
<circle cx="194.3100" cy="76.2000" r="0.8500" /> 
</g>
<g style="fill:#02FFEE; fill-opacity:0.4000; stroke:none;">
<circle cx="194.3100" cy="78.7400" r="0.8500" /> 
</g>
<g style="fill:#02FFEE; fill-opacity:0.4000; stroke:none;">
<circle cx="194.3100" cy="81.2800" r="0.8500" /> 
</g>
<g style="fill:#02FFEE; fill-opacity:0.4000; stroke:none;">
<circle cx="194.3100" cy="83.8200" r="0.8500" /> 
</g>
<g style="fill:#02FFEE; fill-opacity:0.4000; stroke:none;">
<circle cx="194.3100" cy="86.3600" r="0.8500" /> 
</g>
<g style="fill:#02FFEE; fill-opacity:0.4000; stroke:none;">
<circle cx="194.3100" cy="88.9000" r="0.8500" /> 
<path style="fill:#02FFEE; fill-opacity:0.4000; stroke:none;fill-rule:evenodd;"
d="M 218.8400,66.8900
218.8400,65.1900
220.5400,65.1900
220.5400,66.8900
Z" /> 
</g>
<g style="fill:#02FFEE; fill-opacity:0.4000; stroke:none;">
<circle cx="219.6900" cy="68.5800" r="0.8500" /> 
</g>
<g style="fill:#02FFEE; fill-opacity:0.4000; stroke:none;">
<circle cx="219.6900" cy="71.1200" r="0.8500" /> 
</g>
<g style="fill:#02FFEE; fill-opacity:0.4000; stroke:none;">
<circle cx="219.6900" cy="73.6600" r="0.8500" /> 
</g>
<g style="fill:#02FFEE; fill-opacity:0.4000; stroke:none;">
<circle cx="219.6900" cy="76.2000" r="0.8500" /> 
</g>
<g style="fill:#02FFEE; fill-opacity:0.4000; stroke:none;">
<circle cx="219.6900" cy="78.7400" r="0.8500" /> 
</g>
<g style="fill:#02FFEE; fill-opacity:0.4000; stroke:none;">
<circle cx="219.6900" cy="81.2800" r="0.8500" /> 
</g>
<g style="fill:#02FFEE; fill-opacity:0.4000; stroke:none;">
<circle cx="219.6900" cy="83.8200" r="0.8500" /> 
</g>
<g style="fill:#02FFEE; fill-opacity:0.4000; stroke:none;">
<circle cx="219.6900" cy="86.3600" r="0.8500" /> 
</g>
<g style="fill:#02FFEE; fill-opacity:0.4000; stroke:none;">
<circle cx="219.6900" cy="88.9000" r="0.8500" /> 
</g>
<g style="fill:#02FFEE; fill-opacity:0.4000; stroke:none;">
<circle cx="215.7450" cy="47.4900" r="0.3250" /> 
</g>
<g style="fill:#02FFEE; fill-opacity:0.4000; stroke:none;">
<circle cx="217.4450" cy="47.4900" r="0.3250" /> 
</g>
<g style="fill:#02FFEE; fill-opacity:0.4000; stroke:none;">
<circle cx="217.1700" cy="93.9800" r="1.1000" /> 
<path style="fill:#02FFEE; fill-opacity:0.4000; stroke:none;fill-rule:evenodd;"
d="M 194.7300,71.9700
194.7300,70.2700
196.4300,70.2700
196.4300,71.9700
Z" /> 
</g>
<g style="fill:#02FFEE; fill-opacity:0.4000; stroke:none;">
<circle cx="195.5800" cy="73.6600" r="0.8500" /> 
</g>
<g style="fill:#02FFEE; fill-opacity:0.4000; stroke:none;">
<circle cx="195.5800" cy="76.2000" r="0.8500" /> 
</g>
<g style="fill:#02FFEE; fill-opacity:0.4000; stroke:none;">
<circle cx="195.5800" cy="78.7400" r="0.8500" /> 
</g>
<g style="fill:#02FFEE; fill-opacity:0.4000; stroke:none;">
<circle cx="195.5800" cy="81.2800" r="0.8500" /> 
</g>
<g style="fill:#02FFEE; fill-opacity:0.4000; stroke:none;">
<circle cx="195.5800" cy="83.8200" r="0.8500" /> 
</g>
<g style="fill:#02FFEE; fill-opacity:0.4000; stroke:none;">
<circle cx="195.5800" cy="86.3600" r="0.8500" /> 
</g>
<g style="fill:#02FFEE; fill-opacity:0.4000; stroke:none;">
<circle cx="195.5800" cy="88.9000" r="0.8500" /> 
</g>
<g style="fill:#02FFEE; fill-opacity:0.4000; stroke:none;">
<circle cx="211.1700" cy="50.8700" r="0.3250" /> 
</g>
<g style="fill:#02FFEE; fill-opacity:0.4000; stroke:none;">
<circle cx="205.3900" cy="50.8700" r="0.3250" /> 
</g>
<g style="fill:none; 
stroke:#02FFEE; stroke-width:1.0000; stroke-opacity:1; 
stroke-linecap:round; stroke-linejoin:round;">
<path d="M212.6000 51.9500
L212.6000 50.8500
" />
<path d="M212.6000 47.5200
L212.6000 46.9200
" />
<path d="M203.9600 51.9500
L203.9600 50.8500
" />
<path d="M203.9600 47.5200
L203.9600 46.9200
" />
</g>
<g style="fill:#02FFEE; fill-opacity:0.4000; stroke:none;">
<circle cx="194.3100" cy="48.2600" r="1.1000" /> 
</g>
<g style="fill:#02FFEE; fill-opacity:0.4000; stroke:none;">
<circle cx="196.8500" cy="93.9800" r="1.1000" /> 
<path style="fill:#02FFEE; fill-opacity:0.4000; stroke:none;fill-rule:evenodd;"
d="M 190.9200,54.1900
190.9200,52.4900
192.6200,52.4900
192.6200,54.1900
Z" /> 
</g>
<g style="fill:#02FFEE; fill-opacity:0.4000; stroke:none;">
<circle cx="191.7700" cy="55.8800" r="0.8500" /> 
</g>
<g style="fill:#02FFEE; fill-opacity:0.4000; stroke:none;">
<circle cx="191.7700" cy="58.4200" r="0.8500" /> 
<path style="fill:#02FFEE; fill-opacity:0.4000; stroke:none;fill-rule:evenodd;"
d="M 217.5800,66.8900
217.5800,65.1900
219.2800,65.1900
219.2800,66.8900
Z" /> 
</g>
<g style="fill:#02FFEE; fill-opacity:0.4000; stroke:none;">
<circle cx="218.4300" cy="68.5800" r="0.8500" /> 
</g>
<g style="fill:#02FFEE; fill-opacity:0.4000; stroke:none;">
<circle cx="218.4300" cy="71.1200" r="0.8500" /> 
</g>
<g style="fill:#02FFEE; fill-opacity:0.4000; stroke:none;">
<circle cx="218.4300" cy="73.6600" r="0.8500" /> 
</g>
<g style="fill:#02FFEE; fill-opacity:0.4000; stroke:none;">
<circle cx="218.4300" cy="76.2000" r="0.8500" /> 
</g>
<g style="fill:#02FFEE; fill-opacity:0.4000; stroke:none;">
<circle cx="218.4300" cy="78.7400" r="0.8500" /> 
</g>
<g style="fill:#02FFEE; fill-opacity:0.4000; stroke:none;">
<circle cx="218.4300" cy="81.2800" r="0.8500" /> 
</g>
<g style="fill:#02FFEE; fill-opacity:0.4000; stroke:none;">
<circle cx="218.4300" cy="83.8200" r="0.8500" /> 
</g>
<g style="fill:#02FFEE; fill-opacity:0.4000; stroke:none;">
<circle cx="218.4300" cy="86.3600" r="0.8500" /> 
</g>
<g style="fill:#02FFEE; fill-opacity:0.4000; stroke:none;">
<circle cx="218.4300" cy="88.9000" r="0.8500" /> 
<path style="fill:#02FFEE; fill-opacity:0.4000; stroke:none;fill-rule:evenodd;"
d="M 198.2650,53.2700
198.3607,53.2890
198.4418,53.3432
198.4960,53.4243
198.5150,53.5200
198.5150,54.2200
198.4960,54.3157
198.4418,54.3968
198.3607,54.4510
198.2650,54.4700
197.0150,54.4700
196.9193,54.4510
196.8382,54.3968
196.7840,54.3157
196.7650,54.2200
196.7650,53.5200
196.7840,53.4243
196.8382,53.3432
196.9193,53.2890
197.0150,53.2700
Z" /> 
</g>
<g style="fill:none; 
stroke:#02FFEE; stroke-width:1.2000; stroke-opacity:1; 
stroke-linecap:round; stroke-linejoin:round;">
<path d="M197.9150 55.8700
L197.3650 55.8700
" />
<path d="M197.9150 57.8700
L197.3650 57.8700
" />
<path style="fill:#02FFEE; fill-opacity:0.4000; stroke:none;fill-rule:evenodd;"
d="M 214.4150,56.2750
214.4150,55.7750
214.4193,55.7750
214.4193,55.7097
214.4531,55.5837
214.5183,55.4706
214.6106,55.3783
214.7237,55.3131
214.8497,55.2793
214.9150,55.2793
214.9150,55.2750
215.4150,55.2750
215.4150,55.2793
215.4803,55.2793
215.6063,55.3131
215.7194,55.3783
215.8117,55.4706
215.8769,55.5837
215.9107,55.7097
215.9107,55.7750
215.9150,55.7750
215.9150,56.2750
Z" /> 
<path style="fill:#02FFEE; fill-opacity:0.4000; stroke:none;fill-rule:evenodd;"
d="M 215.9107,57.0750
215.9107,57.1403
215.8769,57.2663
215.8117,57.3794
215.7194,57.4717
215.6063,57.5369
215.4803,57.5707
215.4150,57.5707
215.4150,57.5750
214.9150,57.5750
214.9150,57.5707
214.8497,57.5707
214.7237,57.5369
214.6106,57.4717
214.5183,57.3794
214.4531,57.2663
214.4193,57.1403
214.4193,57.0750
214.4150,57.0750
214.4150,56.5750
215.9150,56.5750
215.9150,57.0750
Z" /> 
<path style="fill:#02FFEE; fill-opacity:0.4000; stroke:none;fill-rule:evenodd;"
d="M 203.4620,55.0700
203.4620,54.5700
203.4663,54.5700
203.4663,54.5047
203.5001,54.3787
203.5653,54.2656
203.6576,54.1733
203.7707,54.1081
203.8967,54.0743
203.9620,54.0743
203.9620,54.0700
204.4620,54.0700
204.4620,54.0743
204.5273,54.0743
204.6533,54.1081
204.7664,54.1733
204.8587,54.2656
204.9239,54.3787
204.9577,54.5047
204.9577,54.5700
204.9620,54.5700
204.9620,55.0700
Z" /> 
<path style="fill:#02FFEE; fill-opacity:0.4000; stroke:none;fill-rule:evenodd;"
d="M 204.9577,55.8700
204.9577,55.9353
204.9239,56.0613
204.8587,56.1744
204.7664,56.2667
204.6533,56.3319
204.5273,56.3657
204.4620,56.3657
204.4620,56.3700
203.9620,56.3700
203.9620,56.3657
203.8967,56.3657
203.7707,56.3319
203.6576,56.2667
203.5653,56.1744
203.5001,56.0613
203.4663,55.9353
203.4663,55.8700
203.4620,55.8700
203.4620,55.3700
204.9620,55.3700
204.9620,55.8700
Z" /> 
<path style="fill:#02FFEE; fill-opacity:0.4000; stroke:none;fill-rule:evenodd;"
d="M 200.3950,82.9950
199.8450,82.9950
199.8450,82.9907
199.7797,82.9907
199.6537,82.9569
199.5406,82.8917
199.4483,82.7994
199.3831,82.6863
199.3493,82.5603
199.3493,82.4950
199.3450,82.4950
199.3450,81.9950
199.3493,81.9950
199.3493,81.9297
199.3831,81.8037
199.4483,81.6906
199.5406,81.5983
199.6537,81.5331
199.7797,81.4993
199.8450,81.4993
199.8450,81.4950
200.3950,81.4950
Z" /> 
<path style="fill:#02FFEE; fill-opacity:0.4000; stroke:none;fill-rule:evenodd;"
d="M 200.6450,82.9950
200.6450,81.4950
201.6450,81.4950
201.6450,82.9950
Z" /> 
<path style="fill:#02FFEE; fill-opacity:0.4000; stroke:none;fill-rule:evenodd;"
d="M 202.4450,81.4993
202.5103,81.4993
202.6363,81.5331
202.7494,81.5983
202.8417,81.6906
202.9069,81.8037
202.9407,81.9297
202.9407,81.9950
202.9450,81.9950
202.9450,82.4950
202.9407,82.4950
202.9407,82.5603
202.9069,82.6863
202.8417,82.7994
202.7494,82.8917
202.6363,82.9569
202.5103,82.9907
202.4450,82.9907
202.4450,82.9950
201.8950,82.9950
201.8950,81.4950
202.4450,81.4950
Z" /> 
<path style="fill:#02FFEE; fill-opacity:0.4000; stroke:none;fill-rule:evenodd;"
d="M 200.3920,86.2100
199.8420,86.2100
199.8420,86.2057
199.7767,86.2057
199.6507,86.1719
199.5376,86.1067
199.4453,86.0144
199.3801,85.9013
199.3463,85.7753
199.3463,85.7100
199.3420,85.7100
199.3420,85.2100
199.3463,85.2100
199.3463,85.1447
199.3801,85.0187
199.4453,84.9056
199.5376,84.8133
199.6507,84.7481
199.7767,84.7143
199.8420,84.7143
199.8420,84.7100
200.3920,84.7100
Z" /> 
<path style="fill:#02FFEE; fill-opacity:0.4000; stroke:none;fill-rule:evenodd;"
d="M 200.6420,86.2100
200.6420,84.7100
201.6420,84.7100
201.6420,86.2100
Z" /> 
<path style="fill:#02FFEE; fill-opacity:0.4000; stroke:none;fill-rule:evenodd;"
d="M 202.4420,84.7143
202.5073,84.7143
202.6333,84.7481
202.7464,84.8133
202.8387,84.9056
202.9039,85.0187
202.9377,85.1447
202.9377,85.2100
202.9420,85.2100
202.9420,85.7100
202.9377,85.7100
202.9377,85.7753
202.9039,85.9013
202.8387,86.0144
202.7464,86.1067
202.6333,86.1719
202.5073,86.2057
202.4420,86.2057
202.4420,86.2100
201.8920,86.2100
201.8920,84.7100
202.4420,84.7100
Z" /> 
</g> 
</svg>
