<?xml version="1.0" standalone="no"?>
 <!DOCTYPE svg PUBLIC "-//W3C//DTD SVG 1.1//EN" 
 "http://www.w3.org/Graphics/SVG/1.1/DTD/svg11.dtd"> 
<svg
  xmlns:svg="http://www.w3.org/2000/svg"
  xmlns="http://www.w3.org/2000/svg"
  xmlns:xlink="http://www.w3.org/1999/xlink"
  version="1.1"
  width="297.0022mm" height="210.0072mm" viewBox="0.0000 0.0000 297.0022 210.0072">
<title>SVG Image created as mixpower-path-mini-axp2585-board-r1-F_Silkscreen.svg date 2026/02/28 21:21:55 </title>
  <desc>Image generated by PCBNEW </desc>
<g style="fill:#000000; fill-opacity:1.0000;stroke:#000000; stroke-opacity:1.0000;
stroke-linecap:round; stroke-linejoin:round;"
 transform="translate(0 0) scale(1 1)">
</g>
<g style="fill:none; 
stroke:#F2EDA1; stroke-width:0.1200; stroke-opacity:1; 
stroke-linecap:round; stroke-linejoin:round;">
<path d="M213.1136 59.2880
L212.8064 59.2880
" />
<path d="M213.1136 60.0480
L212.8064 60.0480
" />
<path d="M205.2321 73.2976
L204.9509 73.2976
" />
<path d="M205.2321 74.3176
L204.9509 74.3176
" />
<path d="M199.3900 94.6100
L199.7900 94.6100
" />
<path d="M199.3900 95.6100
L199.7900 95.6100
" />
<path d="M201.6500 93.6000
L201.6500 93.2000
" />
<path d="M201.7500 93.2000
L201.7500 93.6000
" />
<path d="M201.8500 93.2000
L201.8500 93.6000
" />
<path d="M201.8500 93.6000
L201.6500 93.6000
" />
<path d="M203.1500 93.6000
L203.1500 93.2000
" />
<path d="M203.2500 93.2000
L203.2500 93.6000
" />
<path d="M203.3500 93.2000
L203.3500 93.6000
" />
<path d="M203.3500 93.6000
L203.1500 93.6000
" />
<path d="M204.6500 93.6000
L204.6500 93.2000
" />
<path d="M204.7500 93.2000
L204.7500 93.6000
" />
<path d="M204.8500 93.2000
L204.8500 93.6000
" />
<path d="M204.8500 93.6000
L204.6500 93.6000
" />
<path d="M206.1500 93.6000
L206.1500 93.2000
" />
<path d="M206.2500 93.2000
L206.2500 93.6000
" />
<path d="M206.3500 93.2000
L206.3500 93.6000
" />
<path d="M206.3500 93.6000
L206.1500 93.6000
" />
<path d="M207.6500 93.6000
L207.6500 93.2000
" />
<path d="M207.7500 93.2000
L207.7500 93.6000
" />
<path d="M207.8500 93.2000
L207.8500 93.6000
" />
<path d="M207.8500 93.6000
L207.6500 93.6000
" />
<path d="M209.1500 93.6000
L209.1500 93.2000
" />
<path d="M209.2500 93.2000
L209.2500 93.6000
" />
<path d="M209.3500 93.2000
L209.3500 93.6000
" />
<path d="M209.3500 93.6000
L209.1500 93.6000
" />
<path d="M210.6500 93.6000
L210.6500 93.2000
" />
<path d="M210.7500 93.2000
L210.7500 93.6000
" />
<path d="M210.8500 93.2000
L210.8500 93.6000
" />
<path d="M210.8500 93.6000
L210.6500 93.6000
" />
<path d="M212.1500 93.6000
L212.1500 93.2000
" />
<path d="M212.2500 93.2000
L212.2500 93.6000
" />
<path d="M212.3500 93.2000
L212.3500 93.6000
" />
<path d="M212.3500 93.6000
L212.1500 93.6000
" />
<path d="M213.3000 96.5200
L213.3000 96.7200
" />
<path d="M213.3000 96.6200
L213.6000 96.6200
" />
<path d="M213.3000 96.7200
L213.6000 96.7200
" />
<path d="M213.6000 96.7200
L213.6000 96.5200
" />
<path d="M214.0100 96.7200
L214.8100 96.7200
" />
<path d="M214.6100 94.6100
L214.2100 94.6100
" />
<path d="M214.6100 95.6100
L214.2100 95.6100
" />
<path d="M214.8100 96.7200
L214.8100 95.9200
" />
<path style="fill:none; 
stroke:#F2EDA1; stroke-width:0.1200; stroke-opacity:1; 
stroke-linecap:round; stroke-linejoin:round;fill:none"
d="M 214.2100,96.1200
199.7900,96.1200
199.7900,93.2000
214.2100,93.2000
Z" /> 
<path style="fill:none; 
stroke:#F2EDA1; stroke-width:0.1200; stroke-opacity:1; 
stroke-linecap:round; stroke-linejoin:round;fill:none"
d="M 214.6100,96.5200
199.3900,96.5200
199.3900,92.8000
214.6100,92.8000
Z" /> 
<path d="M199.8000 70.4500
L201.2700 70.4500
" />
<path d="M199.8000 71.1000
L199.8000 70.4500
" />
<path d="M199.8000 72.7700
L199.8000 72.1200
" />
<path d="M201.1843 72.7700
L199.8000 72.7700
" />
<path d="M201.2700 71.4700
L201.2700 71.7500
" />
<path style="fill:#F2EDA1; fill-opacity:1.0000; 
stroke:#F2EDA1; stroke-width:0.1200; stroke-opacity:1; 
stroke-linecap:round; stroke-linejoin:round;fill-rule:evenodd;"
d="M 201.6150,72.9700
201.3350,72.9700
201.4750,72.7800
Z" /> 
</g>
<g style="fill:none; 
stroke:#F2EDA1; stroke-width:0.1200; stroke-opacity:1; 
stroke-linecap:round; stroke-linejoin:round;">
<path d="M198.7040 48.9244
L198.7040 49.2316
" />
<path d="M199.4640 48.9244
L199.4640 49.2316
" />
<path d="M218.1914 49.9150
L218.4986 49.9150
" />
<path d="M218.1914 50.6750
L218.4986 50.6750
" />
<path d="M202.1686 76.6650
L201.8614 76.6650
" />
<path d="M202.1686 77.4250
L201.8614 77.4250
" />
</g>
<g style="fill:none; 
stroke:#F2EDA1; stroke-width:0.1000; stroke-opacity:1; 
stroke-linecap:round; stroke-linejoin:round;">
<path d="M196.5550 65.0400
L196.5550 67.2800
" />
<path d="M196.5550 67.2800
L196.6750 67.2800
" />
<path d="M196.6650 65.0400
L196.5550 65.0400
" />
<path d="M198.6650 65.0400
L198.8050 65.0400
" />
<path d="M198.6650 67.2900
L198.8050 67.2900
" />
<path d="M198.8050 65.0400
L198.8050 65.4400
" />
<path d="M198.8050 66.8800
L198.8050 67.2900
" />
<circle cx="197.0250" cy="67.5300" r="0.0500" /> 
</g>
<g style="fill:none; 
stroke:#F2EDA1; stroke-width:0.1200; stroke-opacity:1; 
stroke-linecap:round; stroke-linejoin:round;">
<path d="M197.9750 78.9214
L197.9750 79.2286
" />
<path d="M198.7350 78.9214
L198.7350 79.2286
" />
</g>
<g style="fill:none; 
stroke:#F2EDA1; stroke-width:0.1270; stroke-opacity:1; 
stroke-linecap:round; stroke-linejoin:round;">
<path d="M214.0950 47.9900
L214.0950 49.4900
" />
<path d="M214.0950 49.4900
L214.5950 49.4900
" />
<path d="M218.5950 49.4900
L219.0950 49.4900
" />
<path d="M219.0950 49.4900
L219.0950 47.9900
" />
</g>
<g style="fill:none; 
stroke:#F2EDA1; stroke-width:0.1200; stroke-opacity:1; 
stroke-linecap:round; stroke-linejoin:round;">
<path d="M209.4471 65.0679
L209.1399 65.0679
" />
<path d="M209.4471 65.8279
L209.1399 65.8279
" />
<path d="M199.7690 46.9280
L199.7690 49.2130
" />
<path d="M199.7690 49.2130
L201.2390 49.2130
" />
<path d="M201.2390 49.2130
L201.2390 46.9280
" />
<path d="M199.7060 49.3580
L201.1760 49.3580
" />
<path d="M199.7060 50.0080
L199.7060 49.3580
" />
<path d="M199.7060 51.6780
L199.7060 51.0280
" />
<path d="M201.0903 51.6780
L199.7060 51.6780
" />
<path d="M201.1760 50.3780
L201.1760 50.6580
" />
<path style="fill:#F2EDA1; fill-opacity:1.0000; 
stroke:#F2EDA1; stroke-width:0.1200; stroke-opacity:1; 
stroke-linecap:round; stroke-linejoin:round;fill-rule:evenodd;"
d="M 201.5210,51.8780
201.2410,51.8780
201.3810,51.6880
Z" /> 
</g>
<g style="fill:none; 
stroke:#F2EDA1; stroke-width:0.1200; stroke-opacity:1; 
stroke-linecap:round; stroke-linejoin:round;">
<path d="M217.4600 63.4756
L217.4600 63.1684
" />
<path d="M218.2200 63.4756
L218.2200 63.1684
" />
<path d="M212.8898 53.8700
L212.6742 53.8700
" />
<path d="M212.8898 54.5900
L212.6742 54.5900
" />
<path d="M198.0850 68.5286
L198.0850 68.2214
" />
<path d="M198.8450 68.5286
L198.8450 68.2214
" />
<path d="M211.5800 84.0574
L211.5800 84.3386
" />
<path d="M212.6000 84.0574
L212.6000 84.3386
" />
<path d="M203.1687 91.2350
L203.1687 88.5750
" />
<path d="M203.1687 91.2350
L204.8687 91.2350
" />
<path d="M204.8687 91.2350
L204.8687 88.5750
" />
<path d="M195.4950 63.8557
L195.4950 64.0714
" />
<path d="M196.2150 63.8557
L196.2150 64.0714
" />
<path d="M196.4350 63.8557
L196.4350 64.0714
" />
<path d="M197.1550 63.8557
L197.1550 64.0714
" />
<path d="M194.2000 69.7400
L195.5800 69.7400
" />
<path d="M194.2000 71.1200
L194.2000 69.7400
" />
<path d="M194.2000 72.3900
L194.2000 90.2800
" />
<path d="M194.2000 72.3900
L196.9600 72.3900
" />
<path d="M194.2000 90.2800
L196.9600 90.2800
" />
<path d="M196.9600 72.3900
L196.9600 90.2800
" />
</g>
<g style="fill:none; 
stroke:#F2EDA1; stroke-width:0.2000; stroke-opacity:1; 
stroke-linecap:round; stroke-linejoin:round;">
<path d="M207.4050 81.8030
L207.4050 83.8030
" />
<path d="M210.7050 81.8030
L210.7050 83.8030
" />
</g>
<g style="fill:#F2EDA1; fill-opacity:1.0000; stroke:none;">
<circle cx="210.4550" cy="81.4030" r="0.1500" /> 
<path style="fill:#F2EDA1; fill-opacity:1.0000; stroke:none;fill-rule:evenodd;"
d="M 210.9050,82.1973
210.6550,82.1973
210.6550,81.7973
210.9050,81.7973
Z" /> 
</g>
<g style="fill:none; 
stroke:#F2EDA1; stroke-width:0.1200; stroke-opacity:1; 
stroke-linecap:round; stroke-linejoin:round;">
<path d="M201.2270 46.9280
L201.2270 49.2130
" />
<path d="M201.2270 49.2130
L202.6970 49.2130
" />
<path d="M202.6970 49.2130
L202.6970 46.9280
" />
<path d="M201.9600 60.8838
L201.9600 60.6682
" />
<path d="M202.6800 60.8838
L202.6800 60.6682
" />
<path d="M203.5800 46.2700
L203.5800 44.3700
" />
<path d="M203.5800 50.1700
L203.5800 48.1700
" />
<path d="M212.9800 44.3700
L203.5800 44.3700
" />
<path d="M212.9800 46.2700
L212.9800 44.3700
" />
<path d="M212.9800 50.1700
L212.9800 48.1700
" />
<path d="M218.4850 51.0650
L217.0850 51.0650
" />
<path d="M218.4950 53.3850
L217.0850 53.3850
" />
<path style="fill:#F2EDA1; fill-opacity:1.0000; 
stroke:#F2EDA1; stroke-width:0.1200; stroke-opacity:1; 
stroke-linecap:round; stroke-linejoin:round;fill-rule:evenodd;"
d="M 219.1350,53.4750
218.7850,53.4750
218.9650,53.2750
Z" /> 
</g>
<g style="fill:none; 
stroke:#F2EDA1; stroke-width:0.1200; stroke-opacity:1; 
stroke-linecap:round; stroke-linejoin:round;">
<path d="M200.2720 60.6855
L198.8245 60.6855
" />
<path d="M200.2720 63.3955
L198.8245 63.3955
" />
<path d="M204.2055 66.1806
L204.5555 66.1806
" />
<path d="M204.2055 66.5306
L204.2055 66.1806
" />
<path d="M204.2055 70.7006
L204.2055 70.3506
" />
<path d="M204.5555 70.7006
L204.2055 70.7006
" />
<path d="M208.3755 66.1806
L208.7255 66.1806
" />
<path d="M208.7255 66.1806
L208.7255 66.5306
" />
<path d="M208.7255 70.3506
L208.7255 70.7006
" />
<path d="M208.7255 70.7006
L208.3755 70.7006
" />
<path style="fill:#F2EDA1; fill-opacity:1.0000; 
stroke:#F2EDA1; stroke-width:0.1200; stroke-opacity:1; 
stroke-linecap:round; stroke-linejoin:round;fill-rule:evenodd;"
d="M 203.7055,67.0406
203.3755,67.2806
203.3755,66.8006
Z" /> 
</g>
<g style="fill:none; 
stroke:#F2EDA1; stroke-width:0.1200; stroke-opacity:1; 
stroke-linecap:round; stroke-linejoin:round;">
<path d="M212.9925 68.8965
L212.9925 68.6808
" />
<path d="M213.7125 68.8965
L213.7125 68.6808
" />
<path d="M195.4560 66.3000
L195.4560 64.9400
" />
<path d="M196.2560 64.9400
L195.4560 64.9400
" />
<path d="M196.2560 66.3000
L196.2560 64.9400
" />
<path d="M199.7939 91.5450
L200.0096 91.5450
" />
<path d="M199.7939 92.2650
L200.0096 92.2650
" />
<path d="M199.9750 77.6850
L201.7950 77.6850
" />
<path d="M199.9750 77.7350
L199.9750 77.6850
" />
<path d="M199.9750 80.8050
L199.9750 80.7550
" />
<path d="M201.7950 77.6850
L201.7950 77.7350
" />
<path d="M201.7950 80.7550
L201.7950 80.8050
" />
<path d="M201.7950 80.8050
L199.9750 80.8050
" />
<path style="fill:#F2EDA1; fill-opacity:1.0000; 
stroke:#F2EDA1; stroke-width:0.1200; stroke-opacity:1; 
stroke-linecap:round; stroke-linejoin:round;fill-rule:evenodd;"
d="M 202.5750,81.0850
202.0950,81.0850
202.3350,80.7550
Z" /> 
</g>
<g style="fill:none; 
stroke:#F2EDA1; stroke-width:0.1200; stroke-opacity:1; 
stroke-linecap:round; stroke-linejoin:round;">
<path d="M199.5550 54.3500
L199.5550 55.7100
" />
<path d="M199.5550 55.7100
L200.3550 55.7100
" />
<path d="M200.3550 54.3500
L200.3550 55.7100
" />
<path d="M207.5280 53.9900
L208.9380 53.9900
" />
<path d="M207.5380 56.3100
L208.9380 56.3100
" />
<path style="fill:#F2EDA1; fill-opacity:1.0000; 
stroke:#F2EDA1; stroke-width:0.1200; stroke-opacity:1; 
stroke-linecap:round; stroke-linejoin:round;fill-rule:evenodd;"
d="M 207.0580,54.1000
206.8880,53.9000
207.2380,53.9000
Z" /> 
</g>
<g style="fill:none; 
stroke:#F2EDA1; stroke-width:0.1200; stroke-opacity:1; 
stroke-linecap:round; stroke-linejoin:round;">
<path d="M202.1023 65.9006
L201.8867 65.9006
" />
<path d="M202.1023 66.6206
L201.8867 66.6206
" />
</g>
<g style="fill:none; 
stroke:#F2EDA1; stroke-width:0.1000; stroke-opacity:1; 
stroke-linecap:round; stroke-linejoin:round;">
<path d="M205.1387 89.5550
L205.1387 89.1450
" />
<path d="M205.1387 91.3950
L205.1387 90.9950
" />
<path d="M205.2788 89.1450
L205.1387 89.1450
" />
<path d="M205.2788 91.3950
L205.1387 91.3950
" />
<path d="M207.2788 91.3950
L207.3887 91.3950
" />
<path d="M207.3887 89.1550
L207.2687 89.1550
" />
<path d="M207.3887 91.3950
L207.3887 89.1550
" />
<circle cx="206.9187" cy="88.9050" r="0.0500" /> 
</g>
<g style="fill:none; 
stroke:#F2EDA1; stroke-width:0.1200; stroke-opacity:1; 
stroke-linecap:round; stroke-linejoin:round;">
<path d="M205.5820 84.3794
L205.5820 84.6606
" />
<path d="M206.6020 84.3794
L206.6020 84.6606
" />
<path d="M205.0575 64.4120
L205.0575 64.7193
" />
<path d="M205.8175 64.4120
L205.8175 64.7193
" />
<path d="M202.3272 64.5181
L202.8017 64.5181
" />
<path d="M202.3272 65.5631
L202.8017 65.5631
" />
<path d="M216.3772 49.9250
L216.5928 49.9250
" />
<path d="M216.3772 50.6450
L216.5928 50.6450
" />
<path d="M208.8114 80.2850
L209.1186 80.2850
" />
<path d="M208.8114 81.0450
L209.1186 81.0450
" />
<path d="M206.9480 84.5610
L211.2560 84.5610
" />
<path d="M211.2560 88.8690
L206.9480 88.8690
" />
<path d="M218.4200 63.4456
L218.4200 63.1384
" />
<path d="M219.1800 63.4456
L219.1800 63.1384
" />
<path d="M218.4150 54.7814
L218.4150 55.0886
" />
<path d="M219.1750 54.7814
L219.1750 55.0886
" />
<path d="M196.1700 68.5316
L196.1700 68.2244
" />
<path d="M196.9300 68.5316
L196.9300 68.2244
" />
<path d="M202.1586 66.8350
L201.8514 66.8350
" />
<path d="M202.1586 67.5950
L201.8514 67.5950
" />
<path d="M217.0500 64.6600
L218.4300 64.6600
" />
<path d="M217.0500 66.0400
L217.0500 64.6600
" />
<path d="M217.0500 67.3100
L217.0500 90.2800
" />
<path d="M217.0500 67.3100
L219.8100 67.3100
" />
<path d="M217.0500 90.2800
L219.8100 90.2800
" />
<path d="M219.8100 67.3100
L219.8100 90.2800
" />
<path d="M213.7200 51.8300
L214.3700 51.8300
" />
<path d="M213.7200 53.2143
L213.7200 51.8300
" />
<path d="M215.0200 53.3000
L214.7400 53.3000
" />
<path d="M215.3900 51.8300
L216.0400 51.8300
" />
<path d="M216.0400 51.8300
L216.0400 53.3000
" />
<path style="fill:#F2EDA1; fill-opacity:1.0000; 
stroke:#F2EDA1; stroke-width:0.1200; stroke-opacity:1; 
stroke-linecap:round; stroke-linejoin:round;fill-rule:evenodd;"
d="M 213.7100,53.5050
213.5200,53.6450
213.5200,53.3650
Z" /> 
</g>
<g style="fill:none; 
stroke:#F2EDA1; stroke-width:0.1200; stroke-opacity:1; 
stroke-linecap:round; stroke-linejoin:round;">
<path d="M201.1744 51.8800
L201.4816 51.8800
" />
<path d="M201.1744 52.6400
L201.4816 52.6400
" />
<path d="M199.8528 76.7050
L199.6372 76.7050
" />
<path d="M199.8528 77.4250
L199.6372 77.4250
" />
<path d="M205.2331 74.7956
L204.9519 74.7956
" />
<path d="M205.2331 75.8156
L204.9519 75.8156
" />
<path d="M216.9600 61.3044
L216.9600 61.6116
" />
<path d="M217.7200 61.3044
L217.7200 61.6116
" />
</g>
<g style="fill:none; 
stroke:#F2EDA1; stroke-width:0.1000; stroke-opacity:1; 
stroke-linecap:round; stroke-linejoin:round;">
<path d="M200.6150 55.9400
L200.6150 56.0800
" />
<path d="M200.6250 53.8300
L200.6250 53.9500
" />
<path d="M201.0250 56.0800
L200.6150 56.0800
" />
<path d="M202.8650 53.8300
L200.6250 53.8300
" />
<path d="M202.8650 53.9400
L202.8650 53.8300
" />
<path d="M202.8650 55.9400
L202.8650 56.0800
" />
<path d="M202.8650 56.0800
L202.4650 56.0800
" />
<circle cx="200.3750" cy="54.3000" r="0.0500" /> 
</g>
<g style="fill:none; 
stroke:#F2EDA1; stroke-width:0.1200; stroke-opacity:1; 
stroke-linecap:round; stroke-linejoin:round;">
<path d="M211.2319 68.4586
L211.5131 68.4586
" />
<path d="M211.2319 69.4786
L211.5131 69.4786
" />
<path d="M216.5200 63.4756
L216.5200 63.1684
" />
<path d="M217.2800 63.4756
L217.2800 63.1684
" />
<path d="M214.0100 59.0484
L214.0100 59.3556
" />
<path d="M214.7700 59.0484
L214.7700 59.3556
" />
<path d="M202.6036 91.5350
L202.3879 91.5350
" />
<path d="M202.6036 92.2550
L202.3879 92.2550
" />
<path d="M206.0524 88.1500
L205.7451 88.1500
" />
<path d="M206.0524 88.9100
L205.7451 88.9100
" />
<path d="M201.9600 57.9202
L201.9600 58.1358
" />
<path d="M202.6800 57.9202
L202.6800 58.1358
" />
<path d="M199.6000 56.7386
L199.6000 56.4314
" />
<path d="M200.3600 56.7386
L200.3600 56.4314
" />
<path d="M200.1157 87.9700
L201.9357 87.9700
" />
<path d="M200.1157 88.0200
L200.1157 87.9700
" />
<path d="M200.1157 89.9200
L200.1157 89.1400
" />
<path d="M200.1157 91.0900
L200.1157 91.0400
" />
<path d="M201.9357 87.9700
L201.9357 88.0200
" />
<path d="M201.9357 91.0400
L201.9357 91.0900
" />
<path d="M201.9357 91.0900
L200.1157 91.0900
" />
<path style="fill:#F2EDA1; fill-opacity:1.0000; 
stroke:#F2EDA1; stroke-width:0.1200; stroke-opacity:1; 
stroke-linecap:round; stroke-linejoin:round;fill-rule:evenodd;"
d="M 202.7157,91.3700
202.2357,91.3700
202.4758,91.0400
Z" /> 
</g>
<g style="fill:none; 
stroke:#F2EDA1; stroke-width:0.1200; stroke-opacity:1; 
stroke-linecap:round; stroke-linejoin:round;">
<path d="M208.9041 56.7900
L207.6999 56.7900
" />
<path d="M208.9041 59.5100
L207.6999 59.5100
" />
</g>
<g style="fill:none; 
stroke:#F2EDA1; stroke-width:0.1270; stroke-opacity:1; 
stroke-linecap:round; stroke-linejoin:round;">
<path d="M211.3730 58.4400
L211.3730 57.2400
" />
<path d="M213.8330 58.4400
L213.8330 57.2400
" />
</g>
<g style="fill:none; 
stroke:#F2EDA1; stroke-width:0.2000; stroke-opacity:1; 
stroke-linecap:round; stroke-linejoin:round;">
<circle cx="211.8530" cy="59.4400" r="0.1000" /> 
</g>
<g style="fill:none; 
stroke:#F2EDA1; stroke-width:0.1200; stroke-opacity:1; 
stroke-linecap:round; stroke-linejoin:round;">
<path d="M197.1400 68.2702
L197.1400 68.4858
" />
<path d="M197.8600 68.2702
L197.8600 68.4858
" />
<path d="M206.2200 81.9544
L206.2200 82.2616
" />
<path d="M206.9800 81.9544
L206.9800 82.2616
" />
<path d="M214.7886 49.8950
L214.4814 49.8950
" />
<path d="M214.7886 50.6550
L214.4814 50.6550
" />
<path d="M206.9615 71.3806
L211.4815 71.3806
" />
<path d="M206.9615 75.9006
L206.9615 71.3806
" />
<path d="M211.4815 71.3806
L211.4815 75.9006
" />
<path d="M211.4815 75.9006
L206.9615 75.9006
" />
<path d="M198.7060 47.3536
L198.7060 47.0464
" />
<path d="M199.4660 47.3536
L199.4660 47.0464
" />
<path d="M211.8447 67.4126
L212.0603 67.4126
" />
<path d="M211.8447 68.1326
L212.0603 68.1326
" />
<path d="M198.0050 80.8472
L198.0050 81.0628
" />
<path d="M198.7250 80.8472
L198.7250 81.0628
" />
<path d="M207.2156 80.2900
L206.9084 80.2900
" />
<path d="M207.2156 81.0500
L206.9084 81.0500
" />
<path d="M203.0200 58.7999
L203.0200 60.0041
" />
<path d="M205.7400 58.7999
L205.7400 60.0041
" />
<path d="M201.0028 59.6235
L200.7872 59.6235
" />
<path d="M201.0028 60.3435
L200.7872 60.3435
" />
<path d="M212.9356 54.7900
L212.6284 54.7900
" />
<path d="M212.9356 55.5500
L212.6284 55.5500
" />
<path d="M191.2800 51.8100
L191.2800 59.9300
" />
<path d="M191.2800 54.3700
L195.6400 54.3700
" />
<path d="M191.2800 59.9300
L199.1000 59.9300
" />
<path d="M193.5400 53.0700
L191.2800 53.0700
" />
<path d="M193.5400 53.5700
L191.2800 53.5700
" />
<path d="M195.6400 54.3700
L195.6400 57.3700
" />
<path d="M195.6400 57.3700
L191.2800 57.3700
" />
<path d="M197.5000 51.8100
L197.5000 52.7300
" />
<path d="M197.5000 52.7300
L199.1000 52.7300
" />
<path d="M197.5000 53.0100
L197.5000 52.7300
" />
<path d="M197.5000 53.0100
L198.7150 53.0100
" />
<path d="M197.5000 59.0100
L197.5000 58.7300
" />
<path d="M197.5000 59.9300
L197.5000 59.0100
" />
<path d="M199.1000 51.8100
L191.2800 51.8100
" />
<path d="M199.1000 52.7300
L199.1000 51.8100
" />
<path d="M199.1000 59.0100
L197.5000 59.0100
" />
<path d="M199.1000 59.9300
L199.1000 59.0100
" />
<path style="fill:none; 
stroke:#F2EDA1; stroke-width:0.1200; stroke-opacity:1; 
stroke-linecap:round; stroke-linejoin:round;fill:none"
d="M 195.1400,52.5700
193.5400,52.5700
193.5400,53.5700
195.1400,53.5700
Z" /> 
<path style="fill:none; 
stroke:#F2EDA1; stroke-width:0.1200; stroke-opacity:1; 
stroke-linecap:round; stroke-linejoin:round;fill:none"
d="M 195.1400,58.1700
193.5400,58.1700
193.5400,59.1700
195.1400,59.1700
Z" /> 
<path d="M204.1461 72.0557
L204.1461 72.2713
" />
<path d="M204.8661 72.0557
L204.8661 72.2713
" />
</g> 
</svg>
