<?xml version="1.0" standalone="no"?>
 <!DOCTYPE svg PUBLIC "-//W3C//DTD SVG 1.1//EN" 
 "http://www.w3.org/Graphics/SVG/1.1/DTD/svg11.dtd"> 
<svg
  xmlns:svg="http://www.w3.org/2000/svg"
  xmlns="http://www.w3.org/2000/svg"
  xmlns:xlink="http://www.w3.org/1999/xlink"
  version="1.1"
  width="297.0022mm" height="210.0072mm" viewBox="0.0000 0.0000 297.0022 210.0072">
<title>SVG Image created as mixpower-path-mini-axp2585-board-r1-F_Paste.svg date 2026/02/23 13:21:07 </title>
  <desc>Image generated by PCBNEW </desc>
<g style="fill:#000000; fill-opacity:1.0000;stroke:#000000; stroke-opacity:1.0000;
stroke-linecap:round; stroke-linejoin:round;"
 transform="translate(0 0) scale(1 1)">
<path style="fill:#B4A09A; fill-opacity:0.9000; 
stroke:#B4A09A; stroke-width:0.0010; stroke-opacity:1; 
stroke-linecap:round; stroke-linejoin:round;fill-rule:evenodd;"
d="M 214.9950,46.8400
214.5950,46.8400
214.5950,47.4900
213.9450,47.4900
213.9450,46.1900
214.9950,46.1900
Z" /> 
<path style="fill:#B4A09A; fill-opacity:0.9000; 
stroke:#B4A09A; stroke-width:0.0010; stroke-opacity:1; 
stroke-linecap:round; stroke-linejoin:round;fill-rule:evenodd;"
d="M 219.2450,47.4900
218.5950,47.4900
218.5950,46.8400
218.1950,46.8400
218.1950,46.1900
219.2450,46.1900
Z" /> 
<path style="fill:#B4A09A; fill-opacity:0.9000; stroke:none;fill-rule:evenodd;"
d="M 209.1800,82.7530
209.1800,83.2030
209.1300,83.2530
208.9800,83.2530
208.9300,83.2030
208.9300,82.7530
208.9800,82.7030
209.1300,82.7030
Z" /> 
<path style="fill:#B4A09A; fill-opacity:0.9000; stroke:none;fill-rule:evenodd;"
d="M 209.1800,83.5030
209.1800,83.9530
209.1300,84.0030
208.9800,84.0030
208.9300,83.9530
208.9300,83.5030
208.9800,83.4530
209.1300,83.4530
Z" /> 
<path style="fill:#B4A09A; fill-opacity:0.9000; stroke:none;fill-rule:evenodd;"
d="M 213.7400,59.8530
213.7297,59.9047
213.7005,59.9485
213.6567,59.9777
213.6050,59.9880
213.3350,59.9880
213.2833,59.9777
213.2395,59.9485
213.2103,59.9047
213.2000,59.8530
213.2000,59.4830
213.2103,59.4313
213.2395,59.3875
213.2833,59.3583
213.3350,59.3480
213.6050,59.3480
213.6567,59.3583
213.7005,59.3875
213.7297,59.4313
213.7400,59.4830
Z" /> 
<path style="fill:#B4A09A; fill-opacity:0.9000; stroke:none;fill-rule:evenodd;"
d="M 212.7200,59.8530
212.7097,59.9047
212.6805,59.9485
212.6367,59.9777
212.5850,59.9880
212.3150,59.9880
212.2633,59.9777
212.2195,59.9485
212.1903,59.9047
212.1800,59.8530
212.1800,59.4830
212.1903,59.4313
212.2195,59.3875
212.2633,59.3583
212.3150,59.3480
212.5850,59.3480
212.6367,59.3583
212.6805,59.3875
212.7097,59.4313
212.7200,59.4830
Z" /> 
<path style="fill:#B4A09A; fill-opacity:0.9000; stroke:none;fill-rule:evenodd;"
d="M 206.3165,74.0576
206.2994,74.1437
206.2506,74.2167
206.1776,74.2655
206.0915,74.2826
205.6415,74.2826
205.5554,74.2655
205.4824,74.2167
205.4336,74.1437
205.4165,74.0576
205.4165,73.5576
205.4336,73.4715
205.4824,73.3985
205.5554,73.3497
205.6415,73.3326
206.0915,73.3326
206.1776,73.3497
206.2506,73.3985
206.2994,73.4715
206.3165,73.5576
Z" /> 
<path style="fill:#B4A09A; fill-opacity:0.9000; stroke:none;fill-rule:evenodd;"
d="M 204.7665,74.0576
204.7494,74.1437
204.7006,74.2167
204.6276,74.2655
204.5415,74.2826
204.0915,74.2826
204.0054,74.2655
203.9324,74.2167
203.8836,74.1437
203.8665,74.0576
203.8665,73.5576
203.8836,73.4715
203.9324,73.3985
204.0054,73.3497
204.0915,73.3326
204.5415,73.3326
204.6276,73.3497
204.7006,73.3985
204.7494,73.4715
204.7665,73.5576
Z" /> 
<path style="fill:#B4A09A; fill-opacity:0.9000; stroke:none;fill-rule:evenodd;"
d="M 202.0850,72.3850
202.0755,72.4328
202.0484,72.4734
202.0078,72.5005
201.9600,72.5100
200.9850,72.5100
200.9372,72.5005
200.8966,72.4734
200.8695,72.4328
200.8600,72.3850
200.8600,72.1350
200.8695,72.0872
200.8966,72.0466
200.9372,72.0195
200.9850,72.0100
201.9600,72.0100
202.0078,72.0195
202.0484,72.0466
202.0755,72.0872
202.0850,72.1350
Z" /> 
<path style="fill:#B4A09A; fill-opacity:0.9000; stroke:none;fill-rule:evenodd;"
d="M 202.0850,71.0850
202.0755,71.1328
202.0484,71.1734
202.0078,71.2005
201.9600,71.2100
200.9850,71.2100
200.9372,71.2005
200.8966,71.1734
200.8695,71.1328
200.8600,71.0850
200.8600,70.8350
200.8695,70.7872
200.8966,70.7466
200.9372,70.7195
200.9850,70.7100
201.9600,70.7100
202.0078,70.7195
202.0484,70.7466
202.0755,70.7872
202.0850,70.8350
Z" /> 
<path style="fill:#B4A09A; fill-opacity:0.9000; stroke:none;fill-rule:evenodd;"
d="M 200.2100,71.7350
200.2005,71.7828
200.1734,71.8234
200.1328,71.8505
200.0850,71.8600
199.1100,71.8600
199.0622,71.8505
199.0216,71.8234
198.9945,71.7828
198.9850,71.7350
198.9850,71.4850
198.9945,71.4372
199.0216,71.3966
199.0622,71.3695
199.1100,71.3600
200.0850,71.3600
200.1328,71.3695
200.1734,71.3966
200.2005,71.4372
200.2100,71.4850
Z" /> 
<path style="fill:#B4A09A; fill-opacity:0.9000; stroke:none;fill-rule:evenodd;"
d="M 199.2690,48.2980
199.3207,48.3083
199.3645,48.3375
199.3937,48.3813
199.4040,48.4330
199.4040,48.7030
199.3937,48.7547
199.3645,48.7985
199.3207,48.8277
199.2690,48.8380
198.8990,48.8380
198.8473,48.8277
198.8035,48.7985
198.7743,48.7547
198.7640,48.7030
198.7640,48.4330
198.7743,48.3813
198.8035,48.3375
198.8473,48.3083
198.8990,48.2980
Z" /> 
<path style="fill:#B4A09A; fill-opacity:0.9000; stroke:none;fill-rule:evenodd;"
d="M 199.2690,49.3180
199.3207,49.3283
199.3645,49.3575
199.3937,49.4013
199.4040,49.4530
199.4040,49.7230
199.3937,49.7747
199.3645,49.8185
199.3207,49.8477
199.2690,49.8580
198.8990,49.8580
198.8473,49.8477
198.8035,49.8185
198.7743,49.7747
198.7640,49.7230
198.7640,49.4530
198.7743,49.4013
198.8035,49.3575
198.8473,49.3283
198.8990,49.3180
Z" /> 
<path style="fill:#B4A09A; fill-opacity:0.9000; stroke:none;fill-rule:evenodd;"
d="M 217.5650,50.1100
217.5753,50.0583
217.6045,50.0145
217.6483,49.9853
217.7000,49.9750
217.9700,49.9750
218.0217,49.9853
218.0655,50.0145
218.0947,50.0583
218.1050,50.1100
218.1050,50.4800
218.0947,50.5317
218.0655,50.5755
218.0217,50.6047
217.9700,50.6150
217.7000,50.6150
217.6483,50.6047
217.6045,50.5755
217.5753,50.5317
217.5650,50.4800
Z" /> 
<path style="fill:#B4A09A; fill-opacity:0.9000; stroke:none;fill-rule:evenodd;"
d="M 218.5850,50.1100
218.5953,50.0583
218.6245,50.0145
218.6683,49.9853
218.7200,49.9750
218.9900,49.9750
219.0417,49.9853
219.0855,50.0145
219.1147,50.0583
219.1250,50.1100
219.1250,50.4800
219.1147,50.5317
219.0855,50.5755
219.0417,50.6047
218.9900,50.6150
218.7200,50.6150
218.6683,50.6047
218.6245,50.5755
218.5953,50.5317
218.5850,50.4800
Z" /> 
<path style="fill:#B4A09A; fill-opacity:0.9000; stroke:none;fill-rule:evenodd;"
d="M 202.7950,77.2300
202.7847,77.2817
202.7555,77.3255
202.7117,77.3547
202.6600,77.3650
202.3900,77.3650
202.3383,77.3547
202.2945,77.3255
202.2653,77.2817
202.2550,77.2300
202.2550,76.8600
202.2653,76.8083
202.2945,76.7645
202.3383,76.7353
202.3900,76.7250
202.6600,76.7250
202.7117,76.7353
202.7555,76.7645
202.7847,76.8083
202.7950,76.8600
Z" /> 
<path style="fill:#B4A09A; fill-opacity:0.9000; stroke:none;fill-rule:evenodd;"
d="M 201.7750,77.2300
201.7647,77.2817
201.7355,77.3255
201.6917,77.3547
201.6400,77.3650
201.3700,77.3650
201.3183,77.3547
201.2745,77.3255
201.2453,77.2817
201.2350,77.2300
201.2350,76.8600
201.2453,76.8083
201.2745,76.7645
201.3183,76.7353
201.3700,76.7250
201.6400,76.7250
201.6917,76.7353
201.7355,76.7645
201.7647,76.8083
201.7750,76.8600
Z" /> 
<path style="fill:#B4A09A; fill-opacity:0.9000; stroke:none;fill-rule:evenodd;"
d="M 197.2300,67.3100
196.8300,67.3100
196.8300,66.9400
197.2300,66.9400
Z" /> 
<path style="fill:#B4A09A; fill-opacity:0.9000; stroke:none;fill-rule:evenodd;"
d="M 197.8800,67.3100
197.4800,67.3100
197.4800,66.9400
197.8800,66.9400
Z" /> 
<path style="fill:#B4A09A; fill-opacity:0.9000; stroke:none;fill-rule:evenodd;"
d="M 198.5300,67.3100
198.1300,67.3100
198.1300,66.8350
198.5300,66.8350
Z" /> 
<path style="fill:#B4A09A; fill-opacity:0.9000; stroke:none;fill-rule:evenodd;"
d="M 198.5300,65.4850
198.1300,65.4850
198.1300,65.0100
198.5300,65.0100
Z" /> 
<path style="fill:#B4A09A; fill-opacity:0.9000; stroke:none;fill-rule:evenodd;"
d="M 197.8800,65.3800
197.4800,65.3800
197.4800,65.0100
197.8800,65.0100
Z" /> 
<path style="fill:#B4A09A; fill-opacity:0.9000; stroke:none;fill-rule:evenodd;"
d="M 197.2300,65.3800
196.8300,65.3800
196.8300,65.0100
197.2300,65.0100
Z" /> 
<path style="fill:#B4A09A; fill-opacity:0.9000; stroke:none;fill-rule:evenodd;"
d="M 197.8800,66.9400
196.8300,66.9400
196.8300,65.3800
197.8800,65.3800
Z" /> 
<path style="fill:#B4A09A; fill-opacity:0.9000; stroke:none;fill-rule:evenodd;"
d="M 198.5300,66.4900
198.1300,66.4900
198.1300,65.8300
198.5300,65.8300
Z" /> 
<path style="fill:#B4A09A; fill-opacity:0.9000; stroke:none;fill-rule:evenodd;"
d="M 198.5400,78.2950
198.5917,78.3053
198.6355,78.3345
198.6647,78.3783
198.6750,78.4300
198.6750,78.7000
198.6647,78.7517
198.6355,78.7955
198.5917,78.8247
198.5400,78.8350
198.1700,78.8350
198.1183,78.8247
198.0745,78.7955
198.0453,78.7517
198.0350,78.7000
198.0350,78.4300
198.0453,78.3783
198.0745,78.3345
198.1183,78.3053
198.1700,78.2950
Z" /> 
<path style="fill:#B4A09A; fill-opacity:0.9000; stroke:none;fill-rule:evenodd;"
d="M 198.5400,79.3150
198.5917,79.3253
198.6355,79.3545
198.6647,79.3983
198.6750,79.4500
198.6750,79.7200
198.6647,79.7717
198.6355,79.8155
198.5917,79.8447
198.5400,79.8550
198.1700,79.8550
198.1183,79.8447
198.0745,79.8155
198.0453,79.7717
198.0350,79.7200
198.0350,79.4500
198.0453,79.3983
198.0745,79.3545
198.1183,79.3253
198.1700,79.3150
Z" /> 
<path style="fill:#B4A09A; fill-opacity:0.9000; stroke:none;fill-rule:evenodd;"
d="M 214.5950,49.3900
214.5950,48.1900
215.1950,48.1900
215.1950,49.3900
Z" /> 
<path style="fill:#B4A09A; fill-opacity:0.9000; stroke:none;fill-rule:evenodd;"
d="M 217.9950,49.3900
217.9950,48.1900
218.5950,48.1900
218.5950,49.3900
Z" /> 
<path style="fill:#B4A09A; fill-opacity:0.9000; stroke:none;fill-rule:evenodd;"
d="M 210.0735,65.6329
210.0632,65.6845
210.0340,65.7283
209.9902,65.7576
209.9385,65.7679
209.6685,65.7679
209.6168,65.7576
209.5730,65.7283
209.5438,65.6845
209.5335,65.6329
209.5335,65.2629
209.5438,65.2112
209.5730,65.1674
209.6168,65.1381
209.6685,65.1279
209.9385,65.1279
209.9902,65.1381
210.0340,65.1674
210.0632,65.2112
210.0735,65.2629
Z" /> 
<path style="fill:#B4A09A; fill-opacity:0.9000; stroke:none;fill-rule:evenodd;"
d="M 209.0535,65.6329
209.0432,65.6845
209.0140,65.7283
208.9702,65.7576
208.9185,65.7679
208.6485,65.7679
208.5968,65.7576
208.5530,65.7283
208.5238,65.6845
208.5135,65.6329
208.5135,65.2629
208.5238,65.2112
208.5530,65.1674
208.5968,65.1381
208.6485,65.1279
208.9185,65.1279
208.9702,65.1381
209.0140,65.1674
209.0432,65.2112
209.0535,65.2629
Z" /> 
<path style="fill:#B4A09A; fill-opacity:0.9000; stroke:none;fill-rule:evenodd;"
d="M 200.2477,48.9530
200.1640,48.9363
200.0931,48.8889
200.0457,48.8180
200.0290,48.7342
200.0290,48.2967
200.0457,48.2130
200.0931,48.1421
200.1640,48.0947
200.2477,48.0780
200.7602,48.0780
200.8440,48.0947
200.9149,48.1421
200.9623,48.2130
200.9790,48.2967
200.9790,48.7342
200.9623,48.8180
200.9149,48.8889
200.8440,48.9363
200.7602,48.9530
Z" /> 
<path style="fill:#B4A09A; fill-opacity:0.9000; stroke:none;fill-rule:evenodd;"
d="M 200.2477,47.3780
200.1640,47.3613
200.0931,47.3139
200.0457,47.2430
200.0290,47.1593
200.0290,46.7218
200.0457,46.6380
200.0931,46.5671
200.1640,46.5197
200.2477,46.5030
200.7602,46.5030
200.8440,46.5197
200.9149,46.5671
200.9623,46.6380
200.9790,46.7218
200.9790,47.1593
200.9623,47.2430
200.9149,47.3139
200.8440,47.3613
200.7602,47.3780
Z" /> 
<path style="fill:#B4A09A; fill-opacity:0.9000; stroke:none;fill-rule:evenodd;"
d="M 201.9910,51.2930
201.9815,51.3408
201.9544,51.3814
201.9138,51.4085
201.8660,51.4180
200.8910,51.4180
200.8432,51.4085
200.8026,51.3814
200.7755,51.3408
200.7660,51.2930
200.7660,51.0430
200.7755,50.9952
200.8026,50.9546
200.8432,50.9275
200.8910,50.9180
201.8660,50.9180
201.9138,50.9275
201.9544,50.9546
201.9815,50.9952
201.9910,51.0430
Z" /> 
<path style="fill:#B4A09A; fill-opacity:0.9000; stroke:none;fill-rule:evenodd;"
d="M 201.9910,49.9930
201.9815,50.0408
201.9544,50.0814
201.9138,50.1085
201.8660,50.1180
200.8910,50.1180
200.8432,50.1085
200.8026,50.0814
200.7755,50.0408
200.7660,49.9930
200.7660,49.7430
200.7755,49.6952
200.8026,49.6546
200.8432,49.6275
200.8910,49.6180
201.8660,49.6180
201.9138,49.6275
201.9544,49.6546
201.9815,49.6952
201.9910,49.7430
Z" /> 
<path style="fill:#B4A09A; fill-opacity:0.9000; stroke:none;fill-rule:evenodd;"
d="M 200.1160,50.6430
200.1065,50.6908
200.0794,50.7314
200.0388,50.7585
199.9910,50.7680
199.0160,50.7680
198.9682,50.7585
198.9276,50.7314
198.9005,50.6908
198.8910,50.6430
198.8910,50.3930
198.9005,50.3452
198.9276,50.3046
198.9682,50.2775
199.0160,50.2680
199.9910,50.2680
200.0388,50.2775
200.0794,50.3046
200.1065,50.3452
200.1160,50.3930
Z" /> 
<path style="fill:#B4A09A; fill-opacity:0.9000; stroke:none;fill-rule:evenodd;"
d="M 217.6550,64.1020
217.6033,64.0917
217.5595,64.0625
217.5303,64.0187
217.5200,63.9670
217.5200,63.6970
217.5303,63.6453
217.5595,63.6015
217.6033,63.5723
217.6550,63.5620
218.0250,63.5620
218.0767,63.5723
218.1205,63.6015
218.1497,63.6453
218.1600,63.6970
218.1600,63.9670
218.1497,64.0187
218.1205,64.0625
218.0767,64.0917
218.0250,64.1020
Z" /> 
<path style="fill:#B4A09A; fill-opacity:0.9000; stroke:none;fill-rule:evenodd;"
d="M 217.6550,63.0820
217.6033,63.0717
217.5595,63.0425
217.5303,62.9987
217.5200,62.9470
217.5200,62.6770
217.5303,62.6253
217.5595,62.5815
217.6033,62.5523
217.6550,62.5420
218.0250,62.5420
218.0767,62.5523
218.1205,62.5815
218.1497,62.6253
218.1600,62.6770
218.1600,62.9470
218.1497,62.9987
218.1205,63.0425
218.0767,63.0717
218.0250,63.0820
Z" /> 
<path style="fill:#B4A09A; fill-opacity:0.9000; stroke:none;fill-rule:evenodd;"
d="M 213.5420,54.4000
213.5313,54.4536
213.5010,54.4990
213.4556,54.5293
213.4020,54.5400
213.1220,54.5400
213.0684,54.5293
213.0230,54.4990
212.9927,54.4536
212.9820,54.4000
212.9820,54.0600
212.9927,54.0064
213.0230,53.9610
213.0684,53.9307
213.1220,53.9200
213.4020,53.9200
213.4556,53.9307
213.5010,53.9610
213.5313,54.0064
213.5420,54.0600
Z" /> 
<path style="fill:#B4A09A; fill-opacity:0.9000; stroke:none;fill-rule:evenodd;"
d="M 212.5820,54.4000
212.5713,54.4536
212.5410,54.4990
212.4956,54.5293
212.4420,54.5400
212.1620,54.5400
212.1084,54.5293
212.0630,54.4990
212.0327,54.4536
212.0220,54.4000
212.0220,54.0600
212.0327,54.0064
212.0630,53.9610
212.1084,53.9307
212.1620,53.9200
212.4420,53.9200
212.4956,53.9307
212.5410,53.9610
212.5713,54.0064
212.5820,54.0600
Z" /> 
<path style="fill:#B4A09A; fill-opacity:0.9000; stroke:none;fill-rule:evenodd;"
d="M 198.2800,69.1550
198.2283,69.1447
198.1845,69.1155
198.1553,69.0717
198.1450,69.0200
198.1450,68.7500
198.1553,68.6983
198.1845,68.6545
198.2283,68.6253
198.2800,68.6150
198.6500,68.6150
198.7017,68.6253
198.7455,68.6545
198.7747,68.6983
198.7850,68.7500
198.7850,69.0200
198.7747,69.0717
198.7455,69.1155
198.7017,69.1447
198.6500,69.1550
Z" /> 
<path style="fill:#B4A09A; fill-opacity:0.9000; stroke:none;fill-rule:evenodd;"
d="M 198.2800,68.1350
198.2283,68.1247
198.1845,68.0955
198.1553,68.0517
198.1450,68.0000
198.1450,67.7300
198.1553,67.6783
198.1845,67.6345
198.2283,67.6053
198.2800,67.5950
198.6500,67.5950
198.7017,67.6053
198.7455,67.6345
198.7747,67.6783
198.7850,67.7300
198.7850,68.0000
198.7747,68.0517
198.7455,68.0955
198.7017,68.1247
198.6500,68.1350
Z" /> 
<path style="fill:#B4A09A; fill-opacity:0.9000; stroke:none;fill-rule:evenodd;"
d="M 212.3400,82.9730
212.4261,82.9901
212.4991,83.0389
212.5479,83.1119
212.5650,83.1980
212.5650,83.6480
212.5479,83.7341
212.4991,83.8071
212.4261,83.8559
212.3400,83.8730
211.8400,83.8730
211.7539,83.8559
211.6809,83.8071
211.6321,83.7341
211.6150,83.6480
211.6150,83.1980
211.6321,83.1119
211.6809,83.0389
211.7539,82.9901
211.8400,82.9730
Z" /> 
<path style="fill:#B4A09A; fill-opacity:0.9000; stroke:none;fill-rule:evenodd;"
d="M 212.3400,84.5230
212.4261,84.5401
212.4991,84.5889
212.5479,84.6619
212.5650,84.7480
212.5650,85.1980
212.5479,85.2841
212.4991,85.3571
212.4261,85.4059
212.3400,85.4230
211.8400,85.4230
211.7539,85.4059
211.6809,85.3571
211.6321,85.2841
211.6150,85.1980
211.6150,84.7480
211.6321,84.6619
211.6809,84.5889
211.7539,84.5401
211.8400,84.5230
Z" /> 
<path style="fill:#B4A09A; fill-opacity:0.9000; stroke:none;fill-rule:evenodd;"
d="M 203.9062,90.9750
203.8632,90.9664
203.8267,90.9420
203.8023,90.9056
203.7937,90.8625
203.7937,90.4875
203.8023,90.4444
203.8267,90.4079
203.8632,90.3836
203.9062,90.3750
204.1312,90.3750
204.1743,90.3836
204.2108,90.4079
204.2352,90.4444
204.2437,90.4875
204.2437,90.8625
204.2352,90.9056
204.2108,90.9420
204.1743,90.9664
204.1312,90.9750
Z" /> 
<path style="fill:#B4A09A; fill-opacity:0.9000; stroke:none;fill-rule:evenodd;"
d="M 203.9062,88.8750
203.8632,88.8664
203.8267,88.8421
203.8023,88.8056
203.7937,88.7625
203.7937,88.3875
203.8023,88.3444
203.8267,88.3079
203.8632,88.2836
203.9062,88.2750
204.1312,88.2750
204.1743,88.2836
204.2108,88.3079
204.2352,88.3444
204.2437,88.3875
204.2437,88.7625
204.2352,88.8056
204.2108,88.8421
204.1743,88.8664
204.1312,88.8750
Z" /> 
<path style="fill:#B4A09A; fill-opacity:0.9000; stroke:none;fill-rule:evenodd;"
d="M 196.0250,63.2035
196.0786,63.2142
196.1240,63.2445
196.1543,63.2900
196.1650,63.3435
196.1650,63.6235
196.1543,63.6771
196.1240,63.7225
196.0786,63.7529
196.0250,63.7635
195.6850,63.7635
195.6314,63.7529
195.5860,63.7225
195.5557,63.6771
195.5450,63.6235
195.5450,63.3435
195.5557,63.2900
195.5860,63.2445
195.6314,63.2142
195.6850,63.2035
Z" /> 
<path style="fill:#B4A09A; fill-opacity:0.9000; stroke:none;fill-rule:evenodd;"
d="M 196.0250,64.1635
196.0786,64.1742
196.1240,64.2045
196.1543,64.2500
196.1650,64.3035
196.1650,64.5835
196.1543,64.6371
196.1240,64.6825
196.0786,64.7129
196.0250,64.7235
195.6850,64.7235
195.6314,64.7129
195.5860,64.6825
195.5557,64.6371
195.5450,64.5835
195.5450,64.3035
195.5557,64.2500
195.5860,64.2045
195.6314,64.1742
195.6850,64.1635
Z" /> 
<path style="fill:#B4A09A; fill-opacity:0.9000; stroke:none;fill-rule:evenodd;"
d="M 196.9650,63.2035
197.0186,63.2142
197.0640,63.2445
197.0943,63.2900
197.1050,63.3435
197.1050,63.6235
197.0943,63.6771
197.0640,63.7225
197.0186,63.7529
196.9650,63.7635
196.6250,63.7635
196.5714,63.7529
196.5260,63.7225
196.4957,63.6771
196.4850,63.6235
196.4850,63.3435
196.4957,63.2900
196.5260,63.2445
196.5714,63.2142
196.6250,63.2035
Z" /> 
<path style="fill:#B4A09A; fill-opacity:0.9000; stroke:none;fill-rule:evenodd;"
d="M 196.9650,64.1635
197.0186,64.1742
197.0640,64.2045
197.0943,64.2500
197.1050,64.3035
197.1050,64.5835
197.0943,64.6371
197.0640,64.6825
197.0186,64.7129
196.9650,64.7235
196.6250,64.7235
196.5714,64.7129
196.5260,64.6825
196.4957,64.6371
196.4850,64.5835
196.4850,64.3035
196.4957,64.2500
196.5260,64.2045
196.5714,64.1742
196.6250,64.1635
Z" /> 
<path style="fill:#B4A09A; fill-opacity:0.9000; stroke:none;fill-rule:evenodd;"
d="M 210.1175,81.6030
210.1414,81.6078
210.1617,81.6213
210.1752,81.6416
210.1800,81.6655
210.1800,82.1405
210.1752,82.1644
210.1617,82.1847
210.1414,82.1982
210.1175,82.2030
209.9925,82.2030
209.9686,82.1982
209.9483,82.1847
209.9348,82.1644
209.9300,82.1405
209.9300,81.6655
209.9348,81.6416
209.9483,81.6213
209.9686,81.6078
209.9925,81.6030
Z" /> 
<path style="fill:#B4A09A; fill-opacity:0.9000; stroke:none;fill-rule:evenodd;"
d="M 209.6175,81.6030
209.6414,81.6078
209.6617,81.6213
209.6752,81.6416
209.6800,81.6655
209.6800,82.1405
209.6752,82.1644
209.6617,82.1847
209.6414,82.1982
209.6175,82.2030
209.4925,82.2030
209.4686,82.1982
209.4483,82.1847
209.4348,82.1644
209.4300,82.1405
209.4300,81.6655
209.4348,81.6416
209.4483,81.6213
209.4686,81.6078
209.4925,81.6030
Z" /> 
<path style="fill:#B4A09A; fill-opacity:0.9000; stroke:none;fill-rule:evenodd;"
d="M 209.1175,81.6030
209.1414,81.6078
209.1617,81.6213
209.1752,81.6416
209.1800,81.6655
209.1800,82.1405
209.1752,82.1644
209.1617,82.1847
209.1414,82.1982
209.1175,82.2030
208.9925,82.2030
208.9686,82.1982
208.9483,82.1847
208.9348,82.1644
208.9300,82.1405
208.9300,81.6655
208.9348,81.6416
208.9483,81.6213
208.9686,81.6078
208.9925,81.6030
Z" /> 
<path style="fill:#B4A09A; fill-opacity:0.9000; stroke:none;fill-rule:evenodd;"
d="M 208.6175,81.6030
208.6414,81.6078
208.6617,81.6213
208.6752,81.6416
208.6800,81.6655
208.6800,82.1405
208.6752,82.1644
208.6617,82.1847
208.6414,82.1982
208.6175,82.2030
208.4925,82.2030
208.4686,82.1982
208.4483,82.1847
208.4348,82.1644
208.4300,82.1405
208.4300,81.6655
208.4348,81.6416
208.4483,81.6213
208.4686,81.6078
208.4925,81.6030
Z" /> 
<path style="fill:#B4A09A; fill-opacity:0.9000; stroke:none;fill-rule:evenodd;"
d="M 208.1175,81.6030
208.1414,81.6078
208.1617,81.6213
208.1752,81.6416
208.1800,81.6655
208.1800,82.1405
208.1752,82.1644
208.1617,82.1847
208.1414,82.1982
208.1175,82.2030
207.9925,82.2030
207.9686,82.1982
207.9483,82.1847
207.9348,82.1644
207.9300,82.1405
207.9300,81.6655
207.9348,81.6416
207.9483,81.6213
207.9686,81.6078
207.9925,81.6030
Z" /> 
<path style="fill:#B4A09A; fill-opacity:0.9000; stroke:none;fill-rule:evenodd;"
d="M 208.1175,83.1030
208.1414,83.1078
208.1617,83.1213
208.1752,83.1416
208.1800,83.1655
208.1800,83.9405
208.1752,83.9644
208.1617,83.9847
208.1414,83.9982
208.1175,84.0030
207.9925,84.0030
207.9686,83.9982
207.9483,83.9847
207.9348,83.9644
207.9300,83.9405
207.9300,83.1655
207.9348,83.1416
207.9483,83.1213
207.9686,83.1078
207.9925,83.1030
Z" /> 
<path style="fill:#B4A09A; fill-opacity:0.9000; stroke:none;fill-rule:evenodd;"
d="M 208.6175,83.1030
208.6414,83.1078
208.6617,83.1213
208.6752,83.1416
208.6800,83.1655
208.6800,83.9405
208.6752,83.9644
208.6617,83.9847
208.6414,83.9982
208.6175,84.0030
208.4925,84.0030
208.4686,83.9982
208.4483,83.9847
208.4348,83.9644
208.4300,83.9405
208.4300,83.1655
208.4348,83.1416
208.4483,83.1213
208.4686,83.1078
208.4925,83.1030
Z" /> 
<path style="fill:#B4A09A; fill-opacity:0.9000; stroke:none;fill-rule:evenodd;"
d="M 209.6175,83.1030
209.6414,83.1078
209.6617,83.1213
209.6752,83.1416
209.6800,83.1655
209.6800,83.9405
209.6752,83.9644
209.6617,83.9847
209.6414,83.9982
209.6175,84.0030
209.4925,84.0030
209.4686,83.9982
209.4483,83.9847
209.4348,83.9644
209.4300,83.9405
209.4300,83.1655
209.4348,83.1416
209.4483,83.1213
209.4686,83.1078
209.4925,83.1030
Z" /> 
<path style="fill:#B4A09A; fill-opacity:0.9000; stroke:none;fill-rule:evenodd;"
d="M 210.1175,83.1030
210.1414,83.1078
210.1617,83.1213
210.1752,83.1416
210.1800,83.1655
210.1800,83.9405
210.1752,83.9644
210.1617,83.9847
210.1414,83.9982
210.1175,84.0030
209.9925,84.0030
209.9686,83.9982
209.9483,83.9847
209.9348,83.9644
209.9300,83.9405
209.9300,83.1655
209.9348,83.1416
209.9483,83.1213
209.9686,83.1078
209.9925,83.1030
Z" /> 
<path style="fill:#B4A09A; fill-opacity:0.9000; stroke:none;fill-rule:evenodd;"
d="M 201.7057,48.9530
201.6220,48.9363
201.5511,48.8889
201.5037,48.8180
201.4870,48.7342
201.4870,48.2967
201.5037,48.2130
201.5511,48.1421
201.6220,48.0947
201.7057,48.0780
202.2182,48.0780
202.3020,48.0947
202.3729,48.1421
202.4203,48.2130
202.4370,48.2967
202.4370,48.7342
202.4203,48.8180
202.3729,48.8889
202.3020,48.9363
202.2182,48.9530
Z" /> 
<path style="fill:#B4A09A; fill-opacity:0.9000; stroke:none;fill-rule:evenodd;"
d="M 201.7057,47.3780
201.6220,47.3613
201.5511,47.3139
201.5037,47.2430
201.4870,47.1593
201.4870,46.7218
201.5037,46.6380
201.5511,46.5671
201.6220,46.5197
201.7057,46.5030
202.2182,46.5030
202.3020,46.5197
202.3729,46.5671
202.4203,46.6380
202.4370,46.7218
202.4370,47.1593
202.4203,47.2430
202.3729,47.3139
202.3020,47.3613
202.2182,47.3780
Z" /> 
<path style="fill:#B4A09A; fill-opacity:0.9000; stroke:none;fill-rule:evenodd;"
d="M 202.1500,61.5360
202.0964,61.5253
202.0510,61.4950
202.0207,61.4496
202.0100,61.3960
202.0100,61.1160
202.0207,61.0624
202.0510,61.0170
202.0964,60.9867
202.1500,60.9760
202.4900,60.9760
202.5436,60.9867
202.5890,61.0170
202.6193,61.0624
202.6300,61.1160
202.6300,61.3960
202.6193,61.4496
202.5890,61.4950
202.5436,61.5253
202.4900,61.5360
Z" /> 
<path style="fill:#B4A09A; fill-opacity:0.9000; stroke:none;fill-rule:evenodd;"
d="M 202.1500,60.5760
202.0964,60.5653
202.0510,60.5350
202.0207,60.4896
202.0100,60.4360
202.0100,60.1560
202.0207,60.1024
202.0510,60.0570
202.0964,60.0267
202.1500,60.0160
202.4900,60.0160
202.5436,60.0267
202.5890,60.0570
202.6193,60.1024
202.6300,60.1560
202.6300,60.4360
202.6193,60.4896
202.5890,60.5350
202.5436,60.5653
202.4900,60.5760
Z" /> 
<path style="fill:#B4A09A; fill-opacity:0.9000; stroke:none;fill-rule:evenodd;"
d="M 211.8300,51.5900
211.8300,53.0400
211.2300,53.0400
211.2300,51.5900
Z" /> 
<path style="fill:#B4A09A; fill-opacity:0.9000; stroke:none;fill-rule:evenodd;"
d="M 211.0300,51.5900
211.0300,53.0400
210.4300,53.0400
210.4300,51.5900
Z" /> 
<path style="fill:#B4A09A; fill-opacity:0.9000; stroke:none;fill-rule:evenodd;"
d="M 209.6800,51.5900
209.6800,53.0400
209.3800,53.0400
209.3800,51.5900
Z" /> 
<path style="fill:#B4A09A; fill-opacity:0.9000; stroke:none;fill-rule:evenodd;"
d="M 208.6800,51.5900
208.6800,53.0400
208.3800,53.0400
208.3800,51.5900
Z" /> 
<path style="fill:#B4A09A; fill-opacity:0.9000; stroke:none;fill-rule:evenodd;"
d="M 208.1800,51.5900
208.1800,53.0400
207.8800,53.0400
207.8800,51.5900
Z" /> 
<path style="fill:#B4A09A; fill-opacity:0.9000; stroke:none;fill-rule:evenodd;"
d="M 207.1800,51.5900
207.1800,53.0400
206.8800,53.0400
206.8800,51.5900
Z" /> 
<path style="fill:#B4A09A; fill-opacity:0.9000; stroke:none;fill-rule:evenodd;"
d="M 206.1300,51.5900
206.1300,53.0400
205.5300,53.0400
205.5300,51.5900
Z" /> 
<path style="fill:#B4A09A; fill-opacity:0.9000; stroke:none;fill-rule:evenodd;"
d="M 205.3300,51.5900
205.3300,53.0400
204.7300,53.0400
204.7300,51.5900
Z" /> 
<path style="fill:#B4A09A; fill-opacity:0.9000; stroke:none;fill-rule:evenodd;"
d="M 205.3300,51.5900
205.3300,53.0400
204.7300,53.0400
204.7300,51.5900
Z" /> 
<path style="fill:#B4A09A; fill-opacity:0.9000; stroke:none;fill-rule:evenodd;"
d="M 206.1300,51.5900
206.1300,53.0400
205.5300,53.0400
205.5300,51.5900
Z" /> 
<path style="fill:#B4A09A; fill-opacity:0.9000; stroke:none;fill-rule:evenodd;"
d="M 206.6800,51.5900
206.6800,53.0400
206.3800,53.0400
206.3800,51.5900
Z" /> 
<path style="fill:#B4A09A; fill-opacity:0.9000; stroke:none;fill-rule:evenodd;"
d="M 207.6800,51.5900
207.6800,53.0400
207.3800,53.0400
207.3800,51.5900
Z" /> 
<path style="fill:#B4A09A; fill-opacity:0.9000; stroke:none;fill-rule:evenodd;"
d="M 209.1800,51.5900
209.1800,53.0400
208.8800,53.0400
208.8800,51.5900
Z" /> 
<path style="fill:#B4A09A; fill-opacity:0.9000; stroke:none;fill-rule:evenodd;"
d="M 210.1800,51.5900
210.1800,53.0400
209.8800,53.0400
209.8800,51.5900
Z" /> 
<path style="fill:#B4A09A; fill-opacity:0.9000; stroke:none;fill-rule:evenodd;"
d="M 211.0300,51.5900
211.0300,53.0400
210.4300,53.0400
210.4300,51.5900
Z" /> 
<path style="fill:#B4A09A; fill-opacity:0.9000; stroke:none;fill-rule:evenodd;"
d="M 211.8300,51.5900
211.8300,53.0400
211.2300,53.0400
211.2300,51.5900
Z" /> 
<path style="fill:#B4A09A; fill-opacity:0.9000; stroke:none;fill-rule:evenodd;"
d="M 219.1100,52.9750
219.1024,53.0133
219.0807,53.0457
219.0483,53.0674
219.0100,53.0750
218.4600,53.0750
218.4217,53.0674
218.3893,53.0457
218.3676,53.0133
218.3600,52.9750
218.3600,52.7750
218.3676,52.7367
218.3893,52.7043
218.4217,52.6826
218.4600,52.6750
219.0100,52.6750
219.0483,52.6826
219.0807,52.7043
219.1024,52.7367
219.1100,52.7750
Z" /> 
<path style="fill:#B4A09A; fill-opacity:0.9000; stroke:none;fill-rule:evenodd;"
d="M 219.1100,52.3250
219.1024,52.3633
219.0807,52.3957
219.0483,52.4174
219.0100,52.4250
218.4600,52.4250
218.4217,52.4174
218.3893,52.3957
218.3676,52.3633
218.3600,52.3250
218.3600,52.1250
218.3676,52.0867
218.3893,52.0543
218.4217,52.0326
218.4600,52.0250
219.0100,52.0250
219.0483,52.0326
219.0807,52.0543
219.1024,52.0867
219.1100,52.1250
Z" /> 
<path style="fill:#B4A09A; fill-opacity:0.9000; stroke:none;fill-rule:evenodd;"
d="M 219.1100,51.6750
219.1024,51.7133
219.0807,51.7457
219.0483,51.7674
219.0100,51.7750
218.4600,51.7750
218.4217,51.7674
218.3893,51.7457
218.3676,51.7133
218.3600,51.6750
218.3600,51.4750
218.3676,51.4367
218.3893,51.4043
218.4217,51.3826
218.4600,51.3750
219.0100,51.3750
219.0483,51.3826
219.0807,51.4043
219.1024,51.4367
219.1100,51.4750
Z" /> 
<path style="fill:#B4A09A; fill-opacity:0.9000; stroke:none;fill-rule:evenodd;"
d="M 217.2100,51.6750
217.2024,51.7133
217.1807,51.7457
217.1483,51.7674
217.1100,51.7750
216.5600,51.7750
216.5217,51.7674
216.4893,51.7457
216.4676,51.7133
216.4600,51.6750
216.4600,51.4750
216.4676,51.4367
216.4893,51.4043
216.5217,51.3826
216.5600,51.3750
217.1100,51.3750
217.1483,51.3826
217.1807,51.4043
217.2024,51.4367
217.2100,51.4750
Z" /> 
<path style="fill:#B4A09A; fill-opacity:0.9000; stroke:none;fill-rule:evenodd;"
d="M 217.2100,52.3250
217.2024,52.3633
217.1807,52.3957
217.1483,52.4174
217.1100,52.4250
216.5600,52.4250
216.5217,52.4174
216.4893,52.3957
216.4676,52.3633
216.4600,52.3250
216.4600,52.1250
216.4676,52.0867
216.4893,52.0543
216.5217,52.0326
216.5600,52.0250
217.1100,52.0250
217.1483,52.0326
217.1807,52.0543
217.2024,52.0867
217.2100,52.1250
Z" /> 
<path style="fill:#B4A09A; fill-opacity:0.9000; stroke:none;fill-rule:evenodd;"
d="M 217.2100,52.9750
217.2024,53.0133
217.1807,53.0457
217.1483,53.0674
217.1100,53.0750
216.5600,53.0750
216.5217,53.0674
216.4893,53.0457
216.4676,53.0133
216.4600,52.9750
216.4600,52.7750
216.4676,52.7367
216.4893,52.7043
216.5217,52.6826
216.5600,52.6750
217.1100,52.6750
217.1483,52.6826
217.1807,52.7043
217.2024,52.7367
217.2100,52.7750
Z" /> 
<path style="fill:#B4A09A; fill-opacity:0.9000; stroke:none;fill-rule:evenodd;"
d="M 201.5732,63.1155
201.5542,63.2112
201.5000,63.2923
201.4189,63.3465
201.3232,63.3655
200.6982,63.3655
200.6026,63.3465
200.5215,63.2923
200.4673,63.2112
200.4482,63.1155
200.4482,60.9655
200.4673,60.8698
200.5215,60.7887
200.6026,60.7345
200.6982,60.7155
201.3232,60.7155
201.4189,60.7345
201.5000,60.7887
201.5542,60.8698
201.5732,60.9655
Z" /> 
<path style="fill:#B4A09A; fill-opacity:0.9000; stroke:none;fill-rule:evenodd;"
d="M 198.6482,63.1155
198.6292,63.2112
198.5750,63.2923
198.4939,63.3465
198.3982,63.3655
197.7732,63.3655
197.6776,63.3465
197.5965,63.2923
197.5423,63.2112
197.5232,63.1155
197.5232,60.9655
197.5423,60.8698
197.5965,60.7887
197.6776,60.7345
197.7732,60.7155
198.3982,60.7155
198.4939,60.7345
198.5750,60.7887
198.6292,60.8698
198.6482,60.9655
Z" /> 
<path style="fill:#B4A09A; fill-opacity:0.9000; stroke:none;fill-rule:evenodd;"
d="M 205.2705,67.4956
205.2895,67.3999
205.3437,67.3188
205.4248,67.2646
205.5205,67.2456
206.0905,67.2456
206.1862,67.2646
206.2673,67.3188
206.3215,67.3999
206.3405,67.4956
206.3405,68.0656
206.3215,68.1613
206.2673,68.2424
206.1862,68.2966
206.0905,68.3156
205.5205,68.3156
205.4248,68.2966
205.3437,68.2424
205.2895,68.1613
205.2705,68.0656
Z" /> 
<path style="fill:#B4A09A; fill-opacity:0.9000; stroke:none;fill-rule:evenodd;"
d="M 205.2705,68.8156
205.2895,68.7199
205.3437,68.6388
205.4248,68.5846
205.5205,68.5656
206.0905,68.5656
206.1862,68.5846
206.2673,68.6388
206.3215,68.7199
206.3405,68.8156
206.3405,69.3856
206.3215,69.4813
206.2673,69.5624
206.1862,69.6166
206.0905,69.6356
205.5205,69.6356
205.4248,69.6166
205.3437,69.5624
205.2895,69.4813
205.2705,69.3856
Z" /> 
<path style="fill:#B4A09A; fill-opacity:0.9000; stroke:none;fill-rule:evenodd;"
d="M 206.5905,67.4956
206.6095,67.3999
206.6637,67.3188
206.7448,67.2646
206.8405,67.2456
207.4105,67.2456
207.5062,67.2646
207.5873,67.3188
207.6415,67.3999
207.6605,67.4956
207.6605,68.0656
207.6415,68.1613
207.5873,68.2424
207.5062,68.2966
207.4105,68.3156
206.8405,68.3156
206.7448,68.2966
206.6637,68.2424
206.6095,68.1613
206.5905,68.0656
Z" /> 
<path style="fill:#B4A09A; fill-opacity:0.9000; stroke:none;fill-rule:evenodd;"
d="M 206.5905,68.8156
206.6095,68.7199
206.6637,68.6388
206.7448,68.5846
206.8405,68.5656
207.4105,68.5656
207.5062,68.5846
207.5873,68.6388
207.6415,68.7199
207.6605,68.8156
207.6605,69.3856
207.6415,69.4813
207.5873,69.5624
207.5062,69.6166
207.4105,69.6356
206.8405,69.6356
206.7448,69.6166
206.6637,69.5624
206.6095,69.4813
206.5905,69.3856
Z" /> 
<path style="fill:#B4A09A; fill-opacity:0.9000; stroke:none;fill-rule:evenodd;"
d="M 204.6801,66.9453
204.7508,67.0160
204.7655,67.0513
204.7655,67.0806
204.7508,67.1160
204.7155,67.1306
204.0155,67.1306
203.9801,67.1160
203.9655,67.0806
203.9655,66.9806
203.9801,66.9453
204.0155,66.9306
204.6448,66.9306
Z" /> 
<path style="fill:#B4A09A; fill-opacity:0.9000; stroke:none;fill-rule:evenodd;"
d="M 203.9655,67.3906
203.9693,67.3715
203.9801,67.3553
203.9964,67.3444
204.0155,67.3406
204.7155,67.3406
204.7346,67.3444
204.7508,67.3553
204.7617,67.3715
204.7655,67.3906
204.7655,67.4906
204.7617,67.5098
204.7508,67.5260
204.7346,67.5368
204.7155,67.5406
204.0155,67.5406
203.9964,67.5368
203.9801,67.5260
203.9693,67.5098
203.9655,67.4906
Z" /> 
<path style="fill:#B4A09A; fill-opacity:0.9000; stroke:none;fill-rule:evenodd;"
d="M 203.9655,67.7906
203.9693,67.7715
203.9801,67.7553
203.9964,67.7444
204.0155,67.7406
204.7155,67.7406
204.7346,67.7444
204.7508,67.7553
204.7617,67.7715
204.7655,67.7906
204.7655,67.8906
204.7617,67.9098
204.7508,67.9260
204.7346,67.9368
204.7155,67.9406
204.0155,67.9406
203.9964,67.9368
203.9801,67.9260
203.9693,67.9098
203.9655,67.8906
Z" /> 
<path style="fill:#B4A09A; fill-opacity:0.9000; stroke:none;fill-rule:evenodd;"
d="M 203.9655,68.1906
203.9693,68.1715
203.9801,68.1553
203.9964,68.1444
204.0155,68.1406
204.7155,68.1406
204.7346,68.1444
204.7508,68.1553
204.7617,68.1715
204.7655,68.1906
204.7655,68.2906
204.7617,68.3098
204.7508,68.3260
204.7346,68.3368
204.7155,68.3406
204.0155,68.3406
203.9964,68.3368
203.9801,68.3260
203.9693,68.3098
203.9655,68.2906
Z" /> 
<path style="fill:#B4A09A; fill-opacity:0.9000; stroke:none;fill-rule:evenodd;"
d="M 203.9655,68.5906
203.9693,68.5715
203.9801,68.5553
203.9964,68.5444
204.0155,68.5406
204.7155,68.5406
204.7346,68.5444
204.7508,68.5553
204.7617,68.5715
204.7655,68.5906
204.7655,68.6906
204.7617,68.7098
204.7508,68.7260
204.7346,68.7368
204.7155,68.7406
204.0155,68.7406
203.9964,68.7368
203.9801,68.7260
203.9693,68.7098
203.9655,68.6906
Z" /> 
<path style="fill:#B4A09A; fill-opacity:0.9000; stroke:none;fill-rule:evenodd;"
d="M 203.9655,68.9906
203.9693,68.9715
203.9801,68.9553
203.9964,68.9444
204.0155,68.9406
204.7155,68.9406
204.7346,68.9444
204.7508,68.9553
204.7617,68.9715
204.7655,68.9906
204.7655,69.0906
204.7617,69.1098
204.7508,69.1260
204.7346,69.1368
204.7155,69.1406
204.0155,69.1406
203.9964,69.1368
203.9801,69.1260
203.9693,69.1098
203.9655,69.0906
Z" /> 
<path style="fill:#B4A09A; fill-opacity:0.9000; stroke:none;fill-rule:evenodd;"
d="M 203.9655,69.3906
203.9693,69.3715
203.9801,69.3553
203.9964,69.3444
204.0155,69.3406
204.7155,69.3406
204.7346,69.3444
204.7508,69.3553
204.7617,69.3715
204.7655,69.3906
204.7655,69.4906
204.7617,69.5098
204.7508,69.5260
204.7346,69.5368
204.7155,69.5406
204.0155,69.5406
203.9964,69.5368
203.9801,69.5260
203.9693,69.5098
203.9655,69.4906
Z" /> 
<path style="fill:#B4A09A; fill-opacity:0.9000; stroke:none;fill-rule:evenodd;"
d="M 204.7508,69.7653
204.7655,69.8006
204.7655,69.8299
204.7508,69.8653
204.6801,69.9360
204.6448,69.9506
204.0155,69.9506
203.9801,69.9360
203.9655,69.9006
203.9655,69.8006
203.9801,69.7653
204.0155,69.7506
204.7155,69.7506
Z" /> 
<path style="fill:#B4A09A; fill-opacity:0.9000; stroke:none;fill-rule:evenodd;"
d="M 205.1428,70.1553
205.1575,70.1906
205.1575,70.8906
205.1428,70.9260
205.1075,70.9406
205.0075,70.9406
204.9721,70.9260
204.9575,70.8906
204.9575,70.2613
204.9721,70.2260
205.0428,70.1553
205.0782,70.1406
205.1075,70.1406
Z" /> 
<path style="fill:#B4A09A; fill-opacity:0.9000; stroke:none;fill-rule:evenodd;"
d="M 205.3655,70.1906
205.3693,70.1715
205.3801,70.1553
205.3964,70.1444
205.4155,70.1406
205.5155,70.1406
205.5346,70.1444
205.5508,70.1553
205.5617,70.1715
205.5655,70.1906
205.5655,70.8906
205.5617,70.9098
205.5508,70.9260
205.5346,70.9368
205.5155,70.9406
205.4155,70.9406
205.3964,70.9368
205.3801,70.9260
205.3693,70.9098
205.3655,70.8906
Z" /> 
<path style="fill:#B4A09A; fill-opacity:0.9000; stroke:none;fill-rule:evenodd;"
d="M 205.7655,70.1906
205.7693,70.1715
205.7801,70.1553
205.7964,70.1444
205.8155,70.1406
205.9155,70.1406
205.9346,70.1444
205.9508,70.1553
205.9617,70.1715
205.9655,70.1906
205.9655,70.8906
205.9617,70.9098
205.9508,70.9260
205.9346,70.9368
205.9155,70.9406
205.8155,70.9406
205.7964,70.9368
205.7801,70.9260
205.7693,70.9098
205.7655,70.8906
Z" /> 
<path style="fill:#B4A09A; fill-opacity:0.9000; stroke:none;fill-rule:evenodd;"
d="M 206.1655,70.1906
206.1693,70.1715
206.1801,70.1553
206.1964,70.1444
206.2155,70.1406
206.3155,70.1406
206.3346,70.1444
206.3508,70.1553
206.3617,70.1715
206.3655,70.1906
206.3655,70.8906
206.3617,70.9098
206.3508,70.9260
206.3346,70.9368
206.3155,70.9406
206.2155,70.9406
206.1964,70.9368
206.1801,70.9260
206.1693,70.9098
206.1655,70.8906
Z" /> 
<path style="fill:#B4A09A; fill-opacity:0.9000; stroke:none;fill-rule:evenodd;"
d="M 206.5655,70.1906
206.5693,70.1715
206.5801,70.1553
206.5964,70.1444
206.6155,70.1406
206.7155,70.1406
206.7346,70.1444
206.7508,70.1553
206.7617,70.1715
206.7655,70.1906
206.7655,70.8906
206.7617,70.9098
206.7508,70.9260
206.7346,70.9368
206.7155,70.9406
206.6155,70.9406
206.5964,70.9368
206.5801,70.9260
206.5693,70.9098
206.5655,70.8906
Z" /> 
<path style="fill:#B4A09A; fill-opacity:0.9000; stroke:none;fill-rule:evenodd;"
d="M 206.9655,70.1906
206.9693,70.1715
206.9801,70.1553
206.9964,70.1444
207.0155,70.1406
207.1155,70.1406
207.1346,70.1444
207.1508,70.1553
207.1617,70.1715
207.1655,70.1906
207.1655,70.8906
207.1617,70.9098
207.1508,70.9260
207.1346,70.9368
207.1155,70.9406
207.0155,70.9406
206.9964,70.9368
206.9801,70.9260
206.9693,70.9098
206.9655,70.8906
Z" /> 
<path style="fill:#B4A09A; fill-opacity:0.9000; stroke:none;fill-rule:evenodd;"
d="M 207.3655,70.1906
207.3693,70.1715
207.3801,70.1553
207.3964,70.1444
207.4155,70.1406
207.5155,70.1406
207.5346,70.1444
207.5508,70.1553
207.5617,70.1715
207.5655,70.1906
207.5655,70.8906
207.5617,70.9098
207.5508,70.9260
207.5346,70.9368
207.5155,70.9406
207.4155,70.9406
207.3964,70.9368
207.3801,70.9260
207.3693,70.9098
207.3655,70.8906
Z" /> 
<path style="fill:#B4A09A; fill-opacity:0.9000; stroke:none;fill-rule:evenodd;"
d="M 207.8801,70.1553
207.9508,70.2260
207.9655,70.2613
207.9655,70.8906
207.9508,70.9260
207.9155,70.9406
207.8155,70.9406
207.7801,70.9260
207.7655,70.8906
207.7655,70.1906
207.7801,70.1553
207.8155,70.1406
207.8448,70.1406
Z" /> 
<path style="fill:#B4A09A; fill-opacity:0.9000; stroke:none;fill-rule:evenodd;"
d="M 208.9508,69.7553
208.9655,69.7906
208.9655,69.8906
208.9508,69.9260
208.9155,69.9406
208.2862,69.9406
208.2508,69.9260
208.1801,69.8553
208.1655,69.8199
208.1655,69.7906
208.1801,69.7553
208.2155,69.7406
208.9155,69.7406
Z" /> 
<path style="fill:#B4A09A; fill-opacity:0.9000; stroke:none;fill-rule:evenodd;"
d="M 208.1655,69.3906
208.1693,69.3715
208.1801,69.3553
208.1964,69.3444
208.2155,69.3406
208.9155,69.3406
208.9346,69.3444
208.9508,69.3553
208.9617,69.3715
208.9655,69.3906
208.9655,69.4906
208.9617,69.5098
208.9508,69.5260
208.9346,69.5368
208.9155,69.5406
208.2155,69.5406
208.1964,69.5368
208.1801,69.5260
208.1693,69.5098
208.1655,69.4906
Z" /> 
<path style="fill:#B4A09A; fill-opacity:0.9000; stroke:none;fill-rule:evenodd;"
d="M 208.1655,68.9906
208.1693,68.9715
208.1801,68.9553
208.1964,68.9444
208.2155,68.9406
208.9155,68.9406
208.9346,68.9444
208.9508,68.9553
208.9617,68.9715
208.9655,68.9906
208.9655,69.0906
208.9617,69.1098
208.9508,69.1260
208.9346,69.1368
208.9155,69.1406
208.2155,69.1406
208.1964,69.1368
208.1801,69.1260
208.1693,69.1098
208.1655,69.0906
Z" /> 
<path style="fill:#B4A09A; fill-opacity:0.9000; stroke:none;fill-rule:evenodd;"
d="M 208.1655,68.5906
208.1693,68.5715
208.1801,68.5553
208.1964,68.5444
208.2155,68.5406
208.9155,68.5406
208.9346,68.5444
208.9508,68.5553
208.9617,68.5715
208.9655,68.5906
208.9655,68.6906
208.9617,68.7098
208.9508,68.7260
208.9346,68.7368
208.9155,68.7406
208.2155,68.7406
208.1964,68.7368
208.1801,68.7260
208.1693,68.7098
208.1655,68.6906
Z" /> 
<path style="fill:#B4A09A; fill-opacity:0.9000; stroke:none;fill-rule:evenodd;"
d="M 208.1655,68.1906
208.1693,68.1715
208.1801,68.1553
208.1964,68.1444
208.2155,68.1406
208.9155,68.1406
208.9346,68.1444
208.9508,68.1553
208.9617,68.1715
208.9655,68.1906
208.9655,68.2906
208.9617,68.3098
208.9508,68.3260
208.9346,68.3368
208.9155,68.3406
208.2155,68.3406
208.1964,68.3368
208.1801,68.3260
208.1693,68.3098
208.1655,68.2906
Z" /> 
<path style="fill:#B4A09A; fill-opacity:0.9000; stroke:none;fill-rule:evenodd;"
d="M 208.1655,67.7906
208.1693,67.7715
208.1801,67.7553
208.1964,67.7444
208.2155,67.7406
208.9155,67.7406
208.9346,67.7444
208.9508,67.7553
208.9617,67.7715
208.9655,67.7906
208.9655,67.8906
208.9617,67.9098
208.9508,67.9260
208.9346,67.9368
208.9155,67.9406
208.2155,67.9406
208.1964,67.9368
208.1801,67.9260
208.1693,67.9098
208.1655,67.8906
Z" /> 
<path style="fill:#B4A09A; fill-opacity:0.9000; stroke:none;fill-rule:evenodd;"
d="M 208.1655,67.3906
208.1693,67.3715
208.1801,67.3553
208.1964,67.3444
208.2155,67.3406
208.9155,67.3406
208.9346,67.3444
208.9508,67.3553
208.9617,67.3715
208.9655,67.3906
208.9655,67.4906
208.9617,67.5098
208.9508,67.5260
208.9346,67.5368
208.9155,67.5406
208.2155,67.5406
208.1964,67.5368
208.1801,67.5260
208.1693,67.5098
208.1655,67.4906
Z" /> 
<path style="fill:#B4A09A; fill-opacity:0.9000; stroke:none;fill-rule:evenodd;"
d="M 208.9508,66.9453
208.9655,66.9806
208.9655,67.0806
208.9508,67.1160
208.9155,67.1306
208.2155,67.1306
208.1801,67.1160
208.1655,67.0806
208.1655,67.0513
208.1801,67.0160
208.2508,66.9453
208.2862,66.9306
208.9155,66.9306
Z" /> 
<path style="fill:#B4A09A; fill-opacity:0.9000; stroke:none;fill-rule:evenodd;"
d="M 207.9628,65.9553
207.9775,65.9906
207.9775,66.6199
207.9628,66.6553
207.8921,66.7260
207.8568,66.7406
207.8275,66.7406
207.7921,66.7260
207.7775,66.6906
207.7775,65.9906
207.7921,65.9553
207.8275,65.9406
207.9275,65.9406
Z" /> 
<path style="fill:#B4A09A; fill-opacity:0.9000; stroke:none;fill-rule:evenodd;"
d="M 207.3655,65.9906
207.3693,65.9715
207.3801,65.9553
207.3964,65.9444
207.4155,65.9406
207.5155,65.9406
207.5346,65.9444
207.5508,65.9553
207.5617,65.9715
207.5655,65.9906
207.5655,66.6906
207.5617,66.7098
207.5508,66.7260
207.5346,66.7368
207.5155,66.7406
207.4155,66.7406
207.3964,66.7368
207.3801,66.7260
207.3693,66.7098
207.3655,66.6906
Z" /> 
<path style="fill:#B4A09A; fill-opacity:0.9000; stroke:none;fill-rule:evenodd;"
d="M 206.9655,65.9906
206.9693,65.9715
206.9801,65.9553
206.9964,65.9444
207.0155,65.9406
207.1155,65.9406
207.1346,65.9444
207.1508,65.9553
207.1617,65.9715
207.1655,65.9906
207.1655,66.6906
207.1617,66.7098
207.1508,66.7260
207.1346,66.7368
207.1155,66.7406
207.0155,66.7406
206.9964,66.7368
206.9801,66.7260
206.9693,66.7098
206.9655,66.6906
Z" /> 
<path style="fill:#B4A09A; fill-opacity:0.9000; stroke:none;fill-rule:evenodd;"
d="M 206.5655,65.9906
206.5693,65.9715
206.5801,65.9553
206.5964,65.9444
206.6155,65.9406
206.7155,65.9406
206.7346,65.9444
206.7508,65.9553
206.7617,65.9715
206.7655,65.9906
206.7655,66.6906
206.7617,66.7098
206.7508,66.7260
206.7346,66.7368
206.7155,66.7406
206.6155,66.7406
206.5964,66.7368
206.5801,66.7260
206.5693,66.7098
206.5655,66.6906
Z" /> 
<path style="fill:#B4A09A; fill-opacity:0.9000; stroke:none;fill-rule:evenodd;"
d="M 206.1655,65.9906
206.1693,65.9715
206.1801,65.9553
206.1964,65.9444
206.2155,65.9406
206.3155,65.9406
206.3346,65.9444
206.3508,65.9553
206.3617,65.9715
206.3655,65.9906
206.3655,66.6906
206.3617,66.7098
206.3508,66.7260
206.3346,66.7368
206.3155,66.7406
206.2155,66.7406
206.1964,66.7368
206.1801,66.7260
206.1693,66.7098
206.1655,66.6906
Z" /> 
<path style="fill:#B4A09A; fill-opacity:0.9000; stroke:none;fill-rule:evenodd;"
d="M 205.7655,65.9906
205.7693,65.9715
205.7801,65.9553
205.7964,65.9444
205.8155,65.9406
205.9155,65.9406
205.9346,65.9444
205.9508,65.9553
205.9617,65.9715
205.9655,65.9906
205.9655,66.6906
205.9617,66.7098
205.9508,66.7260
205.9346,66.7368
205.9155,66.7406
205.8155,66.7406
205.7964,66.7368
205.7801,66.7260
205.7693,66.7098
205.7655,66.6906
Z" /> 
<path style="fill:#B4A09A; fill-opacity:0.9000; stroke:none;fill-rule:evenodd;"
d="M 205.3655,65.9906
205.3693,65.9715
205.3801,65.9553
205.3964,65.9444
205.4155,65.9406
205.5155,65.9406
205.5346,65.9444
205.5508,65.9553
205.5617,65.9715
205.5655,65.9906
205.5655,66.6906
205.5617,66.7098
205.5508,66.7260
205.5346,66.7368
205.5155,66.7406
205.4155,66.7406
205.3964,66.7368
205.3801,66.7260
205.3693,66.7098
205.3655,66.6906
Z" /> 
<path style="fill:#B4A09A; fill-opacity:0.9000; stroke:none;fill-rule:evenodd;"
d="M 205.1378,65.9553
205.1525,65.9906
205.1525,66.6906
205.1378,66.7260
205.1025,66.7406
205.0732,66.7406
205.0378,66.7260
204.9671,66.6553
204.9525,66.6199
204.9525,65.9906
204.9671,65.9553
205.0025,65.9406
205.1025,65.9406
Z" /> 
<path style="fill:#B4A09A; fill-opacity:0.9000; stroke:none;fill-rule:evenodd;"
d="M 213.1825,69.5486
213.1289,69.5380
213.0835,69.5076
213.0531,69.4622
213.0425,69.4086
213.0425,69.1286
213.0531,69.0750
213.0835,69.0296
213.1289,68.9993
213.1825,68.9886
213.5225,68.9886
213.5761,68.9993
213.6215,69.0296
213.6518,69.0750
213.6625,69.1286
213.6625,69.4086
213.6518,69.4622
213.6215,69.5076
213.5761,69.5380
213.5225,69.5486
Z" /> 
<path style="fill:#B4A09A; fill-opacity:0.9000; stroke:none;fill-rule:evenodd;"
d="M 213.1825,68.5886
213.1289,68.5780
213.0835,68.5476
213.0531,68.5022
213.0425,68.4486
213.0425,68.1686
213.0531,68.1150
213.0835,68.0696
213.1289,68.0393
213.1825,68.0286
213.5225,68.0286
213.5761,68.0393
213.6215,68.0696
213.6518,68.1150
213.6625,68.1686
213.6625,68.4486
213.6518,68.5022
213.6215,68.5476
213.5761,68.5780
213.5225,68.5886
Z" /> 
<path style="fill:#B4A09A; fill-opacity:0.9000; stroke:none;fill-rule:evenodd;"
d="M 195.7935,65.5600
195.7696,65.5552
195.7493,65.5417
195.7358,65.5214
195.7310,65.4975
195.7310,65.2625
195.7358,65.2386
195.7493,65.2183
195.7696,65.2048
195.7935,65.2000
195.9185,65.2000
195.9424,65.2048
195.9627,65.2183
195.9762,65.2386
195.9810,65.2625
195.9810,65.4975
195.9762,65.5214
195.9627,65.5417
195.9424,65.5552
195.9185,65.5600
Z" /> 
<path style="fill:#B4A09A; fill-opacity:0.9000; stroke:none;fill-rule:evenodd;"
d="M 195.7935,66.4000
195.7696,66.3952
195.7493,66.3817
195.7358,66.3614
195.7310,66.3375
195.7310,66.1025
195.7358,66.0786
195.7493,66.0583
195.7696,66.0448
195.7935,66.0400
195.9185,66.0400
195.9424,66.0448
195.9627,66.0583
195.9762,66.0786
195.9810,66.1025
195.9810,66.3375
195.9762,66.3614
195.9627,66.3817
195.9424,66.3952
195.9185,66.4000
Z" /> 
<path style="fill:#B4A09A; fill-opacity:0.9000; stroke:none;fill-rule:evenodd;"
d="M 199.1418,91.7350
199.1524,91.6814
199.1828,91.6360
199.2282,91.6057
199.2817,91.5950
199.5617,91.5950
199.6153,91.6057
199.6607,91.6360
199.6911,91.6814
199.7018,91.7350
199.7018,92.0750
199.6911,92.1286
199.6607,92.1740
199.6153,92.2043
199.5617,92.2150
199.2817,92.2150
199.2282,92.2043
199.1828,92.1740
199.1524,92.1286
199.1418,92.0750
Z" /> 
<path style="fill:#B4A09A; fill-opacity:0.9000; stroke:none;fill-rule:evenodd;"
d="M 200.1017,91.7350
200.1124,91.6814
200.1428,91.6360
200.1882,91.6057
200.2417,91.5950
200.5217,91.5950
200.5753,91.6057
200.6207,91.6360
200.6511,91.6814
200.6617,91.7350
200.6617,92.0750
200.6511,92.1286
200.6207,92.1740
200.5753,92.2043
200.5217,92.2150
200.2417,92.2150
200.1882,92.2043
200.1428,92.1740
200.1124,92.1286
200.1017,92.0750
Z" /> 
<path style="fill:#B4A09A; fill-opacity:0.9000; stroke:none;fill-rule:evenodd;"
d="M 202.6850,80.3450
202.6736,80.4024
202.6411,80.4511
202.5924,80.4836
202.5350,80.4950
201.5100,80.4950
201.4526,80.4836
201.4039,80.4511
201.3714,80.4024
201.3600,80.3450
201.3600,80.0450
201.3714,79.9876
201.4039,79.9389
201.4526,79.9064
201.5100,79.8950
202.5350,79.8950
202.5924,79.9064
202.6411,79.9389
202.6736,79.9876
202.6850,80.0450
Z" /> 
<path style="fill:#B4A09A; fill-opacity:0.9000; stroke:none;fill-rule:evenodd;"
d="M 202.6850,79.3950
202.6736,79.4524
202.6411,79.5011
202.5924,79.5336
202.5350,79.5450
201.5100,79.5450
201.4526,79.5336
201.4039,79.5011
201.3714,79.4524
201.3600,79.3950
201.3600,79.0950
201.3714,79.0376
201.4039,78.9889
201.4526,78.9564
201.5100,78.9450
202.5350,78.9450
202.5924,78.9564
202.6411,78.9889
202.6736,79.0376
202.6850,79.0950
Z" /> 
<path style="fill:#B4A09A; fill-opacity:0.9000; stroke:none;fill-rule:evenodd;"
d="M 202.6850,78.4450
202.6736,78.5024
202.6411,78.5511
202.5924,78.5836
202.5350,78.5950
201.5100,78.5950
201.4526,78.5836
201.4039,78.5511
201.3714,78.5024
201.3600,78.4450
201.3600,78.1450
201.3714,78.0876
201.4039,78.0389
201.4526,78.0064
201.5100,77.9950
202.5350,77.9950
202.5924,78.0064
202.6411,78.0389
202.6736,78.0876
202.6850,78.1450
Z" /> 
<path style="fill:#B4A09A; fill-opacity:0.9000; stroke:none;fill-rule:evenodd;"
d="M 200.4100,78.4450
200.3986,78.5024
200.3661,78.5511
200.3174,78.5836
200.2600,78.5950
199.2350,78.5950
199.1776,78.5836
199.1289,78.5511
199.0964,78.5024
199.0850,78.4450
199.0850,78.1450
199.0964,78.0876
199.1289,78.0389
199.1776,78.0064
199.2350,77.9950
200.2600,77.9950
200.3174,78.0064
200.3661,78.0389
200.3986,78.0876
200.4100,78.1450
Z" /> 
<path style="fill:#B4A09A; fill-opacity:0.9000; stroke:none;fill-rule:evenodd;"
d="M 200.4100,79.3950
200.3986,79.4524
200.3661,79.5011
200.3174,79.5336
200.2600,79.5450
199.2350,79.5450
199.1776,79.5336
199.1289,79.5011
199.0964,79.4524
199.0850,79.3950
199.0850,79.0950
199.0964,79.0376
199.1289,78.9889
199.1776,78.9564
199.2350,78.9450
200.2600,78.9450
200.3174,78.9564
200.3661,78.9889
200.3986,79.0376
200.4100,79.0950
Z" /> 
<path style="fill:#B4A09A; fill-opacity:0.9000; stroke:none;fill-rule:evenodd;"
d="M 200.4100,80.3450
200.3986,80.4024
200.3661,80.4511
200.3174,80.4836
200.2600,80.4950
199.2350,80.4950
199.1776,80.4836
199.1289,80.4511
199.0964,80.4024
199.0850,80.3450
199.0850,80.0450
199.0964,79.9876
199.1289,79.9389
199.1776,79.9064
199.2350,79.8950
200.2600,79.8950
200.3174,79.9064
200.3661,79.9389
200.3986,79.9876
200.4100,80.0450
Z" /> 
<path style="fill:#B4A09A; fill-opacity:0.9000; stroke:none;fill-rule:evenodd;"
d="M 200.0175,55.0900
200.0414,55.0948
200.0617,55.1083
200.0752,55.1286
200.0800,55.1525
200.0800,55.3875
200.0752,55.4114
200.0617,55.4317
200.0414,55.4452
200.0175,55.4500
199.8925,55.4500
199.8686,55.4452
199.8483,55.4317
199.8348,55.4114
199.8300,55.3875
199.8300,55.1525
199.8348,55.1286
199.8483,55.1083
199.8686,55.0948
199.8925,55.0900
Z" /> 
<path style="fill:#B4A09A; fill-opacity:0.9000; stroke:none;fill-rule:evenodd;"
d="M 200.0175,54.2500
200.0414,54.2548
200.0617,54.2683
200.0752,54.2886
200.0800,54.3125
200.0800,54.5475
200.0752,54.5714
200.0617,54.5917
200.0414,54.6052
200.0175,54.6100
199.8925,54.6100
199.8686,54.6052
199.8483,54.5917
199.8348,54.5714
199.8300,54.5475
199.8300,54.3125
199.8348,54.2886
199.8483,54.2683
199.8686,54.2548
199.8925,54.2500
Z" /> 
<path style="fill:#B4A09A; fill-opacity:0.9000; stroke:none;fill-rule:evenodd;"
d="M 206.9130,54.4000
206.9206,54.3617
206.9423,54.3293
206.9747,54.3076
207.0130,54.3000
207.5630,54.3000
207.6013,54.3076
207.6337,54.3293
207.6554,54.3617
207.6630,54.4000
207.6630,54.6000
207.6554,54.6383
207.6337,54.6707
207.6013,54.6924
207.5630,54.7000
207.0130,54.7000
206.9747,54.6924
206.9423,54.6707
206.9206,54.6383
206.9130,54.6000
Z" /> 
<path style="fill:#B4A09A; fill-opacity:0.9000; stroke:none;fill-rule:evenodd;"
d="M 206.9130,55.0500
206.9206,55.0117
206.9423,54.9793
206.9747,54.9576
207.0130,54.9500
207.5630,54.9500
207.6013,54.9576
207.6337,54.9793
207.6554,55.0117
207.6630,55.0500
207.6630,55.2500
207.6554,55.2883
207.6337,55.3207
207.6013,55.3424
207.5630,55.3500
207.0130,55.3500
206.9747,55.3424
206.9423,55.3207
206.9206,55.2883
206.9130,55.2500
Z" /> 
<path style="fill:#B4A09A; fill-opacity:0.9000; stroke:none;fill-rule:evenodd;"
d="M 206.9130,55.7000
206.9206,55.6617
206.9423,55.6293
206.9747,55.6076
207.0130,55.6000
207.5630,55.6000
207.6013,55.6076
207.6337,55.6293
207.6554,55.6617
207.6630,55.7000
207.6630,55.9000
207.6554,55.9383
207.6337,55.9707
207.6013,55.9924
207.5630,56.0000
207.0130,56.0000
206.9747,55.9924
206.9423,55.9707
206.9206,55.9383
206.9130,55.9000
Z" /> 
<path style="fill:#B4A09A; fill-opacity:0.9000; stroke:none;fill-rule:evenodd;"
d="M 208.8130,55.7000
208.8206,55.6617
208.8423,55.6293
208.8747,55.6076
208.9130,55.6000
209.4630,55.6000
209.5013,55.6076
209.5337,55.6293
209.5554,55.6617
209.5630,55.7000
209.5630,55.9000
209.5554,55.9383
209.5337,55.9707
209.5013,55.9924
209.4630,56.0000
208.9130,56.0000
208.8747,55.9924
208.8423,55.9707
208.8206,55.9383
208.8130,55.9000
Z" /> 
<path style="fill:#B4A09A; fill-opacity:0.9000; stroke:none;fill-rule:evenodd;"
d="M 208.8130,55.0500
208.8206,55.0117
208.8423,54.9793
208.8747,54.9576
208.9130,54.9500
209.4630,54.9500
209.5013,54.9576
209.5337,54.9793
209.5554,55.0117
209.5630,55.0500
209.5630,55.2500
209.5554,55.2883
209.5337,55.3207
209.5013,55.3424
209.4630,55.3500
208.9130,55.3500
208.8747,55.3424
208.8423,55.3207
208.8206,55.2883
208.8130,55.2500
Z" /> 
<path style="fill:#B4A09A; fill-opacity:0.9000; stroke:none;fill-rule:evenodd;"
d="M 208.8130,54.4000
208.8206,54.3617
208.8423,54.3293
208.8747,54.3076
208.9130,54.3000
209.4630,54.3000
209.5013,54.3076
209.5337,54.3293
209.5554,54.3617
209.5630,54.4000
209.5630,54.6000
209.5554,54.6383
209.5337,54.6707
209.5013,54.6924
209.4630,54.7000
208.9130,54.7000
208.8747,54.6924
208.8423,54.6707
208.8206,54.6383
208.8130,54.6000
Z" /> 
<path style="fill:#B4A09A; fill-opacity:0.9000; stroke:none;fill-rule:evenodd;"
d="M 202.7545,66.4306
202.7438,66.4842
202.7135,66.5296
202.6681,66.5600
202.6145,66.5706
202.3345,66.5706
202.2809,66.5600
202.2355,66.5296
202.2051,66.4842
202.1945,66.4306
202.1945,66.0906
202.2051,66.0370
202.2355,65.9916
202.2809,65.9613
202.3345,65.9506
202.6145,65.9506
202.6681,65.9613
202.7135,65.9916
202.7438,66.0370
202.7545,66.0906
Z" /> 
<path style="fill:#B4A09A; fill-opacity:0.9000; stroke:none;fill-rule:evenodd;"
d="M 201.7945,66.4306
201.7838,66.4842
201.7535,66.5296
201.7081,66.5600
201.6545,66.5706
201.3745,66.5706
201.3209,66.5600
201.2755,66.5296
201.2451,66.4842
201.2345,66.4306
201.2345,66.0906
201.2451,66.0370
201.2755,65.9916
201.3209,65.9613
201.3745,65.9506
201.6545,65.9506
201.7081,65.9613
201.7535,65.9916
201.7838,66.0370
201.7945,66.0906
Z" /> 
<path style="fill:#B4A09A; fill-opacity:0.9000; stroke:none;fill-rule:evenodd;"
d="M 206.7138,89.1250
207.1137,89.1250
207.1137,89.4950
206.7138,89.4950
Z" /> 
<path style="fill:#B4A09A; fill-opacity:0.9000; stroke:none;fill-rule:evenodd;"
d="M 206.0637,89.1250
206.4638,89.1250
206.4638,89.4950
206.0637,89.4950
Z" /> 
<path style="fill:#B4A09A; fill-opacity:0.9000; stroke:none;fill-rule:evenodd;"
d="M 205.4137,89.1250
205.8137,89.1250
205.8137,89.6000
205.4137,89.6000
Z" /> 
<path style="fill:#B4A09A; fill-opacity:0.9000; stroke:none;fill-rule:evenodd;"
d="M 205.4137,90.9500
205.8137,90.9500
205.8137,91.4250
205.4137,91.4250
Z" /> 
<path style="fill:#B4A09A; fill-opacity:0.9000; stroke:none;fill-rule:evenodd;"
d="M 206.0637,91.0550
206.4638,91.0550
206.4638,91.4250
206.0637,91.4250
Z" /> 
<path style="fill:#B4A09A; fill-opacity:0.9000; stroke:none;fill-rule:evenodd;"
d="M 206.7138,91.0550
207.1137,91.0550
207.1137,91.4250
206.7138,91.4250
Z" /> 
<path style="fill:#B4A09A; fill-opacity:0.9000; stroke:none;fill-rule:evenodd;"
d="M 206.0637,89.4950
207.1137,89.4950
207.1137,91.0550
206.0637,91.0550
Z" /> 
<path style="fill:#B4A09A; fill-opacity:0.9000; stroke:none;fill-rule:evenodd;"
d="M 205.4137,89.9450
205.8137,89.9450
205.8137,90.6050
205.4137,90.6050
Z" /> 
<path style="fill:#B4A09A; fill-opacity:0.9000; stroke:none;fill-rule:evenodd;"
d="M 206.3420,83.2950
206.4281,83.3121
206.5011,83.3609
206.5499,83.4339
206.5670,83.5200
206.5670,83.9700
206.5499,84.0561
206.5011,84.1291
206.4281,84.1779
206.3420,84.1950
205.8420,84.1950
205.7559,84.1779
205.6829,84.1291
205.6341,84.0561
205.6170,83.9700
205.6170,83.5200
205.6341,83.4339
205.6829,83.3609
205.7559,83.3121
205.8420,83.2950
Z" /> 
<path style="fill:#B4A09A; fill-opacity:0.9000; stroke:none;fill-rule:evenodd;"
d="M 206.3420,84.8450
206.4281,84.8621
206.5011,84.9109
206.5499,84.9839
206.5670,85.0700
206.5670,85.5200
206.5499,85.6061
206.5011,85.6791
206.4281,85.7279
206.3420,85.7450
205.8420,85.7450
205.7559,85.7279
205.6829,85.6791
205.6341,85.6061
205.6170,85.5200
205.6170,85.0700
205.6341,84.9839
205.6829,84.9109
205.7559,84.8621
205.8420,84.8450
Z" /> 
<path style="fill:#B4A09A; fill-opacity:0.9000; stroke:none;fill-rule:evenodd;"
d="M 205.6225,63.7856
205.6741,63.7959
205.7179,63.8252
205.7472,63.8690
205.7575,63.9206
205.7575,64.1906
205.7472,64.2423
205.7179,64.2861
205.6741,64.3153
205.6225,64.3256
205.2525,64.3256
205.2008,64.3153
205.1570,64.2861
205.1278,64.2423
205.1175,64.1906
205.1175,63.9206
205.1278,63.8690
205.1570,63.8252
205.2008,63.7959
205.2525,63.7856
Z" /> 
<path style="fill:#B4A09A; fill-opacity:0.9000; stroke:none;fill-rule:evenodd;"
d="M 205.6225,64.8056
205.6741,64.8159
205.7179,64.8452
205.7472,64.8890
205.7575,64.9406
205.7575,65.2106
205.7472,65.2623
205.7179,65.3061
205.6741,65.3353
205.6225,65.3456
205.2525,65.3456
205.2008,65.3353
205.1570,65.3061
205.1278,65.2623
205.1175,65.2106
205.1175,64.9406
205.1278,64.8890
205.1570,64.8452
205.2008,64.8159
205.2525,64.8056
Z" /> 
<path style="fill:#B4A09A; fill-opacity:0.9000; stroke:none;fill-rule:evenodd;"
d="M 201.3395,64.7656
201.3547,64.6891
201.3981,64.6242
201.4629,64.5808
201.5395,64.5656
201.9395,64.5656
202.0160,64.5808
202.0809,64.6242
202.1243,64.6891
202.1395,64.7656
202.1395,65.3156
202.1243,65.3922
202.0809,65.4570
202.0160,65.5004
201.9395,65.5156
201.5395,65.5156
201.4629,65.5004
201.3981,65.4570
201.3547,65.3922
201.3395,65.3156
Z" /> 
<path style="fill:#B4A09A; fill-opacity:0.9000; stroke:none;fill-rule:evenodd;"
d="M 202.9895,64.7656
203.0047,64.6891
203.0481,64.6242
203.1129,64.5808
203.1895,64.5656
203.5895,64.5656
203.6660,64.5808
203.7309,64.6242
203.7743,64.6891
203.7895,64.7656
203.7895,65.3156
203.7743,65.3922
203.7309,65.4570
203.6660,65.5004
203.5895,65.5156
203.1895,65.5156
203.1129,65.5004
203.0481,65.4570
203.0047,65.3922
202.9895,65.3156
Z" /> 
<path style="fill:#B4A09A; fill-opacity:0.9000; stroke:none;fill-rule:evenodd;"
d="M 215.7250,50.1150
215.7357,50.0614
215.7660,50.0160
215.8114,49.9857
215.8650,49.9750
216.1450,49.9750
216.1986,49.9857
216.2440,50.0160
216.2743,50.0614
216.2850,50.1150
216.2850,50.4550
216.2743,50.5086
216.2440,50.5540
216.1986,50.5843
216.1450,50.5950
215.8650,50.5950
215.8114,50.5843
215.7660,50.5540
215.7357,50.5086
215.7250,50.4550
Z" /> 
<path style="fill:#B4A09A; fill-opacity:0.9000; stroke:none;fill-rule:evenodd;"
d="M 216.6850,50.1150
216.6957,50.0614
216.7260,50.0160
216.7714,49.9857
216.8250,49.9750
217.1050,49.9750
217.1586,49.9857
217.2040,50.0160
217.2343,50.0614
217.2450,50.1150
217.2450,50.4550
217.2343,50.5086
217.2040,50.5540
217.1586,50.5843
217.1050,50.5950
216.8250,50.5950
216.7714,50.5843
216.7260,50.5540
216.6957,50.5086
216.6850,50.4550
Z" /> 
<path style="fill:#B4A09A; fill-opacity:0.9000; stroke:none;fill-rule:evenodd;"
d="M 208.1850,80.4800
208.1953,80.4283
208.2245,80.3845
208.2683,80.3553
208.3200,80.3450
208.5900,80.3450
208.6417,80.3553
208.6855,80.3845
208.7147,80.4283
208.7250,80.4800
208.7250,80.8500
208.7147,80.9017
208.6855,80.9455
208.6417,80.9747
208.5900,80.9850
208.3200,80.9850
208.2683,80.9747
208.2245,80.9455
208.1953,80.9017
208.1850,80.8500
Z" /> 
<path style="fill:#B4A09A; fill-opacity:0.9000; stroke:none;fill-rule:evenodd;"
d="M 209.2050,80.4800
209.2153,80.4283
209.2445,80.3845
209.2883,80.3553
209.3400,80.3450
209.6100,80.3450
209.6617,80.3553
209.7055,80.3845
209.7347,80.4283
209.7450,80.4800
209.7450,80.8500
209.7347,80.9017
209.7055,80.9455
209.6617,80.9747
209.6100,80.9850
209.3400,80.9850
209.2883,80.9747
209.2445,80.9455
209.2153,80.9017
209.2050,80.8500
Z" /> 
<path style="fill:#B4A09A; fill-opacity:0.9000; stroke:none;fill-rule:evenodd;"
d="M 210.7770,84.2050
210.7770,87.6050
209.7970,87.6050
209.7970,84.2050
Z" /> 
<path style="fill:#B4A09A; fill-opacity:0.9000; stroke:none;fill-rule:evenodd;"
d="M 208.4070,84.2050
208.4070,87.6050
207.4270,87.6050
207.4270,84.2050
Z" /> 
<path style="fill:#B4A09A; fill-opacity:0.9000; stroke:none;fill-rule:evenodd;"
d="M 218.6150,64.0720
218.5633,64.0617
218.5195,64.0325
218.4903,63.9887
218.4800,63.9370
218.4800,63.6670
218.4903,63.6153
218.5195,63.5715
218.5633,63.5423
218.6150,63.5320
218.9850,63.5320
219.0367,63.5423
219.0805,63.5715
219.1097,63.6153
219.1200,63.6670
219.1200,63.9370
219.1097,63.9887
219.0805,64.0325
219.0367,64.0617
218.9850,64.0720
Z" /> 
<path style="fill:#B4A09A; fill-opacity:0.9000; stroke:none;fill-rule:evenodd;"
d="M 218.6150,63.0520
218.5633,63.0417
218.5195,63.0125
218.4903,62.9687
218.4800,62.9170
218.4800,62.6470
218.4903,62.5953
218.5195,62.5515
218.5633,62.5223
218.6150,62.5120
218.9850,62.5120
219.0367,62.5223
219.0805,62.5515
219.1097,62.5953
219.1200,62.6470
219.1200,62.9170
219.1097,62.9687
219.0805,63.0125
219.0367,63.0417
218.9850,63.0520
Z" /> 
<path style="fill:#B4A09A; fill-opacity:0.9000; stroke:none;fill-rule:evenodd;"
d="M 218.9800,53.7850
219.0317,53.7953
219.0755,53.8245
219.1047,53.8683
219.1150,53.9200
219.1150,54.1900
219.1047,54.2417
219.0755,54.2855
219.0317,54.3147
218.9800,54.3250
218.6100,54.3250
218.5583,54.3147
218.5145,54.2855
218.4853,54.2417
218.4750,54.1900
218.4750,53.9200
218.4853,53.8683
218.5145,53.8245
218.5583,53.7953
218.6100,53.7850
Z" /> 
<path style="fill:#B4A09A; fill-opacity:0.9000; stroke:none;fill-rule:evenodd;"
d="M 218.9800,54.8050
219.0317,54.8153
219.0755,54.8445
219.1047,54.8883
219.1150,54.9400
219.1150,55.2100
219.1047,55.2617
219.0755,55.3055
219.0317,55.3347
218.9800,55.3450
218.6100,55.3450
218.5583,55.3347
218.5145,55.3055
218.4853,55.2617
218.4750,55.2100
218.4750,54.9400
218.4853,54.8883
218.5145,54.8445
218.5583,54.8153
218.6100,54.8050
Z" /> 
<path style="fill:#B4A09A; fill-opacity:0.9000; stroke:none;fill-rule:evenodd;"
d="M 196.3650,69.1580
196.3133,69.1477
196.2695,69.1185
196.2403,69.0747
196.2300,69.0230
196.2300,68.7530
196.2403,68.7013
196.2695,68.6575
196.3133,68.6283
196.3650,68.6180
196.7350,68.6180
196.7867,68.6283
196.8305,68.6575
196.8597,68.7013
196.8700,68.7530
196.8700,69.0230
196.8597,69.0747
196.8305,69.1185
196.7867,69.1477
196.7350,69.1580
Z" /> 
<path style="fill:#B4A09A; fill-opacity:0.9000; stroke:none;fill-rule:evenodd;"
d="M 196.3650,68.1380
196.3133,68.1277
196.2695,68.0985
196.2403,68.0547
196.2300,68.0030
196.2300,67.7330
196.2403,67.6813
196.2695,67.6375
196.3133,67.6083
196.3650,67.5980
196.7350,67.5980
196.7867,67.6083
196.8305,67.6375
196.8597,67.6813
196.8700,67.7330
196.8700,68.0030
196.8597,68.0547
196.8305,68.0985
196.7867,68.1277
196.7350,68.1380
Z" /> 
<path style="fill:#B4A09A; fill-opacity:0.9000; stroke:none;fill-rule:evenodd;"
d="M 202.7850,67.4000
202.7747,67.4517
202.7455,67.4955
202.7017,67.5247
202.6500,67.5350
202.3800,67.5350
202.3283,67.5247
202.2845,67.4955
202.2553,67.4517
202.2450,67.4000
202.2450,67.0300
202.2553,66.9783
202.2845,66.9345
202.3283,66.9053
202.3800,66.8950
202.6500,66.8950
202.7017,66.9053
202.7455,66.9345
202.7747,66.9783
202.7850,67.0300
Z" /> 
<path style="fill:#B4A09A; fill-opacity:0.9000; stroke:none;fill-rule:evenodd;"
d="M 201.7650,67.4000
201.7547,67.4517
201.7255,67.4955
201.6817,67.5247
201.6300,67.5350
201.3600,67.5350
201.3083,67.5247
201.2645,67.4955
201.2353,67.4517
201.2250,67.4000
201.2250,67.0300
201.2353,66.9783
201.2645,66.9345
201.3083,66.9053
201.3600,66.8950
201.6300,66.8950
201.6817,66.9053
201.7255,66.9345
201.7547,66.9783
201.7650,67.0300
Z" /> 
<path style="fill:#B4A09A; fill-opacity:0.9000; stroke:none;fill-rule:evenodd;"
d="M 214.1050,54.1150
214.0572,54.1055
214.0166,54.0784
213.9895,54.0378
213.9800,53.9900
213.9800,53.0150
213.9895,52.9672
214.0166,52.9266
214.0572,52.8995
214.1050,52.8900
214.3550,52.8900
214.4028,52.8995
214.4434,52.9266
214.4705,52.9672
214.4800,53.0150
214.4800,53.9900
214.4705,54.0378
214.4434,54.0784
214.4028,54.1055
214.3550,54.1150
Z" /> 
<path style="fill:#B4A09A; fill-opacity:0.9000; stroke:none;fill-rule:evenodd;"
d="M 215.4050,54.1150
215.3572,54.1055
215.3166,54.0784
215.2895,54.0378
215.2800,53.9900
215.2800,53.0150
215.2895,52.9672
215.3166,52.9266
215.3572,52.8995
215.4050,52.8900
215.6550,52.8900
215.7028,52.8995
215.7434,52.9266
215.7705,52.9672
215.7800,53.0150
215.7800,53.9900
215.7705,54.0378
215.7434,54.0784
215.7028,54.1055
215.6550,54.1150
Z" /> 
<path style="fill:#B4A09A; fill-opacity:0.9000; stroke:none;fill-rule:evenodd;"
d="M 214.7550,52.2400
214.7072,52.2305
214.6666,52.2034
214.6395,52.1628
214.6300,52.1150
214.6300,51.1400
214.6395,51.0922
214.6666,51.0516
214.7072,51.0245
214.7550,51.0150
215.0050,51.0150
215.0528,51.0245
215.0934,51.0516
215.1205,51.0922
215.1300,51.1400
215.1300,52.1150
215.1205,52.1628
215.0934,52.2034
215.0528,52.2305
215.0050,52.2400
Z" /> 
<path style="fill:#B4A09A; fill-opacity:0.9000; stroke:none;fill-rule:evenodd;"
d="M 200.5480,52.0750
200.5583,52.0233
200.5875,51.9795
200.6313,51.9503
200.6830,51.9400
200.9530,51.9400
201.0047,51.9503
201.0485,51.9795
201.0777,52.0233
201.0880,52.0750
201.0880,52.4450
201.0777,52.4967
201.0485,52.5405
201.0047,52.5697
200.9530,52.5800
200.6830,52.5800
200.6313,52.5697
200.5875,52.5405
200.5583,52.4967
200.5480,52.4450
Z" /> 
<path style="fill:#B4A09A; fill-opacity:0.9000; stroke:none;fill-rule:evenodd;"
d="M 201.5680,52.0750
201.5783,52.0233
201.6075,51.9795
201.6513,51.9503
201.7030,51.9400
201.9730,51.9400
202.0247,51.9503
202.0685,51.9795
202.0977,52.0233
202.1080,52.0750
202.1080,52.4450
202.0977,52.4967
202.0685,52.5405
202.0247,52.5697
201.9730,52.5800
201.7030,52.5800
201.6513,52.5697
201.6075,52.5405
201.5783,52.4967
201.5680,52.4450
Z" /> 
<path style="fill:#B4A09A; fill-opacity:0.9000; stroke:none;fill-rule:evenodd;"
d="M 200.5050,77.2350
200.4943,77.2886
200.4640,77.3340
200.4186,77.3643
200.3650,77.3750
200.0850,77.3750
200.0314,77.3643
199.9860,77.3340
199.9557,77.2886
199.9450,77.2350
199.9450,76.8950
199.9557,76.8414
199.9860,76.7960
200.0314,76.7657
200.0850,76.7550
200.3650,76.7550
200.4186,76.7657
200.4640,76.7960
200.4943,76.8414
200.5050,76.8950
Z" /> 
<path style="fill:#B4A09A; fill-opacity:0.9000; stroke:none;fill-rule:evenodd;"
d="M 199.5450,77.2350
199.5343,77.2886
199.5040,77.3340
199.4586,77.3643
199.4050,77.3750
199.1250,77.3750
199.0714,77.3643
199.0260,77.3340
198.9957,77.2886
198.9850,77.2350
198.9850,76.8950
198.9957,76.8414
199.0260,76.7960
199.0714,76.7657
199.1250,76.7550
199.4050,76.7550
199.4586,76.7657
199.5040,76.7960
199.5343,76.8414
199.5450,76.8950
Z" /> 
<path style="fill:#B4A09A; fill-opacity:0.9000; stroke:none;fill-rule:evenodd;"
d="M 206.3175,75.5556
206.3004,75.6417
206.2516,75.7147
206.1786,75.7635
206.0925,75.7806
205.6425,75.7806
205.5564,75.7635
205.4834,75.7147
205.4346,75.6417
205.4175,75.5556
205.4175,75.0556
205.4346,74.9695
205.4834,74.8965
205.5564,74.8477
205.6425,74.8306
206.0925,74.8306
206.1786,74.8477
206.2516,74.8965
206.3004,74.9695
206.3175,75.0556
Z" /> 
<path style="fill:#B4A09A; fill-opacity:0.9000; stroke:none;fill-rule:evenodd;"
d="M 204.7675,75.5556
204.7504,75.6417
204.7016,75.7147
204.6286,75.7635
204.5425,75.7806
204.0925,75.7806
204.0064,75.7635
203.9334,75.7147
203.8846,75.6417
203.8675,75.5556
203.8675,75.0556
203.8846,74.9695
203.9334,74.8965
204.0064,74.8477
204.0925,74.8306
204.5425,74.8306
204.6286,74.8477
204.7016,74.8965
204.7504,74.9695
204.7675,75.0556
Z" /> 
<path style="fill:#B4A09A; fill-opacity:0.9000; stroke:none;fill-rule:evenodd;"
d="M 217.5250,60.6780
217.5767,60.6883
217.6205,60.7175
217.6497,60.7613
217.6600,60.8130
217.6600,61.0830
217.6497,61.1347
217.6205,61.1785
217.5767,61.2077
217.5250,61.2180
217.1550,61.2180
217.1033,61.2077
217.0595,61.1785
217.0303,61.1347
217.0200,61.0830
217.0200,60.8130
217.0303,60.7613
217.0595,60.7175
217.1033,60.6883
217.1550,60.6780
Z" /> 
<path style="fill:#B4A09A; fill-opacity:0.9000; stroke:none;fill-rule:evenodd;"
d="M 217.5250,61.6980
217.5767,61.7083
217.6205,61.7375
217.6497,61.7813
217.6600,61.8330
217.6600,62.1030
217.6497,62.1547
217.6205,62.1985
217.5767,62.2277
217.5250,62.2380
217.1550,62.2380
217.1033,62.2277
217.0595,62.1985
217.0303,62.1547
217.0200,62.1030
217.0200,61.8330
217.0303,61.7813
217.0595,61.7375
217.1033,61.7083
217.1550,61.6980
Z" /> 
<path style="fill:#B4A09A; fill-opacity:0.9000; stroke:none;fill-rule:evenodd;"
d="M 200.5950,54.5050
200.5950,54.1050
200.9650,54.1050
200.9650,54.5050
Z" /> 
<path style="fill:#B4A09A; fill-opacity:0.9000; stroke:none;fill-rule:evenodd;"
d="M 200.5950,55.1550
200.5950,54.7550
200.9650,54.7550
200.9650,55.1550
Z" /> 
<path style="fill:#B4A09A; fill-opacity:0.9000; stroke:none;fill-rule:evenodd;"
d="M 200.5950,55.8050
200.5950,55.4050
201.0700,55.4050
201.0700,55.8050
Z" /> 
<path style="fill:#B4A09A; fill-opacity:0.9000; stroke:none;fill-rule:evenodd;"
d="M 202.4200,55.8050
202.4200,55.4050
202.8950,55.4050
202.8950,55.8050
Z" /> 
<path style="fill:#B4A09A; fill-opacity:0.9000; stroke:none;fill-rule:evenodd;"
d="M 202.5250,55.1550
202.5250,54.7550
202.8950,54.7550
202.8950,55.1550
Z" /> 
<path style="fill:#B4A09A; fill-opacity:0.9000; stroke:none;fill-rule:evenodd;"
d="M 202.5250,54.5050
202.5250,54.1050
202.8950,54.1050
202.8950,54.5050
Z" /> 
<path style="fill:#B4A09A; fill-opacity:0.9000; stroke:none;fill-rule:evenodd;"
d="M 200.9650,55.1550
200.9650,54.1050
202.5250,54.1050
202.5250,55.1550
Z" /> 
<path style="fill:#B4A09A; fill-opacity:0.9000; stroke:none;fill-rule:evenodd;"
d="M 201.4150,55.8050
201.4150,55.4050
202.0750,55.4050
202.0750,55.8050
Z" /> 
<path style="fill:#B4A09A; fill-opacity:0.9000; stroke:none;fill-rule:evenodd;"
d="M 210.1475,68.7186
210.1646,68.6325
210.2134,68.5595
210.2864,68.5107
210.3725,68.4936
210.8225,68.4936
210.9086,68.5107
210.9816,68.5595
211.0304,68.6325
211.0475,68.7186
211.0475,69.2186
211.0304,69.3047
210.9816,69.3777
210.9086,69.4265
210.8225,69.4436
210.3725,69.4436
210.2864,69.4265
210.2134,69.3777
210.1646,69.3047
210.1475,69.2186
Z" /> 
<path style="fill:#B4A09A; fill-opacity:0.9000; stroke:none;fill-rule:evenodd;"
d="M 211.6975,68.7186
211.7146,68.6325
211.7634,68.5595
211.8364,68.5107
211.9225,68.4936
212.3725,68.4936
212.4586,68.5107
212.5316,68.5595
212.5804,68.6325
212.5975,68.7186
212.5975,69.2186
212.5804,69.3047
212.5316,69.3777
212.4586,69.4265
212.3725,69.4436
211.9225,69.4436
211.8364,69.4265
211.7634,69.3777
211.7146,69.3047
211.6975,69.2186
Z" /> 
<path style="fill:#B4A09A; fill-opacity:0.9000; stroke:none;fill-rule:evenodd;"
d="M 216.7150,64.1020
216.6633,64.0917
216.6195,64.0625
216.5903,64.0187
216.5800,63.9670
216.5800,63.6970
216.5903,63.6453
216.6195,63.6015
216.6633,63.5723
216.7150,63.5620
217.0850,63.5620
217.1367,63.5723
217.1805,63.6015
217.2097,63.6453
217.2200,63.6970
217.2200,63.9670
217.2097,64.0187
217.1805,64.0625
217.1367,64.0917
217.0850,64.1020
Z" /> 
<path style="fill:#B4A09A; fill-opacity:0.9000; stroke:none;fill-rule:evenodd;"
d="M 216.7150,63.0820
216.6633,63.0717
216.6195,63.0425
216.5903,62.9987
216.5800,62.9470
216.5800,62.6770
216.5903,62.6253
216.6195,62.5815
216.6633,62.5523
216.7150,62.5420
217.0850,62.5420
217.1367,62.5523
217.1805,62.5815
217.2097,62.6253
217.2200,62.6770
217.2200,62.9470
217.2097,62.9987
217.1805,63.0425
217.1367,63.0717
217.0850,63.0820
Z" /> 
<path style="fill:#B4A09A; fill-opacity:0.9000; stroke:none;fill-rule:evenodd;"
d="M 214.5750,58.4220
214.6267,58.4323
214.6705,58.4615
214.6997,58.5053
214.7100,58.5570
214.7100,58.8270
214.6997,58.8787
214.6705,58.9225
214.6267,58.9517
214.5750,58.9620
214.2050,58.9620
214.1533,58.9517
214.1095,58.9225
214.0803,58.8787
214.0700,58.8270
214.0700,58.5570
214.0803,58.5053
214.1095,58.4615
214.1533,58.4323
214.2050,58.4220
Z" /> 
<path style="fill:#B4A09A; fill-opacity:0.9000; stroke:none;fill-rule:evenodd;"
d="M 214.5750,59.4420
214.6267,59.4523
214.6705,59.4815
214.6997,59.5253
214.7100,59.5770
214.7100,59.8470
214.6997,59.8987
214.6705,59.9425
214.6267,59.9717
214.5750,59.9820
214.2050,59.9820
214.1533,59.9717
214.1095,59.9425
214.0803,59.8987
214.0700,59.8470
214.0700,59.5770
214.0803,59.5253
214.1095,59.4815
214.1533,59.4523
214.2050,59.4420
Z" /> 
<path style="fill:#B4A09A; fill-opacity:0.9000; stroke:none;fill-rule:evenodd;"
d="M 203.2557,92.0650
203.2451,92.1186
203.2147,92.1640
203.1693,92.1943
203.1157,92.2050
202.8357,92.2050
202.7822,92.1943
202.7368,92.1640
202.7064,92.1186
202.6958,92.0650
202.6958,91.7250
202.7064,91.6714
202.7368,91.6260
202.7822,91.5957
202.8357,91.5850
203.1157,91.5850
203.1693,91.5957
203.2147,91.6260
203.2451,91.6714
203.2557,91.7250
Z" /> 
<path style="fill:#B4A09A; fill-opacity:0.9000; stroke:none;fill-rule:evenodd;"
d="M 202.2957,92.0650
202.2851,92.1186
202.2547,92.1640
202.2093,92.1943
202.1557,92.2050
201.8757,92.2050
201.8222,92.1943
201.7768,92.1640
201.7464,92.1186
201.7357,92.0650
201.7357,91.7250
201.7464,91.6714
201.7768,91.6260
201.8222,91.5957
201.8757,91.5850
202.1557,91.5850
202.2093,91.5957
202.2547,91.6260
202.2851,91.6714
202.2957,91.7250
Z" /> 
<path style="fill:#B4A09A; fill-opacity:0.9000; stroke:none;fill-rule:evenodd;"
d="M 206.6787,88.7150
206.6685,88.7667
206.6392,88.8105
206.5954,88.8397
206.5437,88.8500
206.2737,88.8500
206.2221,88.8397
206.1783,88.8105
206.1490,88.7667
206.1387,88.7150
206.1387,88.3450
206.1490,88.2933
206.1783,88.2495
206.2221,88.2203
206.2737,88.2100
206.5437,88.2100
206.5954,88.2203
206.6392,88.2495
206.6685,88.2933
206.6787,88.3450
Z" /> 
<path style="fill:#B4A09A; fill-opacity:0.9000; stroke:none;fill-rule:evenodd;"
d="M 205.6587,88.7150
205.6485,88.7667
205.6192,88.8105
205.5754,88.8397
205.5237,88.8500
205.2537,88.8500
205.2021,88.8397
205.1583,88.8105
205.1290,88.7667
205.1187,88.7150
205.1187,88.3450
205.1290,88.2933
205.1583,88.2495
205.2021,88.2203
205.2537,88.2100
205.5237,88.2100
205.5754,88.2203
205.6192,88.2495
205.6485,88.2933
205.6587,88.3450
Z" /> 
<path style="fill:#B4A09A; fill-opacity:0.9000; stroke:none;fill-rule:evenodd;"
d="M 202.4900,57.2680
202.5436,57.2787
202.5890,57.3090
202.6193,57.3544
202.6300,57.4080
202.6300,57.6880
202.6193,57.7416
202.5890,57.7870
202.5436,57.8173
202.4900,57.8280
202.1500,57.8280
202.0964,57.8173
202.0510,57.7870
202.0207,57.7416
202.0100,57.6880
202.0100,57.4080
202.0207,57.3544
202.0510,57.3090
202.0964,57.2787
202.1500,57.2680
Z" /> 
<path style="fill:#B4A09A; fill-opacity:0.9000; stroke:none;fill-rule:evenodd;"
d="M 202.4900,58.2280
202.5436,58.2387
202.5890,58.2690
202.6193,58.3144
202.6300,58.3680
202.6300,58.6480
202.6193,58.7016
202.5890,58.7470
202.5436,58.7773
202.4900,58.7880
202.1500,58.7880
202.0964,58.7773
202.0510,58.7470
202.0207,58.7016
202.0100,58.6480
202.0100,58.3680
202.0207,58.3144
202.0510,58.2690
202.0964,58.2387
202.1500,58.2280
Z" /> 
<path style="fill:#B4A09A; fill-opacity:0.9000; stroke:none;fill-rule:evenodd;"
d="M 199.7950,57.3650
199.7433,57.3547
199.6995,57.3255
199.6703,57.2817
199.6600,57.2300
199.6600,56.9600
199.6703,56.9083
199.6995,56.8645
199.7433,56.8353
199.7950,56.8250
200.1650,56.8250
200.2167,56.8353
200.2605,56.8645
200.2897,56.9083
200.3000,56.9600
200.3000,57.2300
200.2897,57.2817
200.2605,57.3255
200.2167,57.3547
200.1650,57.3650
Z" /> 
<path style="fill:#B4A09A; fill-opacity:0.9000; stroke:none;fill-rule:evenodd;"
d="M 199.7950,56.3450
199.7433,56.3347
199.6995,56.3055
199.6703,56.2617
199.6600,56.2100
199.6600,55.9400
199.6703,55.8883
199.6995,55.8445
199.7433,55.8153
199.7950,55.8050
200.1650,55.8050
200.2167,55.8153
200.2605,55.8445
200.2897,55.8883
200.3000,55.9400
200.3000,56.2100
200.2897,56.2617
200.2605,56.3055
200.2167,56.3347
200.1650,56.3450
Z" /> 
<path style="fill:#B4A09A; fill-opacity:0.9000; stroke:none;fill-rule:evenodd;"
d="M 202.8257,90.6300
202.8143,90.6874
202.7818,90.7361
202.7332,90.7686
202.6757,90.7800
201.6507,90.7800
201.5933,90.7686
201.5447,90.7361
201.5122,90.6874
201.5007,90.6300
201.5007,90.3300
201.5122,90.2726
201.5447,90.2239
201.5933,90.1914
201.6507,90.1800
202.6757,90.1800
202.7332,90.1914
202.7818,90.2239
202.8143,90.2726
202.8257,90.3300
Z" /> 
<path style="fill:#B4A09A; fill-opacity:0.9000; stroke:none;fill-rule:evenodd;"
d="M 202.8257,89.6800
202.8143,89.7374
202.7818,89.7861
202.7332,89.8186
202.6757,89.8300
201.6507,89.8300
201.5933,89.8186
201.5447,89.7861
201.5122,89.7374
201.5007,89.6800
201.5007,89.3800
201.5122,89.3226
201.5447,89.2739
201.5933,89.2414
201.6507,89.2300
202.6757,89.2300
202.7332,89.2414
202.7818,89.2739
202.8143,89.3226
202.8257,89.3800
Z" /> 
<path style="fill:#B4A09A; fill-opacity:0.9000; stroke:none;fill-rule:evenodd;"
d="M 202.8257,88.7300
202.8143,88.7874
202.7818,88.8361
202.7332,88.8686
202.6757,88.8800
201.6507,88.8800
201.5933,88.8686
201.5447,88.8361
201.5122,88.7874
201.5007,88.7300
201.5007,88.4300
201.5122,88.3726
201.5447,88.3239
201.5933,88.2914
201.6507,88.2800
202.6757,88.2800
202.7332,88.2914
202.7818,88.3239
202.8143,88.3726
202.8257,88.4300
Z" /> 
<path style="fill:#B4A09A; fill-opacity:0.9000; stroke:none;fill-rule:evenodd;"
d="M 200.5507,88.7300
200.5393,88.7874
200.5068,88.8361
200.4582,88.8686
200.4007,88.8800
199.3757,88.8800
199.3183,88.8686
199.2697,88.8361
199.2372,88.7874
199.2258,88.7300
199.2258,88.4300
199.2372,88.3726
199.2697,88.3239
199.3183,88.2914
199.3757,88.2800
200.4007,88.2800
200.4582,88.2914
200.5068,88.3239
200.5393,88.3726
200.5507,88.4300
Z" /> 
<path style="fill:#B4A09A; fill-opacity:0.9000; stroke:none;fill-rule:evenodd;"
d="M 200.5507,90.6300
200.5393,90.6874
200.5068,90.7361
200.4582,90.7686
200.4007,90.7800
199.3757,90.7800
199.3183,90.7686
199.2697,90.7361
199.2372,90.6874
199.2258,90.6300
199.2258,90.3300
199.2372,90.2726
199.2697,90.2239
199.3183,90.1914
199.3757,90.1800
200.4007,90.1800
200.4582,90.1914
200.5068,90.2239
200.5393,90.2726
200.5507,90.3300
Z" /> 
<path style="fill:#B4A09A; fill-opacity:0.9000; stroke:none;fill-rule:evenodd;"
d="M 210.3270,59.2250
210.3080,59.3207
210.2538,59.4018
210.1727,59.4560
210.0770,59.4750
209.3270,59.4750
209.2313,59.4560
209.1502,59.4018
209.0960,59.3207
209.0770,59.2250
209.0770,57.0750
209.0960,56.9793
209.1502,56.8982
209.2313,56.8440
209.3270,56.8250
210.0770,56.8250
210.1727,56.8440
210.2538,56.8982
210.3080,56.9793
210.3270,57.0750
Z" /> 
<path style="fill:#B4A09A; fill-opacity:0.9000; stroke:none;fill-rule:evenodd;"
d="M 207.5270,59.2250
207.5080,59.3207
207.4538,59.4018
207.3727,59.4560
207.2770,59.4750
206.5270,59.4750
206.4313,59.4560
206.3502,59.4018
206.2960,59.3207
206.2770,59.2250
206.2770,57.0750
206.2960,56.9793
206.3502,56.8982
206.4313,56.8440
206.5270,56.8250
207.2770,56.8250
207.3727,56.8440
207.4538,56.8982
207.5080,56.9793
207.5270,57.0750
Z" /> 
<path style="fill:#B4A09A; fill-opacity:0.9000; stroke:none;fill-rule:evenodd;"
d="M 211.7058,58.9050
211.7009,58.9040
211.6967,58.9013
211.6940,58.8971
211.6930,58.8922
211.6930,58.2578
211.6940,58.2529
211.6967,58.2487
211.7009,58.2460
211.7058,58.2450
212.0002,58.2450
212.0051,58.2460
212.0093,58.2487
212.0120,58.2529
212.0130,58.2578
212.0130,58.8922
212.0120,58.8971
212.0093,58.9013
212.0051,58.9040
212.0002,58.9050
Z" /> 
<path style="fill:#B4A09A; fill-opacity:0.9000; stroke:none;fill-rule:evenodd;"
d="M 212.2058,58.9050
212.2009,58.9040
212.1967,58.9013
212.1940,58.8971
212.1930,58.8922
212.1930,58.2578
212.1940,58.2529
212.1967,58.2487
212.2009,58.2460
212.2058,58.2450
212.5002,58.2450
212.5051,58.2460
212.5093,58.2487
212.5120,58.2529
212.5130,58.2578
212.5130,58.8922
212.5120,58.8971
212.5093,58.9013
212.5051,58.9040
212.5002,58.9050
Z" /> 
<path style="fill:#B4A09A; fill-opacity:0.9000; stroke:none;fill-rule:evenodd;"
d="M 212.7058,58.9050
212.7009,58.9040
212.6967,58.9013
212.6940,58.8971
212.6930,58.8922
212.6930,58.2578
212.6940,58.2529
212.6967,58.2487
212.7009,58.2460
212.7058,58.2450
213.0002,58.2450
213.0051,58.2460
213.0093,58.2487
213.0120,58.2529
213.0130,58.2578
213.0130,58.8922
213.0120,58.8971
213.0093,58.9013
213.0051,58.9040
213.0002,58.9050
Z" /> 
<path style="fill:#B4A09A; fill-opacity:0.9000; stroke:none;fill-rule:evenodd;"
d="M 213.2058,58.9050
213.2009,58.9040
213.1967,58.9013
213.1940,58.8971
213.1930,58.8922
213.1930,58.2578
213.1940,58.2529
213.1967,58.2487
213.2009,58.2460
213.2058,58.2450
213.5002,58.2450
213.5051,58.2460
213.5093,58.2487
213.5120,58.2529
213.5130,58.2578
213.5130,58.8922
213.5120,58.8971
213.5093,58.9013
213.5051,58.9040
213.5002,58.9050
Z" /> 
<path style="fill:#B4A09A; fill-opacity:0.9000; stroke:none;fill-rule:evenodd;"
d="M 213.2058,57.4350
213.2009,57.4340
213.1967,57.4313
213.1940,57.4271
213.1930,57.4222
213.1930,56.7878
213.1940,56.7829
213.1967,56.7787
213.2009,56.7760
213.2058,56.7750
213.5002,56.7750
213.5051,56.7760
213.5093,56.7787
213.5120,56.7829
213.5130,56.7878
213.5130,57.4222
213.5120,57.4271
213.5093,57.4313
213.5051,57.4340
213.5002,57.4350
Z" /> 
<path style="fill:#B4A09A; fill-opacity:0.9000; stroke:none;fill-rule:evenodd;"
d="M 212.7058,57.4350
212.7009,57.4340
212.6967,57.4313
212.6940,57.4271
212.6930,57.4222
212.6930,56.7878
212.6940,56.7829
212.6967,56.7787
212.7009,56.7760
212.7058,56.7750
213.0002,56.7750
213.0051,56.7760
213.0093,56.7787
213.0120,56.7829
213.0130,56.7878
213.0130,57.4222
213.0120,57.4271
213.0093,57.4313
213.0051,57.4340
213.0002,57.4350
Z" /> 
<path style="fill:#B4A09A; fill-opacity:0.9000; stroke:none;fill-rule:evenodd;"
d="M 212.2058,57.4350
212.2009,57.4340
212.1967,57.4313
212.1940,57.4271
212.1930,57.4222
212.1930,56.7878
212.1940,56.7829
212.1967,56.7787
212.2009,56.7760
212.2058,56.7750
212.5002,56.7750
212.5051,56.7760
212.5093,56.7787
212.5120,56.7829
212.5130,56.7878
212.5130,57.4222
212.5120,57.4271
212.5093,57.4313
212.5051,57.4340
212.5002,57.4350
Z" /> 
<path style="fill:#B4A09A; fill-opacity:0.9000; stroke:none;fill-rule:evenodd;"
d="M 211.7058,57.4350
211.7009,57.4340
211.6967,57.4313
211.6940,57.4271
211.6930,57.4222
211.6930,56.7878
211.6940,56.7829
211.6967,56.7787
211.7009,56.7760
211.7058,56.7750
212.0002,56.7750
212.0051,56.7760
212.0093,56.7787
212.0120,56.7829
212.0130,56.7878
212.0130,57.4222
212.0120,57.4271
212.0093,57.4313
212.0051,57.4340
212.0002,57.4350
Z" /> 
<path style="fill:#B4A09A; fill-opacity:0.9000; stroke:none;fill-rule:evenodd;"
d="M 197.6700,67.6180
197.7236,67.6287
197.7690,67.6590
197.7993,67.7044
197.8100,67.7580
197.8100,68.0380
197.7993,68.0916
197.7690,68.1370
197.7236,68.1673
197.6700,68.1780
197.3300,68.1780
197.2764,68.1673
197.2310,68.1370
197.2007,68.0916
197.1900,68.0380
197.1900,67.7580
197.2007,67.7044
197.2310,67.6590
197.2764,67.6287
197.3300,67.6180
Z" /> 
<path style="fill:#B4A09A; fill-opacity:0.9000; stroke:none;fill-rule:evenodd;"
d="M 197.6700,68.5780
197.7236,68.5887
197.7690,68.6190
197.7993,68.6644
197.8100,68.7180
197.8100,68.9980
197.7993,69.0516
197.7690,69.0970
197.7236,69.1273
197.6700,69.1380
197.3300,69.1380
197.2764,69.1273
197.2310,69.0970
197.2007,69.0516
197.1900,68.9980
197.1900,68.7180
197.2007,68.6644
197.2310,68.6190
197.2764,68.5887
197.3300,68.5780
Z" /> 
<path style="fill:#B4A09A; fill-opacity:0.9000; stroke:none;fill-rule:evenodd;"
d="M 206.7850,81.3280
206.8367,81.3383
206.8805,81.3675
206.9097,81.4113
206.9200,81.4630
206.9200,81.7330
206.9097,81.7847
206.8805,81.8285
206.8367,81.8577
206.7850,81.8680
206.4150,81.8680
206.3633,81.8577
206.3195,81.8285
206.2903,81.7847
206.2800,81.7330
206.2800,81.4630
206.2903,81.4113
206.3195,81.3675
206.3633,81.3383
206.4150,81.3280
Z" /> 
<path style="fill:#B4A09A; fill-opacity:0.9000; stroke:none;fill-rule:evenodd;"
d="M 206.7850,82.3480
206.8367,82.3583
206.8805,82.3875
206.9097,82.4313
206.9200,82.4830
206.9200,82.7530
206.9097,82.8047
206.8805,82.8485
206.8367,82.8777
206.7850,82.8880
206.4150,82.8880
206.3633,82.8777
206.3195,82.8485
206.2903,82.8047
206.2800,82.7530
206.2800,82.4830
206.2903,82.4313
206.3195,82.3875
206.3633,82.3583
206.4150,82.3480
Z" /> 
<path style="fill:#B4A09A; fill-opacity:0.9000; stroke:none;fill-rule:evenodd;"
d="M 215.4150,50.4600
215.4047,50.5117
215.3755,50.5555
215.3317,50.5847
215.2800,50.5950
215.0100,50.5950
214.9583,50.5847
214.9145,50.5555
214.8853,50.5117
214.8750,50.4600
214.8750,50.0900
214.8853,50.0383
214.9145,49.9945
214.9583,49.9653
215.0100,49.9550
215.2800,49.9550
215.3317,49.9653
215.3755,49.9945
215.4047,50.0383
215.4150,50.0900
Z" /> 
<path style="fill:#B4A09A; fill-opacity:0.9000; stroke:none;fill-rule:evenodd;"
d="M 214.3950,50.4600
214.3847,50.5117
214.3555,50.5555
214.3117,50.5847
214.2600,50.5950
213.9900,50.5950
213.9383,50.5847
213.8945,50.5555
213.8653,50.5117
213.8550,50.4600
213.8550,50.0900
213.8653,50.0383
213.8945,49.9945
213.9383,49.9653
213.9900,49.9550
214.2600,49.9550
214.3117,49.9653
214.3555,49.9945
214.3847,50.0383
214.3950,50.0900
Z" /> 
<path style="fill:#B4A09A; fill-opacity:0.9000; stroke:none;fill-rule:evenodd;"
d="M 210.4765,71.9656
210.5702,71.9843
210.6497,72.0374
210.7028,72.1169
210.7215,72.2106
210.7215,72.7006
210.7028,72.7944
210.6497,72.8739
210.5702,72.9270
210.4765,72.9456
207.5665,72.9456
207.4727,72.9270
207.3932,72.8739
207.3401,72.7944
207.3215,72.7006
207.3215,72.2106
207.3401,72.1169
207.3932,72.0374
207.4727,71.9843
207.5665,71.9656
Z" /> 
<path style="fill:#B4A09A; fill-opacity:0.9000; stroke:none;fill-rule:evenodd;"
d="M 210.4765,74.3356
210.5702,74.3543
210.6497,74.4074
210.7028,74.4869
210.7215,74.5806
210.7215,75.0706
210.7028,75.1644
210.6497,75.2439
210.5702,75.2970
210.4765,75.3156
207.5665,75.3156
207.4727,75.2970
207.3932,75.2439
207.3401,75.1644
207.3215,75.0706
207.3215,74.5806
207.3401,74.4869
207.3932,74.4074
207.4727,74.3543
207.5665,74.3356
Z" /> 
<path style="fill:#B4A09A; fill-opacity:0.9000; stroke:none;fill-rule:evenodd;"
d="M 198.9010,47.9800
198.8493,47.9697
198.8055,47.9405
198.7763,47.8967
198.7660,47.8450
198.7660,47.5750
198.7763,47.5233
198.8055,47.4795
198.8493,47.4503
198.9010,47.4400
199.2710,47.4400
199.3227,47.4503
199.3665,47.4795
199.3957,47.5233
199.4060,47.5750
199.4060,47.8450
199.3957,47.8967
199.3665,47.9405
199.3227,47.9697
199.2710,47.9800
Z" /> 
<path style="fill:#B4A09A; fill-opacity:0.9000; stroke:none;fill-rule:evenodd;"
d="M 198.9010,46.9600
198.8493,46.9497
198.8055,46.9205
198.7763,46.8767
198.7660,46.8250
198.7660,46.5550
198.7763,46.5033
198.8055,46.4595
198.8493,46.4303
198.9010,46.4200
199.2710,46.4200
199.3227,46.4303
199.3665,46.4595
199.3957,46.5033
199.4060,46.5550
199.4060,46.8250
199.3957,46.8767
199.3665,46.9205
199.3227,46.9497
199.2710,46.9600
Z" /> 
<path style="fill:#B4A09A; fill-opacity:0.9000; stroke:none;fill-rule:evenodd;"
d="M 211.1925,67.6026
211.2031,67.5490
211.2335,67.5036
211.2789,67.4733
211.3325,67.4626
211.6125,67.4626
211.6661,67.4733
211.7115,67.5036
211.7418,67.5490
211.7525,67.6026
211.7525,67.9426
211.7418,67.9962
211.7115,68.0416
211.6661,68.0720
211.6125,68.0826
211.3325,68.0826
211.2789,68.0720
211.2335,68.0416
211.2031,67.9962
211.1925,67.9426
Z" /> 
<path style="fill:#B4A09A; fill-opacity:0.9000; stroke:none;fill-rule:evenodd;"
d="M 212.1525,67.6026
212.1631,67.5490
212.1935,67.5036
212.2389,67.4733
212.2925,67.4626
212.5725,67.4626
212.6261,67.4733
212.6715,67.5036
212.7018,67.5490
212.7125,67.6026
212.7125,67.9426
212.7018,67.9962
212.6715,68.0416
212.6261,68.0720
212.5725,68.0826
212.2925,68.0826
212.2389,68.0720
212.1935,68.0416
212.1631,67.9962
212.1525,67.9426
Z" /> 
<path style="fill:#B4A09A; fill-opacity:0.9000; stroke:none;fill-rule:evenodd;"
d="M 198.5350,80.1950
198.5886,80.2057
198.6340,80.2360
198.6643,80.2814
198.6750,80.3350
198.6750,80.6150
198.6643,80.6686
198.6340,80.7140
198.5886,80.7443
198.5350,80.7550
198.1950,80.7550
198.1414,80.7443
198.0960,80.7140
198.0657,80.6686
198.0550,80.6150
198.0550,80.3350
198.0657,80.2814
198.0960,80.2360
198.1414,80.2057
198.1950,80.1950
Z" /> 
<path style="fill:#B4A09A; fill-opacity:0.9000; stroke:none;fill-rule:evenodd;"
d="M 198.5350,81.1550
198.5886,81.1657
198.6340,81.1960
198.6643,81.2414
198.6750,81.2950
198.6750,81.5750
198.6643,81.6286
198.6340,81.6740
198.5886,81.7043
198.5350,81.7150
198.1950,81.7150
198.1414,81.7043
198.0960,81.6740
198.0657,81.6286
198.0550,81.5750
198.0550,81.2950
198.0657,81.2414
198.0960,81.1960
198.1414,81.1657
198.1950,81.1550
Z" /> 
<path style="fill:#B4A09A; fill-opacity:0.9000; stroke:none;fill-rule:evenodd;"
d="M 207.8420,80.8550
207.8317,80.9067
207.8025,80.9505
207.7587,80.9797
207.7070,80.9900
207.4370,80.9900
207.3853,80.9797
207.3415,80.9505
207.3123,80.9067
207.3020,80.8550
207.3020,80.4850
207.3123,80.4333
207.3415,80.3895
207.3853,80.3603
207.4370,80.3500
207.7070,80.3500
207.7587,80.3603
207.8025,80.3895
207.8317,80.4333
207.8420,80.4850
Z" /> 
<path style="fill:#B4A09A; fill-opacity:0.9000; stroke:none;fill-rule:evenodd;"
d="M 206.8220,80.8550
206.8117,80.9067
206.7825,80.9505
206.7387,80.9797
206.6870,80.9900
206.4170,80.9900
206.3653,80.9797
206.3215,80.9505
206.2923,80.9067
206.2820,80.8550
206.2820,80.4850
206.2923,80.4333
206.3215,80.3895
206.3653,80.3603
206.4170,80.3500
206.6870,80.3500
206.7387,80.3603
206.7825,80.3895
206.8117,80.4333
206.8220,80.4850
Z" /> 
<path style="fill:#B4A09A; fill-opacity:0.9000; stroke:none;fill-rule:evenodd;"
d="M 205.4550,57.3770
205.5507,57.3960
205.6318,57.4502
205.6860,57.5313
205.7050,57.6270
205.7050,58.3770
205.6860,58.4727
205.6318,58.5538
205.5507,58.6080
205.4550,58.6270
203.3050,58.6270
203.2093,58.6080
203.1282,58.5538
203.0740,58.4727
203.0550,58.3770
203.0550,57.6270
203.0740,57.5313
203.1282,57.4502
203.2093,57.3960
203.3050,57.3770
Z" /> 
<path style="fill:#B4A09A; fill-opacity:0.9000; stroke:none;fill-rule:evenodd;"
d="M 205.4550,60.1770
205.5507,60.1960
205.6318,60.2502
205.6860,60.3313
205.7050,60.4270
205.7050,61.1770
205.6860,61.2727
205.6318,61.3538
205.5507,61.4080
205.4550,61.4270
203.3050,61.4270
203.2093,61.4080
203.1282,61.3538
203.0740,61.2727
203.0550,61.1770
203.0550,60.4270
203.0740,60.3313
203.1282,60.2502
203.2093,60.1960
203.3050,60.1770
Z" /> 
<path style="fill:#B4A09A; fill-opacity:0.9000; stroke:none;fill-rule:evenodd;"
d="M 201.6550,60.1535
201.6443,60.2071
201.6140,60.2525
201.5686,60.2829
201.5150,60.2935
201.2350,60.2935
201.1814,60.2829
201.1360,60.2525
201.1057,60.2071
201.0950,60.1535
201.0950,59.8135
201.1057,59.7600
201.1360,59.7145
201.1814,59.6842
201.2350,59.6735
201.5150,59.6735
201.5686,59.6842
201.6140,59.7145
201.6443,59.7600
201.6550,59.8135
Z" /> 
<path style="fill:#B4A09A; fill-opacity:0.9000; stroke:none;fill-rule:evenodd;"
d="M 200.6950,60.1535
200.6843,60.2071
200.6540,60.2525
200.6086,60.2829
200.5550,60.2935
200.2750,60.2935
200.2214,60.2829
200.1760,60.2525
200.1457,60.2071
200.1350,60.1535
200.1350,59.8135
200.1457,59.7600
200.1760,59.7145
200.2214,59.6842
200.2750,59.6735
200.5550,59.6735
200.6086,59.6842
200.6540,59.7145
200.6843,59.7600
200.6950,59.8135
Z" /> 
<path style="fill:#B4A09A; fill-opacity:0.9000; stroke:none;fill-rule:evenodd;"
d="M 213.5620,55.3550
213.5517,55.4067
213.5225,55.4505
213.4787,55.4797
213.4270,55.4900
213.1570,55.4900
213.1053,55.4797
213.0615,55.4505
213.0323,55.4067
213.0220,55.3550
213.0220,54.9850
213.0323,54.9333
213.0615,54.8895
213.1053,54.8603
213.1570,54.8500
213.4270,54.8500
213.4787,54.8603
213.5225,54.8895
213.5517,54.9333
213.5620,54.9850
Z" /> 
<path style="fill:#B4A09A; fill-opacity:0.9000; stroke:none;fill-rule:evenodd;"
d="M 212.5420,55.3550
212.5317,55.4067
212.5025,55.4505
212.4587,55.4797
212.4070,55.4900
212.1370,55.4900
212.0853,55.4797
212.0415,55.4505
212.0123,55.4067
212.0020,55.3550
212.0020,54.9850
212.0123,54.9333
212.0415,54.8895
212.0853,54.8603
212.1370,54.8500
212.4070,54.8500
212.4587,54.8603
212.5025,54.8895
212.5317,54.9333
212.5420,54.9850
Z" /> 
<path style="fill:#B4A09A; fill-opacity:0.9000; stroke:none;fill-rule:evenodd;"
d="M 204.6761,71.4035
204.7297,71.4142
204.7751,71.4445
204.8055,71.4899
204.8161,71.5435
204.8161,71.8235
204.8055,71.8771
204.7751,71.9225
204.7297,71.9528
204.6761,71.9635
204.3361,71.9635
204.2826,71.9528
204.2371,71.9225
204.2068,71.8771
204.1961,71.8235
204.1961,71.5435
204.2068,71.4899
204.2371,71.4445
204.2826,71.4142
204.3361,71.4035
Z" /> 
<path style="fill:#B4A09A; fill-opacity:0.9000; stroke:none;fill-rule:evenodd;"
d="M 204.6761,72.3635
204.7297,72.3742
204.7751,72.4045
204.8055,72.4499
204.8161,72.5035
204.8161,72.7835
204.8055,72.8371
204.7751,72.8825
204.7297,72.9128
204.6761,72.9235
204.3361,72.9235
204.2826,72.9128
204.2371,72.8825
204.2068,72.8371
204.1961,72.7835
204.1961,72.5035
204.2068,72.4499
204.2371,72.4045
204.2826,72.3742
204.3361,72.3635
Z" /> 
</g> 
</svg>
