<?xml version="1.0" standalone="no"?>
 <!DOCTYPE svg PUBLIC "-//W3C//DTD SVG 1.1//EN" 
 "http://www.w3.org/Graphics/SVG/1.1/DTD/svg11.dtd"> 
<svg
  xmlns:svg="http://www.w3.org/2000/svg"
  xmlns="http://www.w3.org/2000/svg"
  xmlns:xlink="http://www.w3.org/1999/xlink"
  version="1.1"
  width="297.0022mm" height="210.0072mm" viewBox="0.0000 0.0000 297.0022 210.0072">
<title>SVG Image created as mixpower-path-mini-axp2585-board-r1-B_Silkscreen.svg date 2026/02/23 13:21:07 </title>
  <desc>Image generated by PCBNEW </desc>
<g style="fill:#000000; fill-opacity:1.0000;stroke:#000000; stroke-opacity:1.0000;
stroke-linecap:round; stroke-linejoin:round;"
 transform="translate(0 0) scale(1 1)">
</g>
<g style="fill:none; 
stroke:#E8B2A7; stroke-width:0.1000; stroke-opacity:1; 
stroke-linecap:round; stroke-linejoin:round;">
<g transform="rotate(-90.000000 204.5641 85.3900)">
<text x="204.5641" y="85.3900"
transform="scale(-1 1) translate(-409.128180 0)"
textLength="3.3400" font-size="1.0667" lengthAdjust="spacingAndGlyphs"
text-anchor="middle" opacity="0" stroke-opacity="0">&gt;3V3</text>
</g>
<g class="stroked-text"><desc>&gt;3V3</desc>
<path d="M203.9277 83.9805
L204.1562 84.5900
" />
<path d="M204.1562 84.5900
L204.3848 83.9805
" />
<path d="M203.6610 84.8948
L203.6610 85.3900
" />
<path d="M203.6610 85.3900
L203.9657 85.1233
" />
<path d="M203.9657 85.1233
L203.9657 85.2376
" />
<path d="M203.9657 85.2376
L204.0038 85.3138
" />
<path d="M204.0038 85.3138
L204.0419 85.3519
" />
<path d="M204.0419 85.3519
L204.1181 85.3900
" />
<path d="M204.1181 85.3900
L204.3086 85.3900
" />
<path d="M204.3086 85.3900
L204.3848 85.3519
" />
<path d="M204.3848 85.3519
L204.4229 85.3138
" />
<path d="M204.4229 85.3138
L204.4610 85.2376
" />
<path d="M204.4610 85.2376
L204.4610 85.0090
" />
<path d="M204.4610 85.0090
L204.4229 84.9329
" />
<path d="M204.4229 84.9329
L204.3848 84.8948
" />
<path d="M203.6610 85.6186
L204.4610 85.8852
" />
<path d="M204.4610 85.8852
L203.6610 86.1519
" />
<path d="M203.6610 86.3424
L203.6610 86.8376
" />
<path d="M203.6610 86.8376
L203.9657 86.5710
" />
<path d="M203.9657 86.5710
L203.9657 86.6852
" />
<path d="M203.9657 86.6852
L204.0038 86.7614
" />
<path d="M204.0038 86.7614
L204.0419 86.7995
" />
<path d="M204.0419 86.7995
L204.1181 86.8376
" />
<path d="M204.1181 86.8376
L204.3086 86.8376
" />
<path d="M204.3086 86.8376
L204.3848 86.7995
" />
<path d="M204.3848 86.7995
L204.4229 86.7614
" />
<path d="M204.4229 86.7614
L204.4610 86.6852
" />
<path d="M204.4610 86.6852
L204.4610 86.4567
" />
<path d="M204.4610 86.4567
L204.4229 86.3805
" />
<path d="M204.4229 86.3805
L204.3848 86.3424
" />
</g><g transform="rotate(-90.000000 205.8520 85.3900)">
<text x="205.8520" y="85.3900"
transform="scale(-1 1) translate(-411.704090 0)"
textLength="3.4924" font-size="1.0667" lengthAdjust="spacingAndGlyphs"
text-anchor="middle" opacity="0" stroke-opacity="0">[VCC]</text>
</g>
<g class="stroked-text"><desc>[VCC]</desc>
<path d="M206.0156 84.1329
L206.0156 83.9424
" />
<path d="M206.0156 83.9424
L204.8727 83.9424
" />
<path d="M204.8727 83.9424
L204.8727 84.1329
" />
<path d="M204.9489 84.3233
L205.7489 84.5900
" />
<path d="M205.7489 84.5900
L204.9489 84.8567
" />
<path d="M205.6727 85.5805
L205.7108 85.5424
" />
<path d="M205.7108 85.5424
L205.7489 85.4281
" />
<path d="M205.7489 85.4281
L205.7489 85.3519
" />
<path d="M205.7489 85.3519
L205.7108 85.2376
" />
<path d="M205.7108 85.2376
L205.6347 85.1614
" />
<path d="M205.6347 85.1614
L205.5585 85.1233
" />
<path d="M205.5585 85.1233
L205.4061 85.0852
" />
<path d="M205.4061 85.0852
L205.2918 85.0852
" />
<path d="M205.2918 85.0852
L205.1394 85.1233
" />
<path d="M205.1394 85.1233
L205.0632 85.1614
" />
<path d="M205.0632 85.1614
L204.9870 85.2376
" />
<path d="M204.9870 85.2376
L204.9489 85.3519
" />
<path d="M204.9489 85.3519
L204.9489 85.4281
" />
<path d="M204.9489 85.4281
L204.9870 85.5424
" />
<path d="M204.9870 85.5424
L205.0251 85.5805
" />
<path d="M205.6727 86.3805
L205.7108 86.3424
" />
<path d="M205.7108 86.3424
L205.7489 86.2281
" />
<path d="M205.7489 86.2281
L205.7489 86.1519
" />
<path d="M205.7489 86.1519
L205.7108 86.0376
" />
<path d="M205.7108 86.0376
L205.6347 85.9614
" />
<path d="M205.6347 85.9614
L205.5585 85.9233
" />
<path d="M205.5585 85.9233
L205.4061 85.8852
" />
<path d="M205.4061 85.8852
L205.2918 85.8852
" />
<path d="M205.2918 85.8852
L205.1394 85.9233
" />
<path d="M205.1394 85.9233
L205.0632 85.9614
" />
<path d="M205.0632 85.9614
L204.9870 86.0376
" />
<path d="M204.9870 86.0376
L204.9489 86.1519
" />
<path d="M204.9489 86.1519
L204.9489 86.2281
" />
<path d="M204.9489 86.2281
L204.9870 86.3424
" />
<path d="M204.9870 86.3424
L205.0251 86.3805
" />
<path d="M206.0156 86.6471
L206.0156 86.8376
" />
<path d="M206.0156 86.8376
L204.8727 86.8376
" />
<path d="M204.8727 86.8376
L204.8727 86.6471
" />
</g><g transform="rotate(-90.000000 207.1400 85.3900)">
<text x="207.1400" y="85.3900"
transform="scale(-1 1) translate(-414.280000 0)"
textLength="1.5876" font-size="1.0667" lengthAdjust="spacingAndGlyphs"
text-anchor="middle" opacity="0" stroke-opacity="0">5V</text>
</g>
<g class="stroked-text"><desc>5V</desc>
<path d="M206.2369 85.2376
L206.2369 84.8567
" />
<path d="M206.2369 84.8567
L206.6178 84.8186
" />
<path d="M206.6178 84.8186
L206.5798 84.8567
" />
<path d="M206.5798 84.8567
L206.5417 84.9329
" />
<path d="M206.5417 84.9329
L206.5417 85.1233
" />
<path d="M206.5417 85.1233
L206.5798 85.1995
" />
<path d="M206.5798 85.1995
L206.6178 85.2376
" />
<path d="M206.6178 85.2376
L206.6940 85.2757
" />
<path d="M206.6940 85.2757
L206.8845 85.2757
" />
<path d="M206.8845 85.2757
L206.9607 85.2376
" />
<path d="M206.9607 85.2376
L206.9988 85.1995
" />
<path d="M206.9988 85.1995
L207.0369 85.1233
" />
<path d="M207.0369 85.1233
L207.0369 84.9329
" />
<path d="M207.0369 84.9329
L206.9988 84.8567
" />
<path d="M206.9988 84.8567
L206.9607 84.8186
" />
<path d="M206.2369 85.5043
L207.0369 85.7710
" />
<path d="M207.0369 85.7710
L206.2369 86.0376
" />
</g><g transform="rotate(-90.000000 204.5741 82.1000)">
<text x="204.5741" y="82.1000"
transform="scale(-1 1) translate(-409.148180 0)"
textLength="3.3400" font-size="1.0667" lengthAdjust="spacingAndGlyphs"
text-anchor="middle" opacity="0" stroke-opacity="0">&gt;3V3</text>
</g>
<g class="stroked-text"><desc>&gt;3V3</desc>
<path d="M203.9377 80.6905
L204.1662 81.3000
" />
<path d="M204.1662 81.3000
L204.3948 80.6905
" />
<path d="M203.6710 81.6048
L203.6710 82.1000
" />
<path d="M203.6710 82.1000
L203.9757 81.8333
" />
<path d="M203.9757 81.8333
L203.9757 81.9476
" />
<path d="M203.9757 81.9476
L204.0138 82.0238
" />
<path d="M204.0138 82.0238
L204.0519 82.0619
" />
<path d="M204.0519 82.0619
L204.1281 82.1000
" />
<path d="M204.1281 82.1000
L204.3186 82.1000
" />
<path d="M204.3186 82.1000
L204.3948 82.0619
" />
<path d="M204.3948 82.0619
L204.4329 82.0238
" />
<path d="M204.4329 82.0238
L204.4710 81.9476
" />
<path d="M204.4710 81.9476
L204.4710 81.7190
" />
<path d="M204.4710 81.7190
L204.4329 81.6429
" />
<path d="M204.4329 81.6429
L204.3948 81.6048
" />
<path d="M203.6710 82.3286
L204.4710 82.5952
" />
<path d="M204.4710 82.5952
L203.6710 82.8619
" />
<path d="M203.6710 83.0524
L203.6710 83.5476
" />
<path d="M203.6710 83.5476
L203.9757 83.2810
" />
<path d="M203.9757 83.2810
L203.9757 83.3952
" />
<path d="M203.9757 83.3952
L204.0138 83.4714
" />
<path d="M204.0138 83.4714
L204.0519 83.5095
" />
<path d="M204.0519 83.5095
L204.1281 83.5476
" />
<path d="M204.1281 83.5476
L204.3186 83.5476
" />
<path d="M204.3186 83.5476
L204.3948 83.5095
" />
<path d="M204.3948 83.5095
L204.4329 83.4714
" />
<path d="M204.4329 83.4714
L204.4710 83.3952
" />
<path d="M204.4710 83.3952
L204.4710 83.1667
" />
<path d="M204.4710 83.1667
L204.4329 83.0905
" />
<path d="M204.4329 83.0905
L204.3948 83.0524
" />
</g><g transform="rotate(-90.000000 205.8620 82.1000)">
<text x="205.8620" y="82.1000"
transform="scale(-1 1) translate(-411.724090 0)"
textLength="3.4924" font-size="1.0667" lengthAdjust="spacingAndGlyphs"
text-anchor="middle" opacity="0" stroke-opacity="0">[VDD]</text>
</g>
<g class="stroked-text"><desc>[VDD]</desc>
<path d="M206.0256 80.8429
L206.0256 80.6524
" />
<path d="M206.0256 80.6524
L204.8827 80.6524
" />
<path d="M204.8827 80.6524
L204.8827 80.8429
" />
<path d="M204.9589 81.0333
L205.7589 81.3000
" />
<path d="M205.7589 81.3000
L204.9589 81.5667
" />
<path d="M205.7589 81.8333
L204.9589 81.8333
" />
<path d="M204.9589 81.8333
L204.9589 82.0238
" />
<path d="M204.9589 82.0238
L204.9970 82.1381
" />
<path d="M204.9970 82.1381
L205.0732 82.2143
" />
<path d="M205.0732 82.2143
L205.1494 82.2524
" />
<path d="M205.1494 82.2524
L205.3018 82.2905
" />
<path d="M205.3018 82.2905
L205.4161 82.2905
" />
<path d="M205.4161 82.2905
L205.5685 82.2524
" />
<path d="M205.5685 82.2524
L205.6447 82.2143
" />
<path d="M205.6447 82.2143
L205.7208 82.1381
" />
<path d="M205.7208 82.1381
L205.7589 82.0238
" />
<path d="M205.7589 82.0238
L205.7589 81.8333
" />
<path d="M205.7589 82.6333
L204.9589 82.6333
" />
<path d="M204.9589 82.6333
L204.9589 82.8238
" />
<path d="M204.9589 82.8238
L204.9970 82.9381
" />
<path d="M204.9970 82.9381
L205.0732 83.0143
" />
<path d="M205.0732 83.0143
L205.1494 83.0524
" />
<path d="M205.1494 83.0524
L205.3018 83.0905
" />
<path d="M205.3018 83.0905
L205.4161 83.0905
" />
<path d="M205.4161 83.0905
L205.5685 83.0524
" />
<path d="M205.5685 83.0524
L205.6447 83.0143
" />
<path d="M205.6447 83.0143
L205.7208 82.9381
" />
<path d="M205.7208 82.9381
L205.7589 82.8238
" />
<path d="M205.7589 82.8238
L205.7589 82.6333
" />
<path d="M206.0256 83.3571
L206.0256 83.5476
" />
<path d="M206.0256 83.5476
L204.8827 83.5476
" />
<path d="M204.8827 83.5476
L204.8827 83.3571
" />
</g><g transform="rotate(-90.000000 207.1500 82.1000)">
<text x="207.1500" y="82.1000"
transform="scale(-1 1) translate(-414.300000 0)"
textLength="1.5876" font-size="1.0667" lengthAdjust="spacingAndGlyphs"
text-anchor="middle" opacity="0" stroke-opacity="0">5V</text>
</g>
<g class="stroked-text"><desc>5V</desc>
<path d="M206.2469 81.9476
L206.2469 81.5667
" />
<path d="M206.2469 81.5667
L206.6278 81.5286
" />
<path d="M206.6278 81.5286
L206.5898 81.5667
" />
<path d="M206.5898 81.5667
L206.5517 81.6429
" />
<path d="M206.5517 81.6429
L206.5517 81.8333
" />
<path d="M206.5517 81.8333
L206.5898 81.9095
" />
<path d="M206.5898 81.9095
L206.6278 81.9476
" />
<path d="M206.6278 81.9476
L206.7040 81.9857
" />
<path d="M206.7040 81.9857
L206.8945 81.9857
" />
<path d="M206.8945 81.9857
L206.9707 81.9476
" />
<path d="M206.9707 81.9476
L207.0088 81.9095
" />
<path d="M207.0088 81.9095
L207.0469 81.8333
" />
<path d="M207.0469 81.8333
L207.0469 81.6429
" />
<path d="M207.0469 81.6429
L207.0088 81.5667
" />
<path d="M207.0088 81.5667
L206.9707 81.5286
" />
<path d="M206.2469 82.2143
L207.0469 82.4810
" />
<path d="M207.0469 82.4810
L206.2469 82.7476
" />
</g><g transform="rotate(-90.000000 212.2801 56.4600)">
<text x="212.2801" y="56.4600"
transform="scale(-1 1) translate(-424.560112 0)"
textLength="3.9571" font-size="1.3333" lengthAdjust="spacingAndGlyphs"
text-anchor="middle" opacity="0" stroke-opacity="0">VBUS</text>
</g>
<g class="stroked-text"><desc>VBUS</desc>
<path d="M211.1525 54.6267
L212.1525 54.9600
" />
<path d="M212.1525 54.9600
L211.1525 55.2933
" />
<path d="M211.6287 55.9600
L211.6763 56.1029
" />
<path d="M211.6763 56.1029
L211.7239 56.1505
" />
<path d="M211.7239 56.1505
L211.8191 56.1981
" />
<path d="M211.8191 56.1981
L211.9620 56.1981
" />
<path d="M211.9620 56.1981
L212.0572 56.1505
" />
<path d="M212.0572 56.1505
L212.1049 56.1029
" />
<path d="M212.1049 56.1029
L212.1525 56.0076
" />
<path d="M212.1525 56.0076
L212.1525 55.6267
" />
<path d="M212.1525 55.6267
L211.1525 55.6267
" />
<path d="M211.1525 55.6267
L211.1525 55.9600
" />
<path d="M211.1525 55.9600
L211.2001 56.0552
" />
<path d="M211.2001 56.0552
L211.2477 56.1029
" />
<path d="M211.2477 56.1029
L211.3430 56.1505
" />
<path d="M211.3430 56.1505
L211.4382 56.1505
" />
<path d="M211.4382 56.1505
L211.5334 56.1029
" />
<path d="M211.5334 56.1029
L211.5810 56.0552
" />
<path d="M211.5810 56.0552
L211.6287 55.9600
" />
<path d="M211.6287 55.9600
L211.6287 55.6267
" />
<path d="M211.1525 56.6267
L211.9620 56.6267
" />
<path d="M211.9620 56.6267
L212.0572 56.6743
" />
<path d="M212.0572 56.6743
L212.1049 56.7219
" />
<path d="M212.1049 56.7219
L212.1525 56.8171
" />
<path d="M212.1525 56.8171
L212.1525 57.0076
" />
<path d="M212.1525 57.0076
L212.1049 57.1029
" />
<path d="M212.1049 57.1029
L212.0572 57.1505
" />
<path d="M212.0572 57.1505
L211.9620 57.1981
" />
<path d="M211.9620 57.1981
L211.1525 57.1981
" />
<path d="M212.1049 57.6267
L212.1525 57.7695
" />
<path d="M212.1525 57.7695
L212.1525 58.0076
" />
<path d="M212.1525 58.0076
L212.1049 58.1029
" />
<path d="M212.1049 58.1029
L212.0572 58.1505
" />
<path d="M212.0572 58.1505
L211.9620 58.1981
" />
<path d="M211.9620 58.1981
L211.8668 58.1981
" />
<path d="M211.8668 58.1981
L211.7715 58.1505
" />
<path d="M211.7715 58.1505
L211.7239 58.1029
" />
<path d="M211.7239 58.1029
L211.6763 58.0076
" />
<path d="M211.6763 58.0076
L211.6287 57.8171
" />
<path d="M211.6287 57.8171
L211.5810 57.7219
" />
<path d="M211.5810 57.7219
L211.5334 57.6743
" />
<path d="M211.5334 57.6743
L211.4382 57.6267
" />
<path d="M211.4382 57.6267
L211.3430 57.6267
" />
<path d="M211.3430 57.6267
L211.2477 57.6743
" />
<path d="M211.2477 57.6743
L211.2001 57.7219
" />
<path d="M211.2001 57.7219
L211.1525 57.8171
" />
<path d="M211.1525 57.8171
L211.1525 58.0552
" />
<path d="M211.1525 58.0552
L211.2001 58.1981
" />
</g><g transform="rotate(-90.000000 213.8900 56.4600)">
<text x="213.8900" y="56.4600"
transform="scale(-1 1) translate(-427.780000 0)"
textLength="5.7190" font-size="1.3333" lengthAdjust="spacingAndGlyphs"
text-anchor="middle" opacity="0" stroke-opacity="0">BYPASS</text>
</g>
<g class="stroked-text"><desc>BYPASS</desc>
<path d="M213.2386 54.2219
L213.2862 54.3648
" />
<path d="M213.2862 54.3648
L213.3338 54.4124
" />
<path d="M213.3338 54.4124
L213.4291 54.4600
" />
<path d="M213.4291 54.4600
L213.5719 54.4600
" />
<path d="M213.5719 54.4600
L213.6672 54.4124
" />
<path d="M213.6672 54.4124
L213.7148 54.3648
" />
<path d="M213.7148 54.3648
L213.7624 54.2695
" />
<path d="M213.7624 54.2695
L213.7624 53.8886
" />
<path d="M213.7624 53.8886
L212.7624 53.8886
" />
<path d="M212.7624 53.8886
L212.7624 54.2219
" />
<path d="M212.7624 54.2219
L212.8100 54.3171
" />
<path d="M212.8100 54.3171
L212.8577 54.3648
" />
<path d="M212.8577 54.3648
L212.9529 54.4124
" />
<path d="M212.9529 54.4124
L213.0481 54.4124
" />
<path d="M213.0481 54.4124
L213.1434 54.3648
" />
<path d="M213.1434 54.3648
L213.1910 54.3171
" />
<path d="M213.1910 54.3171
L213.2386 54.2219
" />
<path d="M213.2386 54.2219
L213.2386 53.8886
" />
<path d="M213.2862 55.0790
L213.7624 55.0790
" />
<path d="M212.7624 54.7457
L213.2862 55.0790
" />
<path d="M213.2862 55.0790
L212.7624 55.4124
" />
<path d="M213.7624 55.7457
L212.7624 55.7457
" />
<path d="M212.7624 55.7457
L212.7624 56.1267
" />
<path d="M212.7624 56.1267
L212.8100 56.2219
" />
<path d="M212.8100 56.2219
L212.8577 56.2695
" />
<path d="M212.8577 56.2695
L212.9529 56.3171
" />
<path d="M212.9529 56.3171
L213.0958 56.3171
" />
<path d="M213.0958 56.3171
L213.1910 56.2695
" />
<path d="M213.1910 56.2695
L213.2386 56.2219
" />
<path d="M213.2386 56.2219
L213.2862 56.1267
" />
<path d="M213.2862 56.1267
L213.2862 55.7457
" />
<path d="M213.4767 56.6981
L213.4767 57.1743
" />
<path d="M213.7624 56.6029
L212.7624 56.9362
" />
<path d="M212.7624 56.9362
L213.7624 57.2695
" />
<path d="M213.7148 57.5552
L213.7624 57.6981
" />
<path d="M213.7624 57.6981
L213.7624 57.9362
" />
<path d="M213.7624 57.9362
L213.7148 58.0314
" />
<path d="M213.7148 58.0314
L213.6672 58.0790
" />
<path d="M213.6672 58.0790
L213.5719 58.1267
" />
<path d="M213.5719 58.1267
L213.4767 58.1267
" />
<path d="M213.4767 58.1267
L213.3815 58.0790
" />
<path d="M213.3815 58.0790
L213.3338 58.0314
" />
<path d="M213.3338 58.0314
L213.2862 57.9362
" />
<path d="M213.2862 57.9362
L213.2386 57.7457
" />
<path d="M213.2386 57.7457
L213.1910 57.6505
" />
<path d="M213.1910 57.6505
L213.1434 57.6029
" />
<path d="M213.1434 57.6029
L213.0481 57.5552
" />
<path d="M213.0481 57.5552
L212.9529 57.5552
" />
<path d="M212.9529 57.5552
L212.8577 57.6029
" />
<path d="M212.8577 57.6029
L212.8100 57.6505
" />
<path d="M212.8100 57.6505
L212.7624 57.7457
" />
<path d="M212.7624 57.7457
L212.7624 57.9838
" />
<path d="M212.7624 57.9838
L212.8100 58.1267
" />
<path d="M213.7148 58.5076
L213.7624 58.6505
" />
<path d="M213.7624 58.6505
L213.7624 58.8886
" />
<path d="M213.7624 58.8886
L213.7148 58.9838
" />
<path d="M213.7148 58.9838
L213.6672 59.0314
" />
<path d="M213.6672 59.0314
L213.5719 59.0790
" />
<path d="M213.5719 59.0790
L213.4767 59.0790
" />
<path d="M213.4767 59.0790
L213.3815 59.0314
" />
<path d="M213.3815 59.0314
L213.3338 58.9838
" />
<path d="M213.3338 58.9838
L213.2862 58.8886
" />
<path d="M213.2862 58.8886
L213.2386 58.6981
" />
<path d="M213.2386 58.6981
L213.1910 58.6029
" />
<path d="M213.1910 58.6029
L213.1434 58.5552
" />
<path d="M213.1434 58.5552
L213.0481 58.5076
" />
<path d="M213.0481 58.5076
L212.9529 58.5076
" />
<path d="M212.9529 58.5076
L212.8577 58.5552
" />
<path d="M212.8577 58.5552
L212.8100 58.6029
" />
<path d="M212.8100 58.6029
L212.7624 58.6981
" />
<path d="M212.7624 58.6981
L212.7624 58.9362
" />
<path d="M212.7624 58.9362
L212.8100 59.0790
" />
</g><g transform="rotate(-90.000000 201.3521 55.2200)">
<text x="201.3521" y="55.2200"
transform="scale(-1 1) translate(-402.704112 0)"
textLength="5.2905" font-size="1.3333" lengthAdjust="spacingAndGlyphs"
text-anchor="middle" opacity="0" stroke-opacity="0">SHIELD</text>
</g>
<g class="stroked-text"><desc>SHIELD</desc>
<path d="M201.1769 52.8152
L201.2245 52.9581
" />
<path d="M201.2245 52.9581
L201.2245 53.1962
" />
<path d="M201.2245 53.1962
L201.1769 53.2914
" />
<path d="M201.1769 53.2914
L201.1292 53.3390
" />
<path d="M201.1292 53.3390
L201.0340 53.3867
" />
<path d="M201.0340 53.3867
L200.9388 53.3867
" />
<path d="M200.9388 53.3867
L200.8435 53.3390
" />
<path d="M200.8435 53.3390
L200.7959 53.2914
" />
<path d="M200.7959 53.2914
L200.7483 53.1962
" />
<path d="M200.7483 53.1962
L200.7007 53.0057
" />
<path d="M200.7007 53.0057
L200.6530 52.9105
" />
<path d="M200.6530 52.9105
L200.6054 52.8629
" />
<path d="M200.6054 52.8629
L200.5102 52.8152
" />
<path d="M200.5102 52.8152
L200.4150 52.8152
" />
<path d="M200.4150 52.8152
L200.3197 52.8629
" />
<path d="M200.3197 52.8629
L200.2721 52.9105
" />
<path d="M200.2721 52.9105
L200.2245 53.0057
" />
<path d="M200.2245 53.0057
L200.2245 53.2438
" />
<path d="M200.2245 53.2438
L200.2721 53.3867
" />
<path d="M201.2245 53.8152
L200.2245 53.8152
" />
<path d="M200.7007 53.8152
L200.7007 54.3867
" />
<path d="M201.2245 54.3867
L200.2245 54.3867
" />
<path d="M201.2245 54.8629
L200.2245 54.8629
" />
<path d="M200.7007 55.3390
L200.7007 55.6724
" />
<path d="M201.2245 55.8152
L201.2245 55.3390
" />
<path d="M201.2245 55.3390
L200.2245 55.3390
" />
<path d="M200.2245 55.3390
L200.2245 55.8152
" />
<path d="M201.2245 56.7200
L201.2245 56.2438
" />
<path d="M201.2245 56.2438
L200.2245 56.2438
" />
<path d="M201.2245 57.0533
L200.2245 57.0533
" />
<path d="M200.2245 57.0533
L200.2245 57.2914
" />
<path d="M200.2245 57.2914
L200.2721 57.4343
" />
<path d="M200.2721 57.4343
L200.3673 57.5295
" />
<path d="M200.3673 57.5295
L200.4626 57.5771
" />
<path d="M200.4626 57.5771
L200.6530 57.6248
" />
<path d="M200.6530 57.6248
L200.7959 57.6248
" />
<path d="M200.7959 57.6248
L200.9864 57.5771
" />
<path d="M200.9864 57.5771
L201.0816 57.5295
" />
<path d="M201.0816 57.5295
L201.1769 57.4343
" />
<path d="M201.1769 57.4343
L201.2245 57.2914
" />
<path d="M201.2245 57.2914
L201.2245 57.0533
" />
</g><g transform="rotate(-90.000000 202.9620 55.2200)">
<text x="202.9620" y="55.2200"
transform="scale(-1 1) translate(-405.924000 0)"
textLength="5.7190" font-size="1.3333" lengthAdjust="spacingAndGlyphs"
text-anchor="middle" opacity="0" stroke-opacity="0">TO GND</text>
</g>
<g class="stroked-text"><desc>TO GND</desc>
<path d="M201.8344 52.5057
L201.8344 53.0771
" />
<path d="M202.8344 52.7914
L201.8344 52.7914
" />
<path d="M201.8344 53.6010
L201.8344 53.7914
" />
<path d="M201.8344 53.7914
L201.8820 53.8867
" />
<path d="M201.8820 53.8867
L201.9773 53.9819
" />
<path d="M201.9773 53.9819
L202.1678 54.0295
" />
<path d="M202.1678 54.0295
L202.5011 54.0295
" />
<path d="M202.5011 54.0295
L202.6916 53.9819
" />
<path d="M202.6916 53.9819
L202.7868 53.8867
" />
<path d="M202.7868 53.8867
L202.8344 53.7914
" />
<path d="M202.8344 53.7914
L202.8344 53.6010
" />
<path d="M202.8344 53.6010
L202.7868 53.5057
" />
<path d="M202.7868 53.5057
L202.6916 53.4105
" />
<path d="M202.6916 53.4105
L202.5011 53.3629
" />
<path d="M202.5011 53.3629
L202.1678 53.3629
" />
<path d="M202.1678 53.3629
L201.9773 53.4105
" />
<path d="M201.9773 53.4105
L201.8820 53.5057
" />
<path d="M201.8820 53.5057
L201.8344 53.6010
" />
<path d="M201.8820 55.7438
L201.8344 55.6486
" />
<path d="M201.8344 55.6486
L201.8344 55.5057
" />
<path d="M201.8344 55.5057
L201.8820 55.3629
" />
<path d="M201.8820 55.3629
L201.9773 55.2676
" />
<path d="M201.9773 55.2676
L202.0725 55.2200
" />
<path d="M202.0725 55.2200
L202.2630 55.1724
" />
<path d="M202.2630 55.1724
L202.4058 55.1724
" />
<path d="M202.4058 55.1724
L202.5963 55.2200
" />
<path d="M202.5963 55.2200
L202.6916 55.2676
" />
<path d="M202.6916 55.2676
L202.7868 55.3629
" />
<path d="M202.7868 55.3629
L202.8344 55.5057
" />
<path d="M202.8344 55.5057
L202.8344 55.6010
" />
<path d="M202.8344 55.6010
L202.7868 55.7438
" />
<path d="M202.7868 55.7438
L202.7392 55.7914
" />
<path d="M202.7392 55.7914
L202.4058 55.7914
" />
<path d="M202.4058 55.7914
L202.4058 55.6010
" />
<path d="M202.8344 56.2200
L201.8344 56.2200
" />
<path d="M201.8344 56.2200
L202.8344 56.7914
" />
<path d="M202.8344 56.7914
L201.8344 56.7914
" />
<path d="M202.8344 57.2676
L201.8344 57.2676
" />
<path d="M201.8344 57.2676
L201.8344 57.5057
" />
<path d="M201.8344 57.5057
L201.8820 57.6486
" />
<path d="M201.8820 57.6486
L201.9773 57.7438
" />
<path d="M201.9773 57.7438
L202.0725 57.7914
" />
<path d="M202.0725 57.7914
L202.2630 57.8390
" />
<path d="M202.2630 57.8390
L202.4058 57.8390
" />
<path d="M202.4058 57.8390
L202.5963 57.7914
" />
<path d="M202.5963 57.7914
L202.6916 57.7438
" />
<path d="M202.6916 57.7438
L202.7868 57.6486
" />
<path d="M202.7868 57.6486
L202.8344 57.5057
" />
<path d="M202.8344 57.5057
L202.8344 57.2676
" />
</g></g>
<g style="fill:none; 
stroke:#E8B2A7; stroke-width:0.1200; stroke-opacity:1; 
stroke-linecap:round; stroke-linejoin:round;">
<path d="M214.1650 55.7250
L214.1650 57.1250
" />
<path d="M214.8650 57.8250
L215.4650 57.8250
" />
<path d="M215.4650 55.0250
L214.8650 55.0250
" />
<path d="M216.1650 57.1250
L216.1650 55.7250
" />
<path d="M214.8650 55.0250 A0.7000 0.7000 0.0 0 0 214.1650 55.7250" />
<path d="M214.1650 57.1250 A0.7000 0.7000 0.0 0 0 214.8650 57.8250" />
<path d="M216.1650 55.7250 A0.7000 0.7000 0.0 0 0 215.4650 55.0250" />
<path d="M215.4650 57.8250 A0.7000 0.7000 0.0 0 0 216.1650 57.1250" />
<path d="M203.2120 54.5200
L203.2120 55.9200
" />
<path d="M203.9120 56.6200
L204.5120 56.6200
" />
<path d="M204.5120 53.8200
L203.9120 53.8200
" />
<path d="M205.2120 55.9200
L205.2120 54.5200
" />
<path d="M203.9120 53.8200 A0.7000 0.7000 0.0 0 0 203.2120 54.5200" />
<path d="M203.2120 55.9200 A0.7000 0.7000 0.0 0 0 203.9120 56.6200" />
<path d="M205.2120 54.5200 A0.7000 0.7000 0.0 0 0 204.5120 53.8200" />
<path d="M204.5120 56.6200 A0.7000 0.7000 0.0 0 0 205.2120 55.9200" />
<path d="M199.0950 81.9450
L199.0950 82.5450
" />
<path d="M199.6450 80.7450
L200.2450 80.7450
" />
<path d="M199.7450 83.2450
L202.5450 83.2450
" />
<path d="M199.9450 81.0450
L199.6450 80.7450
" />
<path d="M199.9450 81.0450
L200.2450 80.7450
" />
<path d="M202.5450 81.2450
L199.7450 81.2450
" />
<path d="M203.1950 82.5450
L203.1950 81.9450
" />
<path d="M199.7950 81.2450 A0.7000 0.7000 0.0 0 0 199.0950 81.9450" />
<path d="M199.0950 82.5450 A0.7000 0.7000 0.0 0 0 199.7950 83.2450" />
<path d="M203.1950 81.9450 A0.7000 0.7000 0.0 0 0 202.4950 81.2450" />
<path d="M202.4950 83.2450 A0.7000 0.7000 0.0 0 0 203.1950 82.5450" />
<path d="M199.0920 85.1600
L199.0920 85.7600
" />
<path d="M199.6420 83.9600
L200.2420 83.9600
" />
<path d="M199.7420 86.4600
L202.5420 86.4600
" />
<path d="M199.9420 84.2600
L199.6420 83.9600
" />
<path d="M199.9420 84.2600
L200.2420 83.9600
" />
<path d="M202.5420 84.4600
L199.7420 84.4600
" />
<path d="M203.1920 85.7600
L203.1920 85.1600
" />
<path d="M199.7920 84.4600 A0.7000 0.7000 0.0 0 0 199.0920 85.1600" />
<path d="M199.0920 85.7600 A0.7000 0.7000 0.0 0 0 199.7920 86.4600" />
<path d="M203.1920 85.1600 A0.7000 0.7000 0.0 0 0 202.4920 84.4600" />
<path d="M202.4920 86.4600 A0.7000 0.7000 0.0 0 0 203.1920 85.7600" />
</g> 
</svg>
